<svg width="1029" height="915" viewBox="0 0 1029 915" fill="none" xmlns="http://www.w3.org/2000/svg">
<path d="M818.7 408.98L818.3 409.48L704.4 556.78C845.3 536.48 940 476.58 996.4 324.48L966.9 324.68L808.6 325.68L839.2 382.48L829.2 395.38L818.7 408.98Z" fill="#E9CFF1"/>
<path d="M334.2 640.98C334.2 640.98 314.3 655.58 306.1 665.88C297.1 677.18 288 687.18 282.5 694.58C277.1 701.98 231.6 714.48 250.7 679.58C271.1 642.18 295.9 604.58 295.9 604.58L334.2 640.98Z" fill="#AA8AE0"/>
<path d="M516.2 435.48C516.2 435.48 435.4 549.18 417.1 563.88C402.3 575.88 313.2 664.68 312.8 665.18C305 657.28 290.7 649.58 289.8 649.08C275 638.28 266.2 636.48 266.2 636.48C266.2 636.48 342.4 524.48 355.2 510.58C368 496.68 426.5 376.88 426.5 376.88L514.9 359.58L516.2 435.48Z" fill="#3E1C7A"/>
<path d="M299.2 766.58L289.1 773.28C263.8 756.68 250.1 712.28 239.1 694.18C228.1 676.08 231.5 668.58 231.6 668.58C242.6 661.48 250.6 655.88 256.3 651.68C258.7 649.88 262.1 650.38 264 652.78C267.4 657.18 271.7 664.68 270.8 673.78C269.8 683.88 282.7 691.68 290.7 695.48C292.9 696.48 294 698.88 293.4 701.28C291.6 708.48 291.2 716.48 293.7 724.68C305.8 764.68 299.2 766.58 299.2 766.58Z" fill="#3E1C7A"/>
<path d="M249 687.88C259 705.68 270.4 747.28 299.2 766.68L289.1 773.38C263.8 756.78 250.1 712.38 239.1 694.28C228.1 676.18 231.6 668.68 231.6 668.68C235.2 666.38 238.7 663.48 242.1 661.78C241.7 664.48 241 673.68 249 687.88Z" fill="#321266"/>
<path d="M932.1 513.58L923.6 519.58L919.3 522.58L890.2 543.18L768.2 629.58L775.4 764.58L719.1 743.28L508.2 663.18L488.2 675.08L87.4002 914.58H33.7002L287 717.58L418.4 615.48L439.7 598.88H490.2L531.5 611.78L660.8 652.08L715.3 669.08L717.7 669.88L714.1 646.88L701.1 563.28L819.8 412.18L820.2 411.68L831 397.88L853.8 368.88L924.8 499.98L932.1 513.58Z" fill="#B63760"/>
<path d="M1028.7 311.58L822.2 312.78H766.3L965.3 574.28L1028.7 311.58Z" fill="#B63760"/>
<path d="M874.3 513.58L713.2 629.58L714.1 646.88L715.3 669.08L719.1 743.28L720.1 761.08L720.2 764.58L527.1 690.08L488.2 675.08L457.4 663.18L152.4 848.48L43.5 914.58H0L283.7 710.98L423.4 610.68L439.7 598.88L481.5 612.18L663.5 669.88L660.8 652.08L658 634.38L647.1 563.28L796.8 369.58L797.4 368.88L818.7 408.98L820.2 411.68L874.4 513.58H874.3Z" fill="url(#paint0_linear_155_70)"/>
<path d="M970 311.58L766.3 312.78L906.9 574.28L970 311.58Z" fill="url(#paint1_linear_155_70)"/>
<path d="M720.3 764.58H775.4L768.2 629.68H713.2L720.3 764.58Z" fill="#A8385A"/>
<path d="M906.9 574.28H965.3L1028.7 311.58H970L906.9 574.28Z" fill="#B63760"/>
<path d="M233.2 584.68L48.4999 504.08C41.0999 501.28 37.3999 492.98 40.1999 485.58L71.7999 355.98C74.5999 348.58 98.2999 350.08 105.7 352.88L307.1 429.08C314.5 431.88 318.2 440.18 315.4 447.58L268.3 571.98C265.5 579.28 240.6 587.48 233.2 584.68Z" fill="#49176E"/>
<path d="M230.5 583.98L29.1 507.78C21.7 504.98 18 496.68 20.8 489.28L67.9 364.88C70.7 357.48 79 353.78 86.4 356.58L287.8 432.78C295.2 435.58 298.9 443.88 296.1 451.28L249 575.58C246.2 582.98 237.9 586.78 230.5 583.98Z" fill="url(#paint2_linear_155_70)"/>
<path d="M259.7 519.28L50.0001 439.98C44.9001 438.08 42.3001 432.38 44.2001 427.18L68.2001 363.88C70.1001 358.78 75.8001 356.18 81.0001 358.08L290.7 437.38C295.8 439.28 298.4 444.98 296.5 450.18L272.4 513.58C270.5 518.68 264.8 521.28 259.7 519.28Z" fill="#3E1C7A"/>
<path d="M258.7 515.48L49.0001 436.18C43.9001 434.28 41.3001 428.58 43.2001 423.38L67.2001 360.08C69.1001 354.98 74.8001 352.38 80.0001 354.28L289.7 433.58C294.8 435.48 297.4 441.18 295.5 446.38L271.5 509.68C269.6 514.88 263.9 517.38 258.7 515.48Z" fill="url(#paint3_linear_155_70)"/>
<path d="M111.9 466.88L108.9 467.38L99 461.98L103.2 443.48L106.2 442.98L119.1 447.88L111.9 466.88Z" fill="#B6871E"/>
<path d="M204.5 501.88L201.5 502.38L191.6 497.08L195.8 478.58L198.8 477.98L211.7 482.88L204.5 501.88Z" fill="#B6871E"/>
<path d="M108.9 467.38L96 462.48L103.2 443.48L116.1 448.38L108.9 467.38Z" fill="url(#paint4_linear_155_70)"/>
<path d="M201.5 502.38L188.6 497.58L195.8 478.58L208.7 483.38L201.5 502.38Z" fill="url(#paint5_linear_155_70)"/>
<path d="M176.8 380.58L174.2 380.98L153.8 371.88L153.3 366.68L155.9 366.28L178.9 374.98L176.8 380.58Z" fill="#B6871E"/>
<path d="M242 405.28L239.4 405.68L219 396.58L218.5 391.28L221.1 390.88L244.1 399.68L242 405.28Z" fill="#B6871E"/>
<path d="M232.8 398.68L225.9 396.08L230.3 384.48C231.4 381.58 229.9 378.38 227 377.28L179.3 359.18C177.9 358.68 176.4 358.68 175 359.28C173.6 359.88 172.6 360.98 172.1 362.38L167.7 373.98L160.8 371.38L165.2 359.78C166.4 356.48 168.9 353.98 172 352.48C175.2 351.08 178.7 350.98 182 352.18L229.7 370.28C236.4 372.78 239.8 380.38 237.3 387.08L232.8 398.68Z" fill="#3E1C7A"/>
<path d="M174.2 380.98L151.2 372.28L153.3 366.68L176.3 375.38L174.2 380.98Z" fill="url(#paint6_linear_155_70)"/>
<path d="M239.4 405.68L216.3 396.98L218.5 391.28L241.5 399.98L239.4 405.68Z" fill="url(#paint7_linear_155_70)"/>
<path d="M546.6 158.78C564.4 158.98 605.9 187.58 651.9 262.88C657.8 272.48 620.9 296.68 600.9 281.78C547.1 241.88 514.4 158.48 546.6 158.78Z" fill="url(#paint8_linear_155_70)"/>
<path d="M582.1 542.581C582.1 542.581 565.6 575.381 580.6 590.481C595.2 605.081 572.9 637.781 553.7 624.981C534.6 612.281 522.3 586.681 522.9 580.881C523.4 575.081 537.2 562.581 538.6 556.781C540 550.981 543.5 532.181 543.5 532.181C543.5 532.181 584 532.481 582.1 542.581Z" fill="#AA8AE0"/>
<path d="M628.4 636.781L625 648.381C595 651.981 556 626.781 535.9 619.981C515.9 613.181 513.6 605.281 513.6 605.181C517.5 592.681 520 583.181 521.6 576.281C522.3 573.381 525.2 571.481 528.2 572.181C533.6 573.381 541.7 576.381 546.9 583.881C552.6 592.281 567.5 589.881 576.1 587.681C578.4 587.081 580.8 588.181 581.9 590.381C585.1 596.981 590 603.381 597.2 608.081C632.2 631.081 628.4 636.781 628.4 636.781Z" fill="#3E1C7A"/>
<path d="M539.3 608.781C558.4 615.981 593.9 640.481 628.4 636.781L625 648.381C595 651.981 556 626.781 535.9 619.981C515.8 613.181 513.6 605.181 513.6 605.181C514.9 601.081 515.7 596.681 517.2 593.081C518.6 595.581 524 603.081 539.3 608.781Z" fill="#321266"/>
<path d="M432.4 354.181C474.1 357.981 578.8 365.381 624.9 396.081C638.1 404.881 640.7 431.681 622.9 466.581C605 501.481 585 554.581 585 554.581C585 554.581 556.5 564.681 534.8 540.481C534.8 540.481 541.6 514.381 540.8 505.381C539.9 496.381 537.8 460.281 546.2 449.981C554.6 439.681 431.2 470.981 380.8 462.081C335.3 454.081 343 346.081 432.4 354.181Z" fill="url(#paint9_linear_155_70)"/>
<path d="M360.5 390.181C357.2 409.081 369.7 435.681 390.2 438.881C444.5 447.481 582 424.281 572.7 434.781C563.4 445.281 560.1 470.881 560.9 479.981C561.7 489.081 548.8 550.881 548.8 550.881C549.3 551.381 549.7 551.781 550.2 552.181C545 549.681 539.8 545.981 534.9 540.581C534.9 540.581 541.7 514.481 540.9 505.481C540 496.481 537.9 460.381 546.3 450.081C554.7 439.781 431.1 471.581 380.8 462.181C354.3 457.181 345.8 416.681 360.5 390.181Z" fill="#3E1C7A"/>
<path d="M355.5 435.881C372.4 436.781 394.8 435.581 405 425.081C439.9 388.881 451.1 355.181 517.9 363.681C483.9 358.481 451.5 355.981 432.4 354.281C368.5 348.381 346.4 401.881 355.5 435.881Z" fill="#3E1C7A"/>
<path d="M557.8 259.58C540.8 290.38 541 302.68 540.2 319.58C539.7 331.68 517.9 363.68 517.9 363.68C451.1 355.08 436.9 380.78 401.9 416.98C384.4 435.18 320.6 425.48 320.6 425.48C320.6 425.48 379.6 324.68 376.6 282.68C374.4 252.18 389.4 145.88 406.3 136.08C423.2 126.18 449.7 130.18 467.2 129.18C484.1 128.28 510.3 138.68 516.6 140.88C540.6 149.08 544.1 149.68 564.8 167.08C578.7 178.68 574.9 228.78 557.8 259.58Z" fill="url(#paint10_linear_155_70)"/>
<path d="M417.2 200.68L396.9 187.58L386.4 190.78C379.6 225.08 375.5 265.58 376.7 282.58C379.7 324.68 320.7 425.38 320.7 425.38C320.7 425.38 329 426.68 340.4 427.38C370.8 380.28 388 315.48 391.1 273.98C394.2 232.48 417.2 200.68 417.2 200.68Z" fill="#3E1C7A"/>
<path d="M475.8 147.481C475.8 147.481 458.3 197.98 483.6 286.68C483.6 286.68 539.7 182.581 533.3 156.081C522 109.481 475.8 147.481 475.8 147.481Z" fill="#FCEEEC"/>
<path d="M298.6 208.28C279.2 213.08 253 241.38 221.8 295.98C190.5 350.78 187 336.38 173.9 365.78C173.9 365.78 176.3 372.88 184.3 372.88C184.3 372.88 186 381.58 194.5 379.48C203 377.38 196.5 387.98 216.5 381.98C236.5 375.98 221.1 356.68 236.4 337.48C251.7 318.28 302.5 270.18 310.1 259.18C317.8 248.08 315.7 203.98 298.6 208.28Z" fill="url(#paint11_linear_155_70)"/>
<path d="M451.4 149.881C439.2 135.581 440.7 119.581 388.9 141.781C363.1 152.781 312.4 171.481 295.3 193.781C279.4 214.381 258.7 238.481 260.3 246.081C264 264.481 276.6 293.981 283 288.381C311 264.181 350.3 230.381 356.1 227.881C377.4 218.781 400.6 207.881 400.6 207.881C400.6 207.881 472.4 174.581 451.4 149.881Z" fill="url(#paint12_linear_155_70)"/>
<path d="M203.4 320.981C203.4 320.981 214.3 333.481 237 341.081C237 341.081 249.3 323.881 254.8 319.381L215.7 301.381L203.4 320.981Z" fill="#FCEEEC"/>
<path d="M207.6 307.781C207.6 307.781 229.7 326.481 251.9 333.281L356.1 227.881C356.1 227.881 421.3 202.981 449.5 180.881C477.7 158.781 442.5 126.081 424.9 129.281C407.8 132.281 347.6 155.481 307.5 178.681C305.1 180.081 303 181.981 301.3 184.181L207.6 307.781Z" fill="url(#paint13_linear_155_70)"/>
<path d="M483.9 78.3809C483.9 78.3809 482.5 107.581 477.8 122.881C473.6 136.881 469.3 158.581 509.3 158.581C539.6 158.581 537.5 107.181 537.5 107.181L483.9 78.3809Z" fill="url(#paint14_linear_155_70)"/>
<path d="M542.3 39.5803C545.1 47.5803 547.8 58.2803 548.7 66.0803C549.5 73.8803 558.7 97.3803 557 106.68C555.3 115.98 552.7 128.98 527.6 129.08C502.5 129.08 489.8 119.58 479.8 103.08C469.7 86.5803 464.3 67.7803 465.4 62.3803C466.5 56.9803 468.8 34.1803 494.9 28.2803C519 22.7803 537.6 26.1803 542.3 39.5803Z" fill="url(#paint15_linear_155_70)"/>
<path d="M480.9 80.4805L493.1 92.9805C496.3 96.2805 500.7 97.9805 505.2 97.7805C515.8 97.2805 536.2 95.1805 554.5 86.9805C554.5 86.9805 562 101.68 561.3 118.08C560.5 134.48 531.2 139.88 510.1 131.58C489 123.28 476.9 115.58 470.2 101.68C463.5 87.7805 463.8 74.4805 463.8 74.4805L480.9 80.4805Z" fill="#331D60"/>
<path d="M534.3 70.8809C534.3 70.8809 539.5 77.6809 544.5 81.3809C544.5 81.3809 542.7 85.6809 537.5 85.8809L534.3 70.8809Z" fill="#ED9D8D"/>
<path d="M500.2 64.7808C499.5 64.9808 498.8 64.8808 498.3 64.4808C497.5 63.8808 497.5 62.8808 498.4 62.1808C498.6 61.9808 503.9 57.7808 514.1 56.6808C515.3 56.5808 516.3 57.1808 516.3 58.0808C516.3 58.9808 515.3 59.7808 514.1 59.9808C505.8 60.7808 501.6 64.0808 501.4 64.2808C501 64.4808 500.6 64.6808 500.2 64.7808Z" fill="#39147E"/>
<path d="M536.3 55.7805C535.7 55.8805 535.1 55.7805 534.5 55.3805C533.5 54.6805 533.3 53.3805 534 52.3805C534.1 52.1805 537.6 47.2805 545.8 47.9805C547 48.0805 547.9 49.1805 547.8 50.3805C547.7 51.5805 546.6 52.4805 545.4 52.3805C539.9 51.8805 537.7 54.7805 537.6 54.9805C537.3 55.3805 536.8 55.6805 536.3 55.7805Z" fill="#39147E"/>
<path d="M545.3 94.1807C545.1 98.1807 546.3 104.881 546.3 104.881C545.6 105.181 544.8 105.481 544 105.781C533.8 109.681 528 108.781 524.8 106.781C523 105.681 522 104.081 521.4 102.781C520.7 101.181 520.6 99.8806 520.6 99.8806C527 100.381 536.7 97.2807 541.9 95.4807C543.9 94.7807 545.3 94.1807 545.3 94.1807Z" fill="#341355"/>
<path d="M543.8 94.8809L542.9 100.281C533.3 103.881 525.2 103.881 521.3 102.781C520.6 101.181 520.5 99.8809 520.5 99.8809C526.9 100.281 538.7 96.6809 543.8 94.8809Z" fill="white"/>
<path d="M544 105.78C533.8 109.68 528 108.78 524.8 106.78C528.3 105.58 532.7 104.38 536.8 104.28C539.9 104.08 542.2 104.78 544 105.78Z" fill="#E9537F"/>
<path d="M509.1 77.881C510.2 76.581 511.8 75.581 513.8 75.181C514.5 74.981 515.1 74.981 515.8 74.981C516.1 74.081 516.2 72.981 515.9 71.981C515.1 69.381 512.3 67.881 509.7 68.781C507.1 69.581 505.6 72.381 506.4 74.981C506.8 76.281 507.9 77.281 509.1 77.881Z" fill="#39147E"/>
<path d="M540.5 66.7804C541.6 65.4804 543.2 64.4804 545.2 64.0804C545.9 63.8804 546.5 63.8804 547.2 63.8804C547.5 62.9804 547.6 61.8804 547.3 60.8804C546.5 58.2804 543.7 56.7804 541.1 57.6804C538.5 58.4804 537 61.2804 537.8 63.8804C538.2 65.1804 539.2 66.1804 540.5 66.7804Z" fill="#39147E"/>
<path d="M493.9 9.0805C533.4 -15.0195 542.9 15.3805 543.1 25.1805C543.3 34.9805 547 47.0805 547 47.0805C544 39.8805 536.9 31.1805 536.9 31.1805C536.9 31.1805 524.1 44.3805 508.3 40.9805C490.3 37.1805 483 45.3805 485.5 57.8805C492.5 92.4805 479.6 85.9805 478.2 84.0805C476.9 82.0805 462.8 78.3805 466.6 91.0805C469.6 101.081 484.2 104.481 483.8 112.281C465.1 126.981 463 93.7805 450.9 79.7805C438.8 65.8805 449 66.7805 446.3 39.3805C443.6 11.9805 474.5 20.9805 493.9 9.0805Z" fill="#331D60"/>
<path d="M476.5 82.2803C474.2 80.4803 463.4 78.2803 463.8 85.8803C464.2 92.9803 467.9 102.58 478.4 105.88C489 109.18 481.4 86.1803 476.5 82.2803Z" fill="url(#paint16_linear_155_70)"/>
<path d="M549.092 302.347C555.983 315.383 567.19 322.981 574.123 319.316C581.057 315.652 581.091 302.112 574.2 289.075C567.309 276.038 556.103 268.441 549.169 272.105C542.236 275.77 542.201 289.31 549.092 302.347Z" fill="#3E1C7A"/>
<path d="M544.045 303.793C548.845 312.874 556.655 318.166 561.489 315.61C566.323 313.055 566.351 303.622 561.55 294.54C556.75 285.458 548.94 280.167 544.106 282.722C539.272 285.277 539.245 294.711 544.045 303.793Z" fill="#FFE0E3"/>
<path d="M539.7 287.581C562.6 278.781 594.7 252.281 607.5 248.281C620.3 244.381 661.7 259.581 652.5 274.581C642.1 291.681 614.9 301.581 553.5 314.981L539.7 287.581Z" fill="url(#paint17_linear_155_70)"/>
<path d="M540.8 286.881C519.7 284.881 517.6 295.281 507.2 292.281C496.8 289.281 497.1 297.281 501.5 299.781C505.8 302.281 514 302.781 516.2 301.781C516.2 301.781 505.6 310.081 501.7 314.681C501.7 314.681 484.6 310.381 483.8 316.681C483 322.881 485.4 324.481 493.9 325.081C502.4 325.681 499.5 329.581 505 328.081C505 328.081 508.5 334.581 514.8 335.081C514.8 335.081 514.7 339.881 516.9 341.781C519.2 343.681 528.9 339.181 533.4 339.781C537.9 340.381 539 333.981 547.3 328.681C555.6 323.381 553.7 314.781 562.6 310.181C571.4 305.681 561.9 288.881 540.8 286.881Z" fill="url(#paint18_linear_155_70)"/>
<path d="M561.6 294.581C557.2 286.381 550.4 281.281 545.6 282.281L565.3 271.681L585.5 308.581L560.9 315.981C561.1 315.881 561.3 315.781 561.5 315.681C566.4 313.081 566.4 303.681 561.6 294.581Z" fill="#FCEEEC"/>
<path d="M574.1 319.28C581 315.58 581.1 302.08 574.2 289.08C567.7 276.78 557.3 269.28 550.4 271.68C552.2 270.78 594.8 249.68 607.4 247.78C620.3 245.88 647.8 253.98 653.8 267.08C659.8 280.08 640.1 291.28 574.1 319.28Z" fill="url(#paint19_linear_155_70)"/>
<path d="M467.3 129.08C465.2 130.18 463.3 131.88 461.7 133.58C461.3 133.98 460.9 134.48 460.5 134.98C460.1 135.48 459.7 135.88 459.4 136.38C458.7 137.38 458 138.28 457.4 139.38C456.8 140.38 456.1 141.38 455.6 142.48C455.1 143.58 454.5 144.58 454 145.68L452.7 148.98C452.3 150.08 451.9 151.28 451.6 152.38L451 154.08C450.8 154.68 450.7 155.28 450.5 155.78L449.6 159.28C449.3 160.48 449.2 161.58 448.9 162.78C448.7 163.98 448.4 165.08 448.3 166.28C448 168.68 447.7 170.98 447.4 173.38L446.9 180.58L446.5 179.18L454.2 188.88C456.8 192.08 459.4 195.38 461.9 198.68L462.9 199.98L462.1 201.38L453.2 216.98L444.2 232.48L444.3 230.38C447.1 236.88 449.7 243.48 452.4 250.08C455.1 256.68 457.7 263.28 460.3 269.88C462.9 276.48 465.4 283.08 467.9 289.78C470.4 296.38 472.9 303.08 475.2 309.78C472 303.38 469 296.98 466 290.58C463 284.18 460 277.68 457.1 271.28C454.2 264.78 451.3 258.38 448.4 251.88C445.6 245.38 442.7 238.88 439.9 232.38L439.4 231.28L440 230.28L448.9 214.68L458 199.18L458.2 201.78C455.7 198.48 453.2 195.18 450.7 191.88L443.2 181.98L442.7 181.28L442.8 180.58L443.6 173.28C444 170.88 444.4 168.38 444.8 165.98C445.3 163.58 445.9 161.18 446.6 158.78L447.7 155.28C447.9 154.68 448.1 154.08 448.3 153.48L449 151.78C450.7 147.18 453.1 142.78 456 138.78C456.7 137.78 457.6 136.88 458.4 135.88C458.8 135.38 459.3 134.98 459.7 134.58C460.1 134.18 460.6 133.68 461 133.28C462.9 131.38 465 129.98 467.3 129.08Z" fill="#3E1C7A"/>
<path d="M540.8 149.881C542.6 153.281 544.2 156.781 545.6 160.481C547 164.081 548.1 167.781 549.1 171.581C550 175.381 550.7 179.281 551.1 183.181C551.4 187.081 551.4 191.081 550.9 195.081L550.8 195.681L550.3 196.181C547.3 198.981 544.3 201.781 541.2 204.581L532.1 212.981L532.9 210.881L535.2 225.181L536.3 232.381L537.4 239.581L537.6 240.681L536.9 241.481L523.8 257.281L517.2 265.181L510.6 273.081C508.4 275.681 506.2 278.381 504 280.981L497.4 288.781C492.9 293.981 488.5 299.181 483.9 304.381C487.7 298.681 491.6 293.081 495.6 287.481C497.6 284.681 499.6 281.881 501.6 279.181C503.6 276.381 505.7 273.681 507.7 270.881L513.9 262.681L520.2 254.581C524.4 249.181 528.7 243.781 533 238.481L532.5 240.381L531.4 233.181L530.3 225.981L528.1 211.681L527.9 210.381L528.9 209.581L538.3 201.481C541.4 198.781 544.6 196.081 547.7 193.381L547.1 194.481C547.7 190.881 548 187.081 547.9 183.381C547.8 179.581 547.4 175.881 546.8 172.081C546.2 168.281 545.3 164.581 544.3 160.881C543.8 158.981 543.3 157.181 542.7 155.381C542.1 153.481 541.5 151.681 540.8 149.881Z" fill="#3E1C7A"/>
<path d="M497.3 161.681C497.3 161.681 511 165.981 517.9 162.381C524.8 158.781 514.8 153.681 514.8 153.681L508.8 150.681L505.4 149.881L497.3 161.681Z" fill="#B7B3B8"/>
<path d="M509 170.28C509.5 174.18 509.6 177.88 509.7 181.78C509.7 185.58 509.6 189.38 509.2 193.28C508.5 200.98 507 208.58 504.4 216.18L503.9 217.58L503.3 218.98L502.1 221.78C502 221.98 501.9 222.18 501.8 222.48L501.4 223.28L500.5 224.88C499.8 225.88 499.1 226.88 498.3 227.78C495.1 231.38 491.3 233.78 487.8 235.78C484.2 237.78 480.7 239.38 477.2 240.98C473.8 242.48 470.4 243.98 467.2 245.58C464 247.08 460.9 248.68 457.9 250.38C454.9 252.08 452.1 253.98 449.4 255.88C444.1 259.88 439.4 264.38 435.5 269.48C427.6 279.68 422.7 292.08 419.6 305.18L396.4 319.28L393.8 297.28C396.6 289.68 400 282.18 404.3 274.98C408.5 267.88 413.6 261.08 419.5 255.08C425.4 249.08 432.2 243.98 439.4 239.98C443 237.98 446.6 236.18 450.3 234.68C454 233.08 457.7 231.78 461.3 230.58C468.6 228.08 475.8 226.28 482 223.78C485.1 222.58 487.8 221.08 489.8 219.38C490.3 218.98 490.7 218.48 491.2 218.08L491.7 217.38L492 216.98C492.1 216.88 492.2 216.58 492.3 216.48L493.6 214.28L494.2 213.18L494.8 211.98C497.9 205.78 500.1 199.08 501.6 192.08C502.4 188.58 502.9 184.98 503.4 181.48C503.8 177.88 504.1 174.18 504.1 170.78L509 170.28Z" fill="url(#paint20_linear_155_70)"/>
<path d="M498.5 159.681V165.881C498.5 167.181 498.8 168.381 499.5 169.481L500.1 170.481C501.3 172.581 503.4 173.881 505.8 174.081H506.2C508.5 174.281 510.8 173.381 512.3 171.581L514.6 168.881C516 167.281 516.6 165.181 516.3 163.181L515.2 155.481C514.7 152.181 512.1 149.581 508.8 149.281C508.6 149.281 508.4 149.281 508.1 149.181C504.9 148.781 501.7 150.481 500.5 153.481L499.1 156.881C498.6 157.881 498.5 158.781 498.5 159.681Z" fill="url(#paint21_linear_155_70)"/>
<path d="M477.9 122.881L462.9 134.781C462.9 134.781 470.8 161.681 497.2 169.581L508 148.381C507.8 148.481 478.7 148.181 477.9 122.881Z" fill="#FFE0E3"/>
<path d="M533.4 136.181L541.1 147.781C541.1 147.781 538.7 168.081 515.5 170.981L508 148.481C507.8 148.481 528.4 158.881 533.4 136.181Z" fill="#FFE0E3"/>
<path d="M381.5 217.48C381.8 216.88 382 216.58 382 216.58C382 216.58 359.5 223.98 340.5 219.28L252 333.28L356.2 227.88C356.1 227.88 366.8 223.78 381.5 217.48Z" fill="#3E1C7A"/>
<path d="M564.6 244.78C564.6 244.78 585.7 248.78 615.1 248.58C615.1 248.58 596.2 250.08 576.4 259.28C576.5 259.28 570.1 252.38 564.6 244.78Z" fill="#3E1C7A"/>
<path d="M574.1 319.281C640.1 291.281 659.8 280.081 653.8 267.081C653.4 266.281 653 265.581 652.5 264.781C652.4 264.181 652.2 263.481 651.9 262.981C649.2 258.581 646.5 254.281 643.9 250.181C644.1 250.581 653.6 267.581 638.4 278.481C624.2 288.781 580.8 315.081 574.8 318.781C574.6 318.981 574.4 319.081 574.1 319.281Z" fill="#3E1C7A"/>
<defs>
<linearGradient id="paint0_linear_155_70" x1="1001.87" y1="409.067" x2="161.478" y2="952.225" gradientUnits="userSpaceOnUse">
<stop offset="0.00396825" stop-color="#EB6C92"/>
<stop offset="1" stop-color="#AF4161"/>
</linearGradient>
<linearGradient id="paint1_linear_155_70" x1="985.313" y1="347.425" x2="35.3146" y2="961.423" gradientUnits="userSpaceOnUse">
<stop offset="0.00396825" stop-color="#EB6C92"/>
<stop offset="1" stop-color="#AF4161"/>
</linearGradient>
<linearGradient id="paint2_linear_155_70" x1="19.8795" y1="470.254" x2="296.986" y2="470.254" gradientUnits="userSpaceOnUse">
<stop stop-color="#9346E2"/>
<stop offset="1" stop-color="#5E1E9F"/>
</linearGradient>
<linearGradient id="paint3_linear_155_70" x1="42.6726" y1="434.884" x2="296.109" y2="434.884" gradientUnits="userSpaceOnUse">
<stop stop-color="#9346E2"/>
<stop offset="1" stop-color="#5E1E9F"/>
</linearGradient>
<linearGradient id="paint4_linear_155_70" x1="96.0123" y1="455.452" x2="116.078" y2="455.452" gradientUnits="userSpaceOnUse">
<stop stop-color="#FACC47"/>
<stop offset="0.996" stop-color="#B68924"/>
</linearGradient>
<linearGradient id="paint5_linear_155_70" x1="188.596" y1="490.484" x2="208.662" y2="490.484" gradientUnits="userSpaceOnUse">
<stop stop-color="#FACC47"/>
<stop offset="0.996" stop-color="#B68924"/>
</linearGradient>
<linearGradient id="paint6_linear_155_70" x1="151.179" y1="373.821" x2="176.337" y2="373.821" gradientUnits="userSpaceOnUse">
<stop stop-color="#FACC47"/>
<stop offset="0.996" stop-color="#B68924"/>
</linearGradient>
<linearGradient id="paint7_linear_155_70" x1="216.34" y1="398.478" x2="241.498" y2="398.478" gradientUnits="userSpaceOnUse">
<stop stop-color="#FACC47"/>
<stop offset="0.996" stop-color="#B68924"/>
</linearGradient>
<linearGradient id="paint8_linear_155_70" x1="453.893" y1="487.818" x2="616.894" y2="171.817" gradientUnits="userSpaceOnUse">
<stop stop-color="#602BCA"/>
<stop offset="0.287" stop-color="#5F2AC7"/>
<stop offset="0.5166" stop-color="#5A28BD"/>
<stop offset="0.7264" stop-color="#5324AC"/>
<stop offset="0.9231" stop-color="#491F94"/>
<stop offset="1" stop-color="#441C89"/>
</linearGradient>
<linearGradient id="paint9_linear_155_70" x1="353.517" y1="455.251" x2="635.534" y2="455.251" gradientUnits="userSpaceOnUse">
<stop stop-color="#602BCA"/>
<stop offset="0.287" stop-color="#5F2AC7"/>
<stop offset="0.5166" stop-color="#5A28BD"/>
<stop offset="0.7264" stop-color="#5324AC"/>
<stop offset="0.9231" stop-color="#491F94"/>
<stop offset="1" stop-color="#441C89"/>
</linearGradient>
<linearGradient id="paint10_linear_155_70" x1="363.485" y1="441.183" x2="526.484" y2="125.184" gradientUnits="userSpaceOnUse">
<stop stop-color="#602BCA"/>
<stop offset="0.287" stop-color="#5F2AC7"/>
<stop offset="0.5166" stop-color="#5A28BD"/>
<stop offset="0.7264" stop-color="#5324AC"/>
<stop offset="0.9231" stop-color="#491F94"/>
<stop offset="1" stop-color="#441C89"/>
</linearGradient>
<linearGradient id="paint11_linear_155_70" x1="192.88" y1="392.283" x2="237.547" y2="318.949" gradientUnits="userSpaceOnUse">
<stop stop-color="#EEC9BF"/>
<stop offset="0.2767" stop-color="#EEC6BC"/>
<stop offset="0.4981" stop-color="#EFBCB2"/>
<stop offset="0.7003" stop-color="#F1ACA1"/>
<stop offset="0.8901" stop-color="#F39589"/>
<stop offset="1" stop-color="#F48478"/>
</linearGradient>
<linearGradient id="paint12_linear_155_70" x1="309.593" y1="173.667" x2="380.445" y2="227.727" gradientUnits="userSpaceOnUse">
<stop stop-color="#FF627B"/>
<stop offset="1" stop-color="#FFAE5A"/>
</linearGradient>
<linearGradient id="paint13_linear_155_70" x1="257.038" y1="386.276" x2="420.038" y2="70.2756" gradientUnits="userSpaceOnUse">
<stop stop-color="#602BCA"/>
<stop offset="0.287" stop-color="#5F2AC7"/>
<stop offset="0.5166" stop-color="#5A28BD"/>
<stop offset="0.7264" stop-color="#5324AC"/>
<stop offset="0.9231" stop-color="#491F94"/>
<stop offset="1" stop-color="#441C89"/>
</linearGradient>
<linearGradient id="paint14_linear_155_70" x1="536.018" y1="127.313" x2="476.43" y2="115.219" gradientUnits="userSpaceOnUse">
<stop stop-color="#EEC9BF"/>
<stop offset="0.2767" stop-color="#EEC6BC"/>
<stop offset="0.4981" stop-color="#EFBCB2"/>
<stop offset="0.7003" stop-color="#F1ACA1"/>
<stop offset="0.8901" stop-color="#F39589"/>
<stop offset="1" stop-color="#F48478"/>
</linearGradient>
<linearGradient id="paint15_linear_155_70" x1="529.524" y1="133.368" x2="492.524" y2="19.8684" gradientUnits="userSpaceOnUse">
<stop stop-color="#EEC9BF"/>
<stop offset="0.2767" stop-color="#EEC6BC"/>
<stop offset="0.4981" stop-color="#EFBCB2"/>
<stop offset="0.7003" stop-color="#F1ACA1"/>
<stop offset="0.8901" stop-color="#F39589"/>
<stop offset="1" stop-color="#F48478"/>
</linearGradient>
<linearGradient id="paint16_linear_155_70" x1="491.014" y1="145.921" x2="454.014" y2="32.4214" gradientUnits="userSpaceOnUse">
<stop stop-color="#EEC9BF"/>
<stop offset="0.2767" stop-color="#EEC6BC"/>
<stop offset="0.4981" stop-color="#EFBCB2"/>
<stop offset="0.7003" stop-color="#F1ACA1"/>
<stop offset="0.8901" stop-color="#F39589"/>
<stop offset="1" stop-color="#F48478"/>
</linearGradient>
<linearGradient id="paint17_linear_155_70" x1="518.437" y1="370.789" x2="598.937" y2="278.289" gradientUnits="userSpaceOnUse">
<stop stop-color="#EEC9BF"/>
<stop offset="0.2767" stop-color="#EEC6BC"/>
<stop offset="0.4981" stop-color="#EFBCB2"/>
<stop offset="0.7003" stop-color="#F1ACA1"/>
<stop offset="0.8901" stop-color="#F39589"/>
<stop offset="1" stop-color="#F48478"/>
</linearGradient>
<linearGradient id="paint18_linear_155_70" x1="491.796" y1="347.604" x2="572.295" y2="255.105" gradientUnits="userSpaceOnUse">
<stop stop-color="#EEC9BF"/>
<stop offset="0.2767" stop-color="#EEC6BC"/>
<stop offset="0.4981" stop-color="#EFBCB2"/>
<stop offset="0.7003" stop-color="#F1ACA1"/>
<stop offset="0.8901" stop-color="#F39589"/>
<stop offset="1" stop-color="#F48478"/>
</linearGradient>
<linearGradient id="paint19_linear_155_70" x1="483.673" y1="503.179" x2="646.673" y2="187.179" gradientUnits="userSpaceOnUse">
<stop stop-color="#602BCA"/>
<stop offset="0.287" stop-color="#5F2AC7"/>
<stop offset="0.5166" stop-color="#5A28BD"/>
<stop offset="0.7264" stop-color="#5324AC"/>
<stop offset="0.9231" stop-color="#491F94"/>
<stop offset="1" stop-color="#441C89"/>
</linearGradient>
<linearGradient id="paint20_linear_155_70" x1="393.794" y1="244.823" x2="520.165" y2="244.823" gradientUnits="userSpaceOnUse">
<stop stop-color="#FACC47"/>
<stop offset="0.996" stop-color="#B68924"/>
</linearGradient>
<linearGradient id="paint21_linear_155_70" x1="498.456" y1="161.673" x2="516.288" y2="161.673" gradientUnits="userSpaceOnUse">
<stop stop-color="#FACC47"/>
<stop offset="0.996" stop-color="#B68924"/>
</linearGradient>
</defs>
</svg>
