<svg width="1458" height="213" viewBox="0 0 1458 213" fill="none" xmlns="http://www.w3.org/2000/svg">
<path d="M-8.15392e-05 206.833C-8.15392e-05 209.779 2.38773 212.167 5.33325 212.167C8.27877 212.167 10.6666 209.779 10.6666 206.833C10.6666 203.888 8.27877 201.5 5.33325 201.5C2.38773 201.5 -8.15392e-05 203.888 -8.15392e-05 206.833ZM1446.5 5.3335C1446.5 8.27901 1448.89 10.6668 1451.83 10.6668C1454.78 10.6668 1457.17 8.27901 1457.17 5.3335C1457.17 2.38798 1454.78 0.000162601 1451.83 0.000162601C1448.89 0.000162601 1446.5 2.38798 1446.5 5.3335ZM5.33325 206.833L5.85051 207.689C7.49097 206.698 9.15813 205.688 10.8514 204.66L10.3327 203.806L9.81394 202.951C8.12144 203.978 6.45528 204.987 4.81599 205.978L5.33325 206.833ZM15.418 200.716L15.9376 201.57C19.2134 199.578 22.5798 197.527 26.0323 195.425L25.5123 194.571L24.9922 193.717C21.5391 195.819 18.1735 197.87 14.8983 199.862L15.418 200.716ZM30.5625 191.497L31.0823 192.351C34.3805 190.345 37.7525 188.297 41.1953 186.211L40.6772 185.356L40.1591 184.5C36.7149 186.587 33.3417 188.636 30.0428 190.643L30.5625 191.497ZM45.7388 182.294L46.2558 183.15C49.5746 181.146 52.9554 179.111 56.3956 177.05L55.8816 176.192L55.3677 175.334C51.9252 177.397 48.5424 179.433 45.2219 181.438L45.7388 182.294ZM60.9485 173.163L61.4606 174.022C64.798 172.032 68.1883 170.02 71.6293 167.99L71.1212 167.129L70.6131 166.268C67.1691 168.299 63.7761 170.313 60.4363 172.305L60.9485 173.163ZM76.2546 164.109L76.7604 164.972C80.1179 163.003 83.5213 161.02 86.9686 159.025L86.4677 158.159L85.9668 157.294C82.516 159.291 79.1093 161.276 75.7488 163.247L76.2546 164.109ZM91.5722 155.215L92.0704 156.083C95.4578 154.136 98.8856 152.181 102.352 150.219L101.86 149.349L101.367 148.478C97.8966 150.442 94.4649 152.4 91.074 154.348L91.5722 155.215ZM107.002 146.451L107.491 147.323C110.9 145.41 114.344 143.493 117.823 141.574L117.34 140.698L116.857 139.823C113.374 141.744 109.925 143.664 106.512 145.579L107.002 146.451ZM122.538 137.845L123.018 138.722C126.449 136.847 129.912 134.973 133.406 133.101L132.933 132.219L132.461 131.338C128.963 133.212 125.495 135.09 122.059 136.967L122.538 137.845ZM138.171 129.427L138.64 130.311C142.099 128.476 145.586 126.646 149.1 124.823L148.64 123.935L148.179 123.048C144.659 124.874 141.167 126.707 137.703 128.544L138.171 129.427ZM153.892 121.225L154.349 122.115C157.842 120.323 161.361 118.539 164.904 116.765L164.456 115.871L164.009 114.976C160.46 116.753 156.935 118.541 153.436 120.335L153.892 121.225ZM169.737 113.243L170.18 114.14C173.701 112.399 177.245 110.669 180.809 108.954L180.376 108.052L179.942 107.151C176.371 108.87 172.821 110.603 169.294 112.347L169.737 113.243ZM185.707 105.504L186.136 106.408C189.686 104.723 193.255 103.053 196.844 101.4L196.426 100.491L196.007 99.5831C192.411 101.24 188.835 102.913 185.278 104.601L185.707 105.504ZM201.806 98.0319L202.219 98.9426C205.799 97.3191 209.397 95.7134 213.011 94.1276L212.609 93.2118L212.207 92.2961C208.585 93.8853 204.98 95.4944 201.393 97.1211L201.806 98.0319ZM218.038 90.8507L218.434 91.7689C222.045 90.2121 225.671 88.6761 229.313 87.1632L228.929 86.2397L228.545 85.3162C224.896 86.8326 221.261 88.3721 217.642 89.9324L218.038 90.8507ZM234.404 83.9869L234.782 84.913C238.425 83.4287 242.082 81.9684 245.752 80.5343L245.388 79.6029L245.024 78.6715C241.345 80.1091 237.679 81.573 234.027 83.0608L234.404 83.9869ZM250.907 77.4699L251.264 78.404C254.942 76.9984 258.631 75.6201 262.331 74.2712L261.989 73.3317L261.646 72.3922C257.936 73.7447 254.237 75.1266 250.55 76.5358L250.907 77.4699ZM267.555 71.3279L267.89 72.2701C271.601 70.9511 275.322 69.6626 279.052 68.4069L278.733 67.4592L278.413 66.5115C274.673 67.7708 270.941 69.063 267.22 70.3856L267.555 71.3279ZM284.349 65.5953L284.66 66.5458C288.405 65.3212 292.158 64.1307 295.918 62.9763L295.624 62.0203L295.331 61.0644C291.559 62.2224 287.795 63.4166 284.038 64.6448L284.349 65.5953ZM301.29 60.31L301.574 61.2687C305.353 60.1475 309.138 59.0638 312.928 58.0198L312.662 57.0557L312.397 56.0916C308.594 57.1392 304.796 58.2265 301.005 59.3513L301.29 60.31ZM318.374 55.5138L318.629 56.4806C322.441 55.4724 326.258 54.5055 330.078 53.582L329.843 52.61L329.608 51.638C325.774 52.5649 321.943 53.5353 318.118 54.5471L318.374 55.5138ZM335.597 51.2525L335.821 52.227C339.665 51.3427 343.512 50.5034 347.36 49.7116L347.158 48.7321L346.957 47.7527C343.093 48.5477 339.231 49.3902 335.372 50.278L335.597 51.2525ZM352.951 47.5763L353.141 48.5581C357.015 47.8094 360.89 47.1099 364.764 46.4619L364.599 45.4756L364.434 44.4893C360.543 45.1401 356.652 45.8427 352.761 46.5945L352.951 47.5763ZM370.434 44.5388L370.586 45.5272C374.484 44.9275 378.381 44.3812 382.275 43.8907L382.15 42.8985L382.025 41.9064C378.113 42.3992 374.198 42.948 370.282 43.5504L370.434 44.5388ZM388.027 42.2005L388.138 43.1944C392.055 42.7576 395.968 42.3786 399.875 42.0597L399.794 41.063L399.713 40.0663C395.785 40.3868 391.852 40.7678 387.916 41.2067L388.027 42.2005ZM405.703 40.6266L405.769 41.6244C409.701 41.3647 413.628 41.1672 417.547 41.0346L417.513 40.0352L417.479 39.0357C413.538 39.1691 409.59 39.3676 405.637 39.6288L405.703 40.6266ZM423.429 39.8842L423.446 40.8841C425.411 40.8505 427.373 40.8335 429.333 40.8335V39.8335V38.8335C427.361 38.8335 425.388 38.8506 423.412 38.8844L423.429 39.8842ZM429.333 39.8335V40.8335C431.33 40.8335 433.33 40.8539 435.335 40.8943L435.355 39.8945L435.376 38.8947C433.358 38.8541 431.343 38.8335 429.333 38.8335V39.8335ZM441.401 40.0757L441.362 41.0749C445.353 41.2331 449.359 41.4677 453.381 41.775L453.457 40.7779L453.533 39.7808C449.488 39.4718 445.457 39.2357 441.441 39.0764L441.401 40.0757ZM459.498 41.2923L459.404 42.2879C463.379 42.6608 467.367 43.1021 471.368 43.6081L471.493 42.616L471.619 41.624C467.597 41.1153 463.588 40.6716 459.591 40.2967L459.498 41.2923ZM477.491 43.4213L477.351 44.4114C481.309 44.9731 485.28 45.5961 489.261 46.2766L489.43 45.2909L489.598 44.3052C485.599 43.6216 481.61 42.9957 477.632 42.4312L477.491 43.4213ZM495.371 46.347L495.19 47.3304C499.13 48.0574 503.08 48.8388 507.041 49.6711L507.246 48.6925L507.452 47.7139C503.476 46.8783 499.509 46.0937 495.553 45.3636L495.371 46.347ZM513.129 49.9641L512.912 50.9403C516.824 51.8092 520.745 52.7257 524.674 53.6868L524.911 52.7155L525.149 51.7441C521.207 50.7798 517.272 49.86 513.346 48.9879L513.129 49.9641ZM530.759 54.1767L530.512 55.1457C534.395 56.1364 538.287 57.1687 542.185 58.2396L542.45 57.2753L542.715 56.311C538.805 55.2371 534.902 54.2016 531.006 53.2078L530.759 54.1767ZM548.262 58.8988L547.989 59.8608C551.846 60.9555 555.709 62.0862 559.578 63.2499L559.866 62.2923L560.154 61.3347C556.276 60.1681 552.403 59.0345 548.535 57.9368L548.262 58.8988ZM565.644 64.0532L565.349 65.0087C569.182 66.1916 573.02 67.4052 576.862 68.6467L577.169 67.6951L577.477 66.7436C573.627 65.4995 569.781 64.2832 565.939 63.0976L565.644 64.0532ZM582.915 69.571L582.602 70.5206C586.413 71.7775 590.228 73.0601 594.047 74.3658L594.37 73.4196L594.694 72.4733C590.869 71.1655 587.047 69.8805 583.228 68.6213L582.915 69.571ZM600.087 75.3901L599.759 76.3347C603.552 77.6526 607.348 78.9917 611.146 80.3492L611.483 79.4075L611.819 78.4659C608.016 77.1065 604.214 75.7654 600.415 74.4455L600.087 75.3901ZM617.173 81.4541L616.833 82.3945C620.611 83.7617 624.392 85.1457 628.173 86.5438L628.52 85.6058L628.867 84.6679C625.081 83.2684 621.297 81.8828 617.513 80.5138L617.173 81.4541ZM634.189 87.7113L633.839 88.6482C637.607 90.0539 641.376 91.4721 645.144 92.9001L645.499 91.965L645.853 91.0299C642.081 89.6008 638.31 88.1814 634.539 86.7744L634.189 87.7113ZM651.15 94.1132L650.794 95.0476C654.554 96.4815 658.315 97.9237 662.075 99.3716L662.434 98.4384L662.793 97.5052C659.032 96.0567 655.269 94.6136 651.506 93.1788L651.15 94.1132ZM668.073 100.614L667.712 101.547C671.47 102.999 675.226 104.455 678.981 105.914L679.343 104.981L679.705 104.049C675.949 102.591 672.192 101.134 668.433 99.6812L668.073 100.614ZM684.973 107.169L684.611 108.101C688.369 109.562 692.125 111.024 695.879 112.482L696.241 111.55L696.603 110.618C692.85 109.159 689.094 107.698 685.336 106.237L684.973 107.169ZM701.869 113.736L701.508 114.668C705.27 116.128 709.03 117.584 712.786 119.033L713.146 118.1L713.506 117.167C709.751 115.719 705.993 114.263 702.231 112.803L701.869 113.736ZM718.78 120.27L718.421 121.203C722.191 122.652 725.957 124.093 729.719 125.522L730.074 124.588L730.429 123.653C726.67 122.224 722.907 120.785 719.138 119.337L718.78 120.27ZM735.721 126.727L735.368 127.662C739.149 129.089 742.925 130.504 746.695 131.903L747.043 130.965L747.391 130.028C743.624 128.63 739.852 127.217 736.074 125.791L735.721 126.727ZM752.711 133.059L752.366 133.997C756.16 135.391 759.949 136.768 763.731 138.125L764.068 137.184L764.406 136.243C760.63 134.888 756.846 133.512 753.056 132.12L752.711 133.059ZM769.766 139.215L769.432 140.157C773.243 141.506 777.047 142.833 780.843 144.135L781.167 143.189L781.492 142.243C777.703 140.944 773.905 139.619 770.099 138.272L769.766 139.215ZM786.903 145.139L786.584 146.087C790.416 147.378 794.239 148.642 798.053 149.875L798.36 148.924L798.668 147.972C794.862 146.741 791.047 145.48 787.222 144.192L786.903 145.139ZM804.138 150.771L803.837 151.725C807.697 152.945 811.548 154.132 815.388 155.283L815.675 154.325L815.962 153.367C812.132 152.219 808.291 151.035 804.44 149.818L804.138 150.771ZM821.486 156.041L821.207 157.002C825.1 158.134 828.981 159.228 832.85 160.279L833.112 159.313L833.374 158.348C829.517 157.301 825.647 156.211 821.765 155.081L821.486 156.041ZM838.958 160.871L838.705 161.839C842.633 162.865 846.549 163.845 850.45 164.776L850.682 163.803L850.914 162.83C847.028 161.903 843.126 160.926 839.21 159.903L838.958 160.871ZM856.561 165.17L856.34 166.145C860.306 167.043 864.258 167.887 868.193 168.675L868.389 167.694L868.585 166.713C864.667 165.93 860.732 165.089 856.782 164.194L856.561 165.17ZM874.298 168.835L874.115 169.818C878.119 170.562 882.106 171.245 886.075 171.861L886.228 170.873L886.382 169.885C882.433 169.271 878.466 168.592 874.481 167.851L874.298 168.835ZM892.193 171.751L892.056 172.742C896.084 173.302 900.092 173.791 904.081 174.205L904.184 173.21L904.288 172.216C900.323 171.804 896.337 171.318 892.331 170.761L892.193 171.751ZM910.22 173.78L910.135 174.776C914.186 175.12 918.216 175.383 922.223 175.561L922.267 174.562L922.311 173.563C918.332 173.386 914.33 173.125 910.304 172.783L910.22 173.78ZM928.318 174.765L928.296 175.765C930.314 175.81 932.327 175.833 934.333 175.833V174.833V173.833C932.342 173.833 930.345 173.811 928.341 173.765L928.318 174.765ZM934.333 174.833V175.833C936.318 175.833 938.303 175.825 940.288 175.808L940.279 174.808L940.27 173.808C938.292 173.825 936.313 173.833 934.333 173.833V174.833ZM946.222 174.731L946.239 175.731C950.207 175.663 954.172 175.561 958.135 175.426L958.101 174.427L958.067 173.428C954.116 173.562 950.161 173.663 946.204 173.731L946.222 174.731ZM964.042 174.201L964.084 175.2C968.048 175.032 972.009 174.833 975.965 174.602L975.907 173.603L975.848 172.605C971.903 172.836 967.953 173.035 963.999 173.202L964.042 174.201ZM981.842 173.233L981.909 174.23C985.869 173.967 989.825 173.673 993.775 173.348L993.693 172.352L993.611 171.355C989.671 171.679 985.726 171.972 981.776 172.235L981.842 173.233ZM999.613 171.842L999.703 172.838C1003.66 172.482 1007.61 172.097 1011.55 171.682L1011.45 170.687L1011.34 169.693C1007.41 170.107 1003.47 170.491 999.524 170.846L999.613 171.842ZM1017.35 170.044L1017.46 171.038C1021.41 170.593 1025.35 170.119 1029.28 169.617L1029.16 168.625L1029.03 167.633C1025.1 168.134 1021.17 168.607 1017.23 169.051L1017.35 170.044ZM1035.04 167.852L1035.18 168.843C1039.11 168.312 1043.04 167.753 1046.96 167.168L1046.82 166.178L1046.67 165.189C1042.76 165.774 1038.84 166.331 1034.91 166.861L1035.04 167.852ZM1052.69 165.28L1052.84 166.268C1056.77 165.654 1060.68 165.013 1064.59 164.347L1064.42 163.361L1064.25 162.375C1060.35 163.04 1056.45 163.679 1052.53 164.292L1052.69 165.28ZM1070.27 162.341L1070.45 163.326C1074.36 162.632 1078.26 161.912 1082.15 161.168L1081.96 160.186L1081.77 159.203C1077.89 159.946 1074 160.664 1070.1 161.357L1070.27 162.341ZM1087.8 159.048L1087.99 160.029C1091.89 159.257 1095.77 158.461 1099.63 157.642L1099.43 156.664L1099.22 155.686C1095.36 156.503 1091.49 157.297 1087.6 158.067L1087.8 159.048ZM1105.25 155.411L1105.46 156.388C1109.34 155.541 1113.21 154.671 1117.06 153.779L1116.83 152.804L1116.61 151.83C1112.76 152.721 1108.91 153.589 1105.04 154.435L1105.25 155.411ZM1122.63 151.443L1122.86 152.416C1126.73 151.494 1130.58 150.551 1134.41 149.587L1134.17 148.617L1133.93 147.648C1130.1 148.61 1126.25 149.551 1122.4 150.47L1122.63 151.443ZM1139.92 147.152L1140.17 148.121C1144.03 147.127 1147.87 146.113 1151.69 145.079L1151.43 144.113L1151.16 143.148C1147.35 144.18 1143.52 145.192 1139.68 146.184L1139.92 147.152ZM1157.14 142.549L1157.4 143.513C1161.25 142.448 1165.07 141.364 1168.87 140.262L1168.6 139.301L1168.32 138.341C1164.52 139.441 1160.71 140.523 1156.87 141.585L1157.14 142.549ZM1174.28 137.635L1174.57 138.594C1178.39 137.462 1182.19 136.312 1185.97 135.144L1185.68 134.189L1185.38 133.233C1181.61 134.398 1177.81 135.547 1174 136.677L1174.28 137.635ZM1191.34 132.423L1191.64 133.377C1195.44 132.179 1199.22 130.963 1202.98 129.732L1202.67 128.782L1202.36 127.832C1198.61 129.06 1194.83 130.273 1191.04 131.469L1191.34 132.423ZM1208.3 126.918L1208.62 127.867C1212.4 126.604 1216.16 125.325 1219.89 124.032L1219.56 123.087L1219.24 122.142C1215.51 123.433 1211.76 124.709 1207.99 125.97L1208.3 126.918ZM1225.17 121.127L1225.5 122.07C1229.26 120.744 1233 119.403 1236.7 118.049L1236.36 117.109L1236.02 116.17C1232.32 117.522 1228.59 118.86 1224.84 120.184L1225.17 121.127ZM1241.94 115.054L1242.28 115.991C1246.02 114.602 1249.73 113.199 1253.41 111.785L1253.05 110.851L1252.69 109.918C1249.02 111.33 1245.32 112.73 1241.59 114.117L1241.94 115.054ZM1258.6 108.702L1258.96 109.633C1262.68 108.181 1266.36 106.717 1270.01 105.243L1269.64 104.316L1269.26 103.388C1265.62 104.86 1261.94 106.321 1258.23 107.77L1258.6 108.702ZM1275.15 102.073L1275.53 102.998C1279.22 101.483 1282.88 99.9576 1286.51 98.424L1286.12 97.5031L1285.73 96.5822C1282.11 98.1129 1278.46 99.6353 1274.77 101.148L1275.15 102.073ZM1291.59 95.1682L1291.98 96.0868C1295.66 94.5077 1299.29 92.9205 1302.88 91.3269L1302.48 90.4128L1302.07 89.4987C1298.49 91.0892 1294.86 92.6733 1291.19 94.2495L1291.59 95.1682ZM1307.91 87.9867L1308.32 88.8985C1311.97 87.2543 1315.58 85.604 1319.14 83.9495L1318.72 83.0425L1318.3 82.1355C1314.74 83.7868 1311.14 85.4338 1307.5 87.0749L1307.91 87.9867ZM1324.1 80.5266L1324.52 81.4311C1328.15 79.7197 1331.73 78.0047 1335.26 76.2878L1334.83 75.3885L1334.39 74.4891C1330.87 76.2025 1327.29 77.9141 1323.67 79.6221L1324.1 80.5266ZM1340.14 72.7843L1340.58 73.681C1344.19 71.8997 1347.75 70.1174 1351.24 68.3363L1350.79 67.4452L1350.34 66.5541C1346.85 68.3315 1343.3 70.11 1339.7 71.8877L1340.14 72.7843ZM1356.03 64.7555L1356.49 65.6437C1360.08 63.7888 1363.6 61.9363 1367.06 60.0884L1366.59 59.2064L1366.12 58.3243C1362.66 60.168 1359.15 62.0164 1355.57 63.8673L1356.03 64.7555ZM1371.8 56.3986L1372.28 57.2775C1375.82 55.3567 1379.28 53.4423 1382.68 51.5369L1382.19 50.6649L1381.7 49.793C1378.31 51.6937 1374.85 53.6035 1371.32 55.5198L1371.8 56.3986ZM1387.41 47.7063L1387.91 48.5746C1391.42 46.5693 1394.84 44.5756 1398.18 42.5966L1397.67 41.7363L1397.16 40.876C1393.83 42.8495 1390.41 44.8379 1386.91 46.8381L1387.41 47.7063ZM1402.78 38.6818L1403.3 39.5379C1406.78 37.4348 1410.16 35.3506 1413.44 33.289L1412.91 32.4425L1412.37 31.5959C1409.11 33.6509 1405.73 35.7288 1402.26 37.8258L1402.78 38.6818ZM1417.88 29.2799L1418.42 30.1212C1421.87 27.9092 1425.18 25.7262 1428.37 23.5771L1427.82 22.7478L1427.26 21.9184C1424.08 24.059 1420.77 26.2341 1417.34 28.4385L1417.88 29.2799ZM1432.76 19.3716L1433.33 20.194C1436.73 17.8468 1439.96 15.5446 1443.02 13.2942L1442.43 12.4882L1441.84 11.6821C1438.79 13.9207 1435.57 16.212 1432.19 18.5492L1432.76 19.3716ZM1447.21 8.9157L1447.82 9.71165C1449.42 8.49639 1450.96 7.29807 1452.45 6.11785L1451.83 5.3335L1451.21 4.54914C1449.73 5.72117 1448.2 6.91176 1446.61 8.11974L1447.21 8.9157Z" fill="white"/>
</svg>
