<svg width="253" height="43" viewBox="0 0 253 43" fill="none" xmlns="http://www.w3.org/2000/svg">
<g clip-path="url(#clip0_137_69)">
<path d="M36.1429 25.8002C36.1429 19.4673 30.8948 14.3335 24.4209 14.3335H14.6526V25.8002H24.4209V40.1335H36.1429V25.8002Z" fill="#FF4D00"/>
<path d="M8.53972e-08 26.7554C8.54028e-07 34.1437 6.12281 40.1331 13.6757 40.1331H21.4903V28.6665H13.6757C12.5967 28.6665 11.722 27.8109 11.722 26.7554V25.7998H0L8.53972e-08 26.7554Z" fill="#FF4D00"/>
<path d="M24.4208 0C38.9871 0 50.7954 11.551 50.7954 25.8V40.1333H39.0734V25.8C39.0734 17.8839 32.5132 11.4667 24.4208 11.4667H13.6757C12.5967 11.4667 11.722 12.3223 11.722 13.3778V14.3333H0V13.3778C7.68632e-07 5.98943 6.12281 -3.02855e-08 13.6757 0H24.4208Z" fill="#FF4D00"/>
<path d="M148.645 11.0056C147.88 11.0056 147.239 10.7528 146.72 10.2473C146.203 9.74176 145.944 9.11581 145.944 8.36951C145.944 7.62321 146.203 6.99728 146.72 6.49174C147.239 5.98618 147.88 5.7334 148.645 5.7334C149.384 5.7334 150.013 5.98618 150.531 6.49174C151.049 6.99728 151.308 7.62321 151.308 8.36951C151.308 9.11581 151.049 9.74176 150.531 10.2473C150.013 10.7528 149.384 11.0056 148.645 11.0056Z" fill="white"/>
<path d="M150.716 13.6416V33.5388H146.499V13.6416H150.716Z" fill="white"/>
<path fill-rule="evenodd" clip-rule="evenodd" d="M162.098 14.2557C160.864 14.8816 159.89 15.652 159.175 16.5668V13.6419H154.958V43.0002H159.175V30.6502C159.94 31.5649 160.926 32.3353 162.135 32.9613C163.343 33.5631 164.723 33.8641 166.278 33.8641C168.053 33.8641 169.668 33.4308 171.124 32.5641C172.604 31.6733 173.762 30.4455 174.601 28.8807C175.439 27.2918 175.858 25.4983 175.858 23.5002C175.858 21.502 175.439 19.7326 174.601 18.1919C173.762 16.6511 172.604 15.4594 171.124 14.6168C169.668 13.7501 168.053 13.3169 166.278 13.3169C164.723 13.3169 163.33 13.6298 162.098 14.2557ZM170.679 19.9613C171.271 20.9483 171.567 22.128 171.567 23.5002C171.567 24.8724 171.271 26.0761 170.679 27.1113C170.113 28.1464 169.348 28.9409 168.387 29.4946C167.449 30.0242 166.438 30.2891 165.353 30.2891C164.293 30.2891 163.282 30.0242 162.319 29.4946C161.383 28.965 160.618 28.1946 160.026 27.1835C159.458 26.1483 159.175 24.9447 159.175 23.5724C159.175 22.2002 159.458 21.0085 160.026 19.9974C160.618 18.9863 161.383 18.2159 162.319 17.6863C163.282 17.1567 164.293 16.8918 165.353 16.8918C166.438 16.8918 167.449 17.1567 168.387 17.6863C169.348 18.1919 170.113 18.9502 170.679 19.9613Z" fill="white"/>
<path d="M186.133 33.8641C184.53 33.8641 183.087 33.5872 181.804 33.0335C180.547 32.4557 179.548 31.6853 178.808 30.7224C178.068 29.7353 177.673 28.64 177.625 27.4363H181.99C182.063 28.2789 182.471 28.9891 183.21 29.5669C183.975 30.1205 184.924 30.3974 186.058 30.3974C187.242 30.3974 188.155 30.1807 188.797 29.7474C189.462 29.29 189.795 28.7122 189.795 28.0141C189.795 27.2678 189.425 26.7141 188.685 26.353C187.97 25.9919 186.823 25.5946 185.245 25.1613C183.716 24.752 182.471 24.3548 181.508 23.9696C180.547 23.5844 179.708 22.9947 178.993 22.2002C178.302 21.4058 177.958 20.3585 177.958 19.0585C177.958 17.9992 178.278 17.0363 178.919 16.1696C179.561 15.2788 180.473 14.5807 181.657 14.0752C182.865 13.5696 184.246 13.3169 185.8 13.3169C188.118 13.3169 189.979 13.8946 191.385 15.0502C192.816 16.1817 193.58 17.7344 193.679 19.7085H189.462C189.388 18.8177 189.018 18.1076 188.352 17.578C187.686 17.0483 186.786 16.7836 185.652 16.7836C184.542 16.7836 183.692 16.9881 183.1 17.3974C182.508 17.8067 182.212 18.3484 182.212 19.0224C182.212 19.552 182.409 19.9974 182.804 20.3585C183.198 20.7196 183.679 21.0085 184.246 21.2252C184.813 21.4178 185.652 21.6706 186.762 21.9835C188.242 22.3687 189.45 22.7659 190.387 23.1752C191.349 23.5604 192.174 24.1382 192.865 24.9085C193.556 25.6789 193.913 26.702 193.938 27.978C193.938 29.1095 193.617 30.1205 192.976 31.0113C192.335 31.9021 191.422 32.6002 190.238 33.1057C189.08 33.6113 187.711 33.8641 186.133 33.8641Z" fill="white"/>
<path d="M248.893 14.2918C247.636 13.6419 246.206 13.3169 244.603 13.3169C243.099 13.3169 241.692 13.678 240.385 14.4002C239.078 15.0983 238.117 16.0492 237.5 17.2529C236.81 15.9771 235.823 15.002 234.541 14.328C233.258 13.6539 231.804 13.3169 230.175 13.3169C228.967 13.3169 227.833 13.5456 226.772 14.003C225.712 14.4604 224.837 15.0983 224.146 15.9169V13.6419H219.928V33.539H224.146V22.4168C224.146 20.6354 224.602 19.2752 225.515 18.3363C226.452 17.3733 227.71 16.8918 229.288 16.8918C230.866 16.8918 232.111 17.3733 233.024 18.3363C233.936 19.2752 234.393 20.6354 234.393 22.4168V33.539H238.573V22.4168C238.573 20.6354 239.029 19.2752 239.942 18.3363C240.878 17.3733 242.137 16.8918 243.715 16.8918C245.293 16.8918 246.538 17.3733 247.452 18.3363C248.364 19.2752 248.82 20.6354 248.82 22.4168V33.539H253V21.803C253 19.9974 252.63 18.4566 251.89 17.1808C251.175 15.9048 250.176 14.9418 248.893 14.2918Z" fill="white"/>
<path d="M215.659 33.5388V13.6416H211.442V24.7277C211.442 26.5091 210.974 27.8814 210.037 28.8443C209.123 29.7832 207.879 30.2527 206.3 30.2527C204.722 30.2527 203.476 29.7832 202.564 28.8443C201.652 27.8814 201.195 26.5091 201.195 24.7277V13.6416H197.015V25.3415C197.015 27.1471 197.373 28.6879 198.088 29.9638C198.828 31.2397 199.827 32.2027 201.084 32.8527C202.367 33.5026 203.81 33.8277 205.412 33.8277C206.621 33.8277 207.755 33.599 208.816 33.1415C209.901 32.6601 210.776 32.0101 211.442 31.1915V33.5388H215.659Z" fill="white"/>
<path fill-rule="evenodd" clip-rule="evenodd" d="M127.829 32.6002C129.383 33.4428 131.121 33.8641 133.045 33.8641C134.994 33.8641 136.769 33.4428 138.372 32.6002C140 31.7335 141.281 30.5178 142.219 28.9529C143.156 27.3881 143.625 25.5946 143.625 23.5724C143.625 21.5502 143.169 19.7567 142.256 18.1919C141.344 16.627 140.099 15.4233 138.52 14.5807C136.941 13.7381 135.178 13.3169 133.229 13.3169C131.282 13.3169 129.518 13.7381 127.94 14.5807C126.361 15.4233 125.116 16.627 124.204 18.1919C123.291 19.7567 122.835 21.5502 122.835 23.5724C122.835 25.6187 123.278 27.4242 124.166 28.9891C125.054 30.5298 126.275 31.7335 127.829 32.6002ZM136.078 29.5308C135.141 30.0363 134.13 30.2891 133.045 30.2891C131.343 30.2891 129.925 29.7113 128.791 28.5557C127.681 27.3761 127.126 25.715 127.126 23.5724C127.126 22.128 127.398 20.9122 127.94 19.9251C128.482 18.9141 129.21 18.1557 130.122 17.6501C131.06 17.1447 132.071 16.8918 133.156 16.8918C134.241 16.8918 135.252 17.1447 136.189 17.6501C137.126 18.1557 137.878 18.9141 138.446 19.9251C139.013 20.9122 139.297 22.128 139.297 23.5724C139.297 25.0168 139.001 26.2446 138.409 27.2558C137.817 28.2668 137.04 29.0252 136.078 29.5308Z" fill="white"/>
<path fill-rule="evenodd" clip-rule="evenodd" d="M105.619 32.6462C105.591 32.631 105.562 32.6157 105.534 32.6002C103.98 31.7335 102.759 30.5298 101.871 28.9891C100.984 27.4242 100.54 25.6187 100.54 23.5724C100.54 21.5502 100.996 19.7567 101.908 18.1919C102.82 16.627 104.066 15.4233 105.644 14.5807C107.223 13.7381 108.986 13.3169 110.935 13.3169C112.883 13.3169 114.646 13.7381 116.225 14.5807C117.803 15.4233 119.049 16.627 119.961 18.1919C120.873 19.7567 121.33 21.5502 121.33 23.5724C121.33 25.5946 120.861 27.3881 119.924 28.9529C118.987 30.5178 117.704 31.7335 116.076 32.6002C114.698 33.3248 113.192 33.7378 111.558 33.8393C113.56 34.7335 116.606 35.4554 118.315 35.8607C119.047 36.0342 119.534 36.1497 119.591 36.1959L119.594 36.1964V40.3159H104.229V36.1964H113.083C110.83 35.6999 107.772 34.0699 105.619 32.6462ZM110.749 30.2891C111.835 30.2891 112.846 30.0362 113.783 29.5308C114.745 29.0252 115.521 28.2668 116.113 27.2558C116.705 26.2446 117.001 25.0168 117.001 23.5724C117.001 22.128 116.718 20.9122 116.15 19.9251C115.584 18.9141 114.831 18.1557 113.894 17.6501C112.957 17.1447 111.946 16.8918 110.861 16.8918C109.776 16.8918 108.764 17.1447 107.827 17.6501C106.914 18.1557 106.188 18.9141 105.644 19.9251C105.102 20.9122 104.831 22.128 104.831 23.5724C104.831 25.715 105.386 27.3761 106.495 28.5557C107.63 29.7113 109.048 30.2891 110.749 30.2891Z" fill="white"/>
<path fill-rule="evenodd" clip-rule="evenodd" d="M83.2386 32.6002C84.7922 33.4428 86.5309 33.8641 88.4545 33.8641C90.4028 33.8641 92.1784 33.4428 93.7814 32.6002C95.4091 31.7335 96.6915 30.5178 97.6286 28.9529C98.5654 27.3881 99.0343 25.5946 99.0343 23.5724C99.0343 21.5502 98.5781 19.7567 97.6655 18.1919C96.7531 16.627 95.5077 15.4233 93.9294 14.5807C92.351 13.7381 90.5877 13.3169 88.6394 13.3169C86.6912 13.3169 84.9278 13.7381 83.3496 14.5807C81.7712 15.4233 80.5257 16.627 79.6133 18.1919C78.7008 19.7567 78.2446 21.5502 78.2446 23.5724C78.2446 25.6187 78.6885 27.4242 79.5763 28.9891C80.4641 30.5298 81.6848 31.7335 83.2386 32.6002ZM91.4879 29.5308C90.5507 30.0363 89.5396 30.2891 88.4545 30.2891C86.7528 30.2891 85.3348 29.7113 84.2004 28.5557C83.0906 27.3761 82.5357 25.715 82.5357 23.5724C82.5357 22.128 82.8069 20.9122 83.3496 19.9251C83.8921 18.9141 84.6196 18.1557 85.5321 17.6501C86.4693 17.1447 87.4804 16.8918 88.5655 16.8918C89.6505 16.8918 90.6617 17.1447 91.5988 17.6501C92.536 18.1557 93.2882 18.9141 93.8554 19.9251C94.4226 20.9122 94.7062 22.128 94.7062 23.5724C94.7062 25.0168 94.4103 26.2446 93.8184 27.2558C93.2265 28.2668 92.4496 29.0252 91.4879 29.5308Z" fill="white"/>
<path d="M68.688 30.2164H77.3813V33.5386H64.4709V8.44141H68.688V30.2164Z" fill="white"/>
</g>
<defs>
<clipPath id="clip0_137_69">
<rect width="253" height="43" fill="white"/>
</clipPath>
</defs>
</svg>
