<svg width="257" height="40" viewBox="0 0 257 40" fill="none" xmlns="http://www.w3.org/2000/svg">
<path fill-rule="evenodd" clip-rule="evenodd" d="M23.5294 0C23.9188 0 24.3059 0.00933158 24.6906 0.0280324C24.6983 0.0284056 24.7047 0.0222832 24.7047 0.0145966C24.7047 0.00716965 24.7108 0.0011489 24.7182 0.0011489H46.227C46.6865 0.00137965 47.0588 0.373466 47.0588 0.83295C47.0588 1.05356 46.9712 1.26515 46.8153 1.42119L41.1753 7.05882H53.203C53.998 7.05882 54.7248 7.52694 55.0019 8.27203C55.9513 10.825 56.4706 13.5871 56.4706 16.4706C56.4706 29.4655 45.9361 40 32.9412 40C32.552 40 32.1651 39.9896 31.7806 39.9708C31.7726 39.9705 31.7659 39.9768 31.7659 39.9848C31.7659 39.9926 31.7596 39.9989 31.7518 39.9989H10.2436C9.78414 39.9986 9.41177 39.6265 9.41177 39.1671C9.41179 38.9464 9.49938 38.7348 9.65533 38.5788L15.293 32.9412H3.26757C2.47264 32.9412 1.74575 32.4731 1.46868 31.728C0.519328 29.175 0 26.4129 0 23.5294C0 10.5345 10.5345 0 23.5294 0ZM31.5809 16.6556C29.6389 14.383 26.7531 12.9412 23.5294 12.9412C17.6817 12.9412 12.9412 17.6817 12.9412 23.5294C12.9412 24.7672 13.1552 25.9547 13.5455 27.0588H21.1753L24.8897 23.3444C26.8317 25.617 29.7175 27.0588 32.9412 27.0588C38.7889 27.0588 43.5294 22.3183 43.5294 16.4706C43.5294 15.2328 43.3154 14.0453 42.9251 12.9412H35.2953L31.5809 16.6556Z" fill="#3754FA"/>
<path d="M248.435 28.2046V16.6379C248.435 16.3046 248.132 16.0045 247.795 16.0045H247.358C247.089 16.0045 246.854 16.1713 246.753 16.4046L242.683 25.938C242.112 27.3379 240.732 28.2046 239.218 28.2046C237.705 28.2046 236.36 27.3379 235.788 25.938L231.684 16.4046C231.617 16.1713 231.381 16.0045 231.113 16.0045H230.676C230.339 16.0045 230.036 16.3046 230.036 16.6379V28.2046H226.235V16.6379C226.235 14.2046 228.22 12.2046 230.676 12.2046H231.113C232.895 12.2046 234.509 13.2713 235.216 14.9379L239.218 24.338L243.221 14.9379C243.927 13.2713 245.542 12.2046 247.358 12.2046H247.795C250.251 12.2046 252.235 14.2046 252.235 16.6379V28.2046H248.435Z" fill="white"/>
<path d="M209.894 28.2046C206.212 28.2046 203.235 25.1046 203.235 21.2713V12.2046H206.853V21.2713C206.853 23.0046 208.229 24.4379 209.894 24.4379H217.577C219.241 24.4379 220.618 23.0046 220.618 21.2713V12.2046H224.235V21.2713C224.235 25.1046 221.258 28.2046 217.577 28.2046H209.894Z" fill="white"/>
<path d="M196.198 24.4379C196.841 24.4379 197.382 23.9046 197.382 23.2713C197.382 22.6379 196.874 22.1379 196.265 22.1046H187.239C184.467 22.1046 182.235 19.9046 182.235 17.1713C182.235 14.4379 184.467 12.2046 187.239 12.2046H201.235V16.0045H187.239C186.597 16.0045 186.056 16.5379 186.056 17.1713C186.056 17.8046 186.597 18.3379 187.239 18.3379H196.333C199.038 18.4046 201.235 20.5713 201.235 23.2713C201.235 26.0047 198.97 28.2046 196.198 28.2046H182.235V24.4379H196.198Z" fill="white"/>
<path d="M162.235 28.2046V16.6379C162.235 14.2046 164.126 12.2046 166.465 12.2046H175.789C178.8 12.2046 181.235 14.7712 181.235 17.9046C181.235 21.0379 178.8 23.6046 175.789 23.6046H165.856V28.2046H162.235ZM165.856 16.6379V19.8046H175.789C176.782 19.8046 177.615 18.9379 177.615 17.9046C177.615 16.8712 176.782 16.0045 175.789 16.0045H166.465C166.144 16.0045 165.856 16.3046 165.856 16.6379Z" fill="white"/>
<path d="M155.235 12.2046H159.235V28.2046H155.235V12.2046Z" fill="white"/>
<path d="M145.552 24.4379C147.794 24.4379 149.618 22.5379 149.618 20.2046C149.618 17.9046 147.794 16.0045 145.552 16.0045H139.918C137.677 16.0045 135.853 17.9046 135.853 20.2046C135.853 22.5379 137.677 24.4379 139.918 24.4379H145.552ZM145.552 12.2046C149.81 12.2046 153.235 15.8045 153.235 20.2046C153.235 24.6379 149.81 28.2046 145.552 28.2046H139.918C135.66 28.2046 132.235 24.6379 132.235 20.2046C132.235 15.8045 135.66 12.2046 139.918 12.2046H145.552Z" fill="white"/>
<path d="M118.061 28.2046C113.725 28.2046 110.235 24.6379 110.235 20.2046C110.235 15.8045 113.725 12.2046 118.061 12.2046H129.377V16.0045H118.061C115.779 16.0045 113.921 17.9046 113.921 20.2046C113.921 22.5379 115.779 24.4379 118.061 24.4379H126.377C126.997 24.4379 127.518 23.9046 127.518 23.2713C127.518 22.6379 126.997 22.1046 126.377 22.1046H117.442V18.3379H126.377C129.051 18.3379 131.235 20.5379 131.235 23.2713C131.235 26.0047 129.051 28.2046 126.377 28.2046H118.061Z" fill="white"/>
<path d="M100.553 24.4379C102.794 24.4379 104.618 22.5379 104.618 20.2046C104.618 17.9046 102.794 16.0045 100.553 16.0045H94.9186C92.6775 16.0045 90.8528 17.9046 90.8528 20.2046C90.8528 22.5379 92.6775 24.4379 94.9186 24.4379H100.553ZM100.553 12.2046C104.811 12.2046 108.235 15.8045 108.235 20.2046C108.235 24.6379 104.811 28.2046 100.553 28.2046H94.9186C90.6607 28.2046 87.2354 24.6379 87.2354 20.2046C87.2354 15.8045 90.6607 12.2046 94.9186 12.2046H100.553Z" fill="white"/>
<path d="M71.9002 23.8319C71.9002 24.1632 72.1921 24.4613 72.5164 24.4613H86.2354V28.2046H72.5164C70.1488 28.2046 68.2354 26.2502 68.2354 23.8319V12.2046H71.9002V23.8319Z" fill="white"/>
<path d="M256.235 12.2046C256.235 13.3092 255.339 14.2046 254.235 14.2046C253.13 14.2046 252.235 13.3092 252.235 12.2046C252.235 11.1 253.13 10.2046 254.235 10.2046C255.339 10.2046 256.235 11.1 256.235 12.2046Z" fill="white"/>
</svg>
