<svg width="211" height="60" viewBox="0 0 211 60" fill="none" xmlns="http://www.w3.org/2000/svg">
<path d="M70.4781 38.1817V14.8472H66.6335V38.1817H70.4781Z" fill="white"/>
<path d="M72.8311 30.4036C72.8311 35.1708 76.0454 38.5581 80.9299 38.5581C85.8144 38.5581 89.0287 35.1708 89.0287 30.4036C89.0287 25.6363 85.8144 22.249 80.9299 22.249C76.0454 22.249 72.8311 25.6363 72.8311 30.4036ZM76.7072 30.4036C76.7072 27.6122 78.3773 25.6677 80.9299 25.6677C83.4824 25.6677 85.1526 27.6122 85.1526 30.4036C85.1526 33.1636 83.4824 35.1395 80.9299 35.1395C78.3773 35.1395 76.7072 33.1636 76.7072 30.4036Z" fill="white"/>
<path d="M90.322 30.0902C90.322 34.6065 93.2527 37.8683 97.633 37.8683C99.902 37.8683 101.856 36.9588 102.833 35.4533V38.0879C102.833 40.6283 101.226 42.322 98.5469 42.322C96.1519 42.322 94.5132 41.1615 94.2927 39.1229H90.4166C90.9208 43.1688 94.0405 45.8033 98.3263 45.8033C103.368 45.8033 106.583 42.5102 106.583 37.3979V22.6883H103.179L102.959 24.7897C102.013 23.1588 100.06 22.1865 97.7591 22.1865C93.3157 22.1865 90.322 25.5424 90.322 30.0902ZM94.2296 29.9961C94.2296 27.4242 95.8683 25.5424 98.2948 25.5424C100.942 25.5424 102.707 27.4556 102.707 29.9961C102.707 32.5679 100.942 34.5438 98.2948 34.5438C95.8998 34.5438 94.2296 32.5992 94.2296 29.9961Z" fill="white"/>
<path d="M108.485 30.4036C108.485 35.1708 111.7 38.5581 116.584 38.5581C121.469 38.5581 124.683 35.1708 124.683 30.4036C124.683 25.6363 121.469 22.249 116.584 22.249C111.7 22.249 108.485 25.6363 108.485 30.4036ZM112.361 30.4036C112.361 27.6122 114.032 25.6677 116.584 25.6677C119.137 25.6677 120.807 27.6122 120.807 30.4036C120.807 33.1636 119.137 35.1395 116.584 35.1395C114.032 35.1395 112.361 33.1636 112.361 30.4036Z" fill="white"/>
<path d="M128.844 19.5204C130.104 19.5204 131.144 18.5167 131.144 17.2308C131.144 15.9763 130.104 14.9727 128.844 14.9727C127.552 14.9727 126.575 15.9763 126.575 17.2308C126.575 18.5167 127.552 19.5204 128.844 19.5204ZM126.921 38.1817H130.766V22.6881H126.921V38.1817Z" fill="white"/>
<path d="M134.134 45.3641H137.884V36.0491C138.861 37.6487 140.973 38.5896 143.305 38.5896C147.905 38.5896 150.647 35.0769 150.584 30.2469C150.49 25.3855 147.685 22.2178 143.273 22.2178C140.91 22.2178 138.767 23.2528 137.821 25.0405L137.601 22.6882H134.134V45.3641ZM138.042 30.435C138.042 27.6437 139.744 25.6991 142.422 25.6991C145.101 25.6991 146.708 27.675 146.708 30.435C146.708 33.195 145.101 35.1396 142.422 35.1396C139.744 35.1396 138.042 33.2264 138.042 30.435Z" fill="white"/>
<path d="M151.56 33.54C151.686 36.6137 154.081 38.5896 157.799 38.5896C161.455 38.5896 163.944 36.645 163.944 33.6341C163.944 31.4073 162.558 29.9019 160.005 29.2746L157.263 28.616C156.097 28.3023 155.31 27.8946 155.31 26.891C155.31 25.8246 156.16 25.0719 157.547 25.0719C158.997 25.0719 159.942 25.8873 159.942 27.236H163.44C163.314 24.1623 161.013 22.2178 157.642 22.2178C154.301 22.2178 151.812 24.1623 151.812 27.1105C151.812 29.1178 152.978 30.78 155.971 31.5641L158.682 32.2541C159.69 32.5364 160.32 33.0069 160.32 33.885C160.32 35.1082 159.154 35.6728 157.736 35.6728C156.034 35.6728 155.058 34.8887 155.058 33.54H151.56Z" fill="white"/>
<path d="M171.92 38.5894C174.031 38.5894 176.048 37.6171 176.962 36.1744L177.214 38.1816H180.806V22.688H176.962V30.8112C176.962 33.6025 175.89 35.1707 173.369 35.1707C171.415 35.1707 170.06 34.2298 170.06 31.0307V22.688H166.216V32.3794C166.216 36.0803 168.233 38.5894 171.92 38.5894Z" fill="white"/>
<path d="M188.044 38.1819V29.2746C188.044 26.7655 189.525 25.5737 191.352 25.5737C193.18 25.5737 194.378 26.7341 194.378 28.9296V38.1819H198.128V29.306C198.128 26.7655 199.577 25.5737 201.405 25.5737C203.264 25.5737 204.462 26.7341 204.462 28.9296V38.1819H208.18V28.0514C208.18 24.476 206.195 22.2178 202.413 22.2178C200.05 22.2178 198.191 23.3469 197.434 25.166C196.584 23.3469 194.882 22.2178 192.298 22.2178C190.47 22.2178 188.831 23.0646 187.918 24.4446L187.728 22.6882H184.199V38.1819H188.044Z" fill="white"/>
<path d="M178.827 52.0281C179.399 52.0281 179.897 51.5481 179.897 50.9781C179.897 50.3931 179.399 49.9131 178.827 49.9131C178.239 49.9131 177.741 50.3931 177.741 50.9781C177.741 51.5481 178.239 52.0281 178.827 52.0281Z" fill="#8E98A1"/>
<path d="M181.002 48.158C181.002 50.453 182.419 51.998 184.484 51.998C186.262 51.998 187.619 50.933 187.905 49.343H186.549C186.293 50.228 185.509 50.753 184.574 50.753C183.248 50.753 182.404 49.733 182.404 48.143C182.404 46.523 183.293 45.5329 184.605 45.5329C185.509 45.5329 186.293 46.013 186.534 46.958H187.89C187.649 45.353 186.383 44.2729 184.62 44.2729C182.479 44.2729 181.002 45.848 181.002 48.158Z" fill="#8E98A1"/>
<path d="M188.439 48.1431C188.439 50.3481 189.947 51.9981 192.207 51.9981C194.468 51.9981 195.975 50.3481 195.975 48.1431C195.975 45.9381 194.468 44.2881 192.207 44.2881C189.947 44.2881 188.439 45.9381 188.439 48.1431ZM189.871 48.1431C189.871 46.6431 190.791 45.5481 192.207 45.5481C193.624 45.5481 194.543 46.6431 194.543 48.1431C194.543 49.6431 193.624 50.7381 192.207 50.7381C190.791 50.7381 189.871 49.6431 189.871 48.1431Z" fill="#8E98A1"/>
<path d="M198.602 51.8331V47.4231C198.602 46.2681 199.325 45.5181 200.38 45.5181C201.39 45.5181 202.023 46.1631 202.023 47.3181V51.8331H203.41V47.4381C203.41 46.2681 204.118 45.5181 205.188 45.5181C206.183 45.5181 206.816 46.1631 206.816 47.3181V51.8331H208.187V47.0181C208.187 45.3231 207.192 44.2881 205.504 44.2881C204.359 44.2881 203.47 44.8431 203.108 45.7431C202.731 44.8431 201.902 44.2881 200.697 44.2881C199.777 44.2881 198.963 44.7081 198.557 45.4281L198.451 44.4981H197.185V51.8331H198.602Z" fill="#8E98A1"/>
<path fill-rule="evenodd" clip-rule="evenodd" d="M2.74023 30.5934L2.74288 30.3201L2.74833 30.0467L2.75661 29.7733L2.76769 29.4999L2.78161 29.2265L2.79834 28.9531L2.81791 28.6798L2.84028 28.4065L2.86549 28.1334L2.89352 27.8602L2.92438 27.5875L2.95804 27.3148L2.99454 27.0423L3.03387 26.7701L3.076 26.4982L3.12095 26.2267L3.16873 25.9554L3.2193 25.6846L3.27269 25.414L3.3289 25.1439L3.38791 24.8741L3.4497 24.605L3.51432 24.3363L3.5817 24.0681L3.65189 23.8006L3.72485 23.5334L3.80061 23.267L3.87913 23.0012L3.96042 22.7361L4.04446 22.4717L4.13127 22.208L4.22084 21.9449L4.31314 21.6827L4.40818 21.4213L4.50595 21.1607L4.60643 20.9009L4.70965 20.6421L4.81556 20.3841L4.92417 20.1272L5.03546 19.8711L5.14944 19.616L5.2661 19.3619L5.38541 19.109L5.50738 18.857L5.63199 18.6061L5.75923 18.3564L5.88909 18.1078L6.02157 17.8603L6.15664 17.6141L6.2943 17.3691L6.43454 17.1253L6.57734 16.8828L6.72269 16.6416L6.87059 16.4017L7.02101 16.1632L7.17395 15.9261L7.32939 15.6905L7.48732 15.4561L7.64772 15.2233L7.81059 14.9919L7.9759 14.762L8.14363 14.5337L8.31379 14.3068L8.48634 14.0816L8.66129 13.858L8.8386 13.6359L9.01826 13.4156L9.20027 13.1969L9.3846 12.9799L9.57124 12.7645L9.76016 12.551L9.95135 12.3392L10.1448 12.1292L10.3405 11.921L10.5384 11.7146L10.7385 11.5101L10.9408 11.3074L11.1452 11.1067L11.3518 10.9079L11.5606 10.711L11.7714 10.516L11.9843 10.3231L12.1993 10.1322L12.4164 9.94324L12.6354 9.75635L12.8565 9.57155L13.0795 9.38884L13.3046 9.20822L13.5316 9.02974L13.7605 8.85339L13.9912 8.67923L14.224 8.50723L14.4585 8.33746L14.6949 8.16991L14.933 8.0046L15.1731 7.84155L15.4148 7.68076L15.6582 7.52229L15.9035 7.36613L16.1505 7.21231L16.3991 7.06084L16.6494 6.91172L16.9012 6.76501L17.1547 6.6207L17.4098 6.4788L17.6664 6.33934L17.9246 6.20232L18.1842 6.06778L18.4453 5.93571L18.708 5.80616L18.972 5.67911L19.2376 5.55458L19.5043 5.4326L19.7726 5.31319L20.0421 5.19634L20.313 5.08208L20.5851 4.97042L20.8584 4.86137L21.133 4.75494L21.4088 4.65117L21.6857 4.55003L21.9638 4.45157L22.2431 4.35578L22.5234 4.26267L22.8047 4.17227L23.0871 4.08458L23.3706 3.99961L23.655 3.91738L23.9403 3.8379L24.2266 3.76115L24.5138 3.68717L24.8018 3.61598L25.0906 3.54758L25.3804 3.48195L25.6709 3.41914L25.962 3.35912L26.254 3.30193L26.5467 3.24758L26.84 3.19605L27.134 3.14736L27.4286 3.10153L27.7237 3.05855L28.0194 3.01845L28.3156 2.98121L28.6124 2.94684L28.9096 2.91534L29.2072 2.88676L29.5052 2.86106L29.8036 2.83824L30.1023 2.81835L31.7086 2.72705L31.8003 10.4298L31.8528 10.4292L32.0746 10.4289L32.2964 10.4307L32.5182 10.4347L32.7403 10.441L32.9623 10.4493L33.1844 10.4599L33.4065 10.4726L33.6286 10.4875L33.8505 10.5045L34.0726 10.5238L34.2945 10.5452L34.5163 10.5688L34.7378 10.5946L34.9594 10.6226L35.1807 10.6528L35.4018 10.6851L35.6227 10.7196L35.8434 10.7563L36.0637 10.7951L36.2839 10.8361L36.5037 10.8793L36.723 10.9247L36.9422 10.9723L37.1609 11.022L37.3792 11.0738L37.5972 11.1279L37.8146 11.1841L38.0315 11.2424L38.248 11.3029L38.464 11.3655L38.6794 11.4303L38.8943 11.4972L39.1085 11.5663L39.3223 11.6374L39.5353 11.7107L39.7477 11.7862L39.9595 11.8637L40.1705 11.9433L40.3809 12.0251L40.5905 12.1089L40.7993 12.1948L41.0073 12.2829L41.2146 12.373L41.4211 12.4651L41.6266 12.5593L41.8313 12.6556L42.0351 12.754L42.2381 12.8543L42.44 12.9567L42.641 13.0612L42.8411 13.1676L43.0401 13.2761L43.2381 13.3865L43.4351 13.499L43.6311 13.6134L43.8259 13.7298L44.0196 13.8482L44.2123 13.9685L44.4037 14.0908L44.594 14.2149L44.7831 14.341L44.9711 14.4691L45.1577 14.5989L45.3432 14.7307L45.5273 14.8644L45.7101 14.9999L45.8918 15.1374L46.072 15.2766L46.2509 15.4177L46.4283 15.5605L46.6045 15.7052L46.7792 15.8518L46.9525 16L47.1245 16.15L47.2949 16.3018L47.4637 16.4553L47.6312 16.6106L47.7971 16.7676L47.9615 16.9262L48.1243 17.0866L48.2855 17.2486L48.4452 17.4123L48.6033 17.5776L48.7596 17.7445L48.9144 17.9131L49.0675 18.0832L49.2189 18.2549L49.3686 18.4282L49.5166 18.6031L49.6629 18.7794L49.8075 18.9573L49.9502 19.1366L50.0912 19.3175L50.2304 19.4998L50.3679 19.6836L50.5034 19.8688L50.6371 20.0555L50.7689 20.2435L50.8989 20.4328L51.027 20.6236L51.1532 20.8157L51.2775 21.0092L51.3997 21.2039L51.5201 21.3999L51.6385 21.5972L51.755 21.7957L51.8694 21.9955L51.9819 22.1965L52.0923 22.3987L52.2007 22.6021L52.307 22.8066L52.4113 23.0122L52.5135 23.219L52.6136 23.4269L52.7117 23.6358L52.8077 23.8458L52.9015 24.0569L52.9932 24.269L53.0826 24.4821L53.1701 24.6961L53.2553 24.9111L53.3383 25.127L53.4191 25.3439L53.4978 25.5616L53.5742 25.7803L53.6485 25.9997L53.7206 26.2201L53.7903 26.4411L53.8579 26.663L53.9231 26.8856L53.9861 27.109L54.0468 27.3332L54.1053 27.5581L54.1613 27.7835L54.2153 28.0097L54.2668 28.2365L54.316 28.4639L54.363 28.6918L54.4076 28.9205L54.4498 29.1495L54.4898 29.3792L54.5273 29.6092L54.5625 29.8398L54.5954 30.071L54.6258 30.3024L54.6539 30.5343L54.6797 30.7666L54.703 30.9992L54.7239 31.2321L54.7426 31.4654L54.7587 31.699L54.7724 31.9329L54.7838 32.1669L54.7928 32.4013L54.7993 32.6357L54.8035 32.8704L54.8052 33.1052L54.8045 33.3401L54.8013 33.5752L54.7957 33.8105L54.7878 34.0456L54.7774 34.2808L54.7646 34.516L54.7493 34.7512L54.7316 34.9865L54.7114 35.2216L54.6888 35.4566L54.6639 35.6916L54.6364 35.9263L54.6065 36.161L54.5743 36.3954L54.5395 36.6296L54.5024 36.8636L54.4628 37.0974L54.4207 37.3308L54.3763 37.564L54.3295 37.7969L54.2801 38.0294L54.2283 38.2615L54.1742 38.4933L54.1178 38.7246L54.0587 38.9555L53.9973 39.1858L53.9336 39.4157L53.8675 39.6451L53.7989 39.8739L53.728 40.1023L53.6545 40.3299L53.5789 40.5571L53.5008 40.7834L53.4202 41.0092L53.3375 41.2344L53.2523 41.4587L53.1647 41.6823L53.0748 41.9053L52.9826 42.1274L52.8881 42.3487L52.7912 42.5694L52.692 42.7889L52.5905 43.0078L52.4866 43.2257L52.3806 43.4426L52.2721 43.6588L52.1615 43.8738L52.0485 44.0881L51.9334 44.301L51.8158 44.5132L51.6962 44.7242L51.5743 44.9342L51.4501 45.1431L51.3238 45.3508L51.1953 45.5575L51.0644 45.7629L50.9315 45.9671L50.7966 46.1702L50.6593 46.372L50.5199 46.5726L50.3784 46.772L50.2348 46.97L50.089 47.1667L49.9412 47.3621L49.7913 47.5562L49.6394 47.7487L49.4854 47.9401L49.3293 48.1299L49.1712 48.3182L49.011 48.5051L48.8489 48.6906L48.6848 48.8746L48.5187 49.057L48.3508 49.238L48.1809 49.4173L48.0089 49.5951L47.8352 49.7711L47.6594 49.9457L47.4818 50.1186L47.3025 50.2899L47.1212 50.4595L46.9382 50.6274L46.7532 50.7936L46.5664 50.9579L46.378 51.1206L46.1877 51.2816L45.9958 51.4408L45.802 51.598L45.6067 51.7536L45.4095 51.9073L45.2107 52.0591L45.0102 52.2089L44.8082 52.357L44.6046 52.5032L44.3992 52.6473L44.1923 52.7897L43.9839 52.93L43.774 53.0683L43.5624 53.2046L43.3495 53.3391L43.1351 53.4714L42.9192 53.6017L42.7017 53.7299L42.4829 53.8562L42.2629 53.9803L42.0412 54.1022L41.8184 54.2222L41.5941 54.3399L41.3686 54.4555L41.1417 54.5691L40.9136 54.6804L40.6842 54.7895L40.4536 54.8965L40.2218 55.0012L39.9889 55.1038L39.7547 55.204L39.5195 55.3021L39.2831 55.3979L39.0457 55.4915L38.8071 55.5827L38.5675 55.6717L38.3269 55.7583L38.0852 55.8427L37.8427 55.9247L37.5992 56.0045L37.3546 56.0818L37.1093 56.1568L36.863 56.2295L36.616 56.2997L36.368 56.3676L36.1193 56.4332L35.8697 56.4962L35.6195 56.5569L35.3685 56.6152L35.1167 56.671L34.8643 56.7245L34.6112 56.7755L34.3575 56.824L34.1032 56.8701L33.8483 56.9136L33.5928 56.9548L33.3369 56.9935L33.0803 57.0296L32.8234 57.0633L32.5659 57.0946L32.3079 57.1232L32.0496 57.1494L31.791 57.1731L31.532 57.1942L31.2726 57.2129L31.013 57.229L30.7529 57.2426L30.4928 57.2537L30.2324 57.2621L29.9717 57.2681L29.711 57.2715L29.45 57.2725L29.1889 57.2709L28.9278 57.2666L28.6665 57.26L28.4052 57.2505L28.1439 57.2387L27.8827 57.2244L27.6215 57.2073L27.3602 57.1878L27.0992 57.1657L26.8382 57.141L26.5773 57.1139L26.3167 57.0842L26.0563 57.0519L25.796 57.017L25.536 56.9795L25.2763 56.9395L25.0169 56.897L24.7578 56.852L24.499 56.8042L24.2407 56.7541L23.9827 56.7014L23.7253 56.6461L23.4681 56.5882L23.2116 56.528L22.9555 56.4651L22.7 56.3996L22.445 56.3317L22.1907 56.2614L21.937 56.1884L21.6838 56.113L21.4314 56.035L21.1797 55.9546L20.9287 55.8716L20.6784 55.7861L20.4289 55.6982L20.1802 55.6079L19.9323 55.5151L19.6853 55.4197L19.4392 55.322L19.194 55.2217L18.9497 55.1191L18.7064 55.0141L18.464 54.9066L18.2226 54.7967L17.9822 54.6843L17.743 54.5696L17.5049 54.4525L17.2677 54.333L17.0318 54.2113L16.7971 54.0871L16.5633 53.9606L16.331 53.8318L16.0998 53.7006L15.8699 53.5671L15.6412 53.4313L15.4139 53.2933L15.1879 53.1528L14.9632 53.0103L14.74 52.8654L14.518 52.7184L14.2976 52.5689L14.0786 52.4174L13.861 52.2637L13.645 52.1077L13.4304 51.9497L13.2174 51.7893L13.006 51.6269L12.7962 51.4625L12.5879 51.2957L12.3813 51.127L12.1764 50.9561L11.9731 50.7832L11.7715 50.6083L11.5716 50.4311L11.3735 50.2521L11.1772 50.0711L10.9826 49.888L10.7898 49.7031L10.5989 49.516L10.4098 49.3271L10.2225 49.1364L10.0372 48.9436L9.85376 48.749L9.67226 48.5525L9.49271 48.3541L9.31513 48.1539L9.13954 47.9519L8.96595 47.7481L8.7944 47.5426L8.6249 47.3351L8.45746 47.1261L8.29211 46.9153L8.12886 46.7028L7.96773 46.4886L7.80874 46.2727L7.65192 46.0552L7.49726 45.8361L7.3448 45.6155L7.19455 45.3932L7.04654 45.1693L6.90077 44.944L6.75725 44.7171L6.61602 44.4887L6.47709 44.2589L6.34046 44.0275L6.20617 43.7949L6.07421 43.5607L5.94461 43.3252L5.8174 43.0882L5.69255 42.85L5.57013 42.6106L5.4501 42.3697L5.33253 42.1277L5.2174 41.8843L5.10472 41.6398L4.99452 41.3939L4.8868 41.1471L4.78159 40.8989L4.6789 40.6498L4.57872 40.3994L4.48108 40.148L4.38601 39.8956L4.29348 39.642L4.20353 39.3876L4.11616 39.1322L4.03139 38.8757L3.94924 38.6184L3.86969 38.3601L3.79278 38.101L3.71851 37.841L3.64688 37.5801L3.5779 37.3186L3.5116 37.0562L3.44798 36.793L3.38705 36.5291L3.3288 36.2645L3.27326 35.9992L3.22042 35.7333L3.1703 35.4669L3.12291 35.1997L3.07826 34.9321L3.03633 34.6638L2.99716 34.3951L2.96074 34.1257L2.92709 33.856L2.8962 33.5859L2.86807 33.3153L2.84272 33.0445L2.82015 32.7731L2.80037 32.5015L2.78338 32.2296L2.76919 31.9574L2.75779 31.685L2.74918 31.4124L2.74339 31.1395L2.74041 30.8665L2.74023 30.5934ZM29.2907 10.5911L29.2283 5.34086L29.1689 5.34656L28.8966 5.37541L28.6249 5.40688L28.3533 5.44103L28.0828 5.47771L27.8127 5.51706L27.5427 5.55905L27.2736 5.60361L27.0048 5.65084L26.7374 5.70051L26.4695 5.75297L26.2036 5.80779L25.9372 5.86538L25.6722 5.92541L25.4075 5.98811L25.1441 6.05321L24.8813 6.12092L24.6192 6.19116L24.3579 6.26394L24.0978 6.33916L23.8382 6.41697L23.5799 6.49719L23.3223 6.57996L23.0661 6.66503L22.8103 6.75278L22.5559 6.84287L22.3027 6.93536L22.0502 7.03036L21.799 7.12768L21.5492 7.22735L21.3001 7.32958L21.0523 7.43413L20.8057 7.54107L20.5604 7.65026L20.3164 7.76181L20.0737 7.87562L19.8319 7.99194L19.5919 8.11039L19.3531 8.23114L19.1156 8.35416L18.8795 8.47947L18.6451 8.60691L18.4116 8.73672L18.1797 8.86877L17.9498 9.00271L17.7205 9.13926L17.4935 9.27763L17.268 9.41816L17.0436 9.56098L16.8209 9.7059L16.5999 9.85292L16.381 10.0017L16.1628 10.1531L15.9469 10.3061L15.7326 10.4612L15.5198 10.6185L15.309 10.7776L15.1 10.9386L14.8923 11.1019L14.6869 11.2668L14.4831 11.4338L14.2811 11.6026L14.0809 11.7734L13.8828 11.9458L13.6862 12.1205L13.4918 12.2966L13.299 12.4748L13.1085 12.6545L12.9198 12.8362L12.7331 13.0195L12.5484 13.2046L12.3654 13.3916L12.1848 13.5799L12.0063 13.7698L11.8293 13.9619L11.6548 14.1553L11.4825 14.35L11.3119 14.5468L11.1437 14.7448L10.9775 14.9446L10.8135 15.1457L10.6516 15.3485L10.4919 15.5526L10.3345 15.7581L10.1791 15.9651L10.0259 16.1737L9.87516 16.3833L9.72643 16.5947L9.58007 16.8071L9.43598 17.021L9.29404 17.2361L9.15451 17.4526L9.01726 17.6701L8.88232 17.8889L8.74979 18.1089L8.61943 18.3302L8.49142 18.5527L8.36593 18.7761L8.24269 19.0007L8.1218 19.2265L8.00337 19.4533L7.88726 19.6811L7.77365 19.9098L7.66241 20.1396L7.55362 20.3703L7.44721 20.6021L7.34331 20.8346L7.24177 21.0682L7.14271 21.3026L7.04618 21.5377L6.95207 21.7738L6.86042 22.0106L6.77129 22.2482L6.68463 22.4865L6.60053 22.7255L6.51886 22.9653L6.43972 23.2057L6.36312 23.4468L6.28905 23.6883L6.21745 23.9308L6.14843 24.1735L6.08194 24.4169L6.01797 24.6607L5.95655 24.9052L5.89768 25.15L5.84137 25.3953L5.78761 25.6411L5.73641 25.8872L5.68777 26.1336L5.64168 26.3804L5.59816 26.6275L5.55721 26.875L5.51883 27.1226L5.48302 27.3706L5.44978 27.6187L5.4191 27.8671L5.391 28.1155L5.36547 28.3642L5.34252 28.613L5.32213 28.8617L5.30432 29.1107L5.28909 29.3597L5.27641 29.6086L5.26632 29.8576L5.25878 30.1064L5.25382 30.3553L5.25141 30.604L5.25157 30.8527L5.25429 31.1012L5.25956 31.3496L5.26738 31.5978L5.27776 31.8457L5.29069 32.0935L5.30615 32.3409L5.32415 32.5881L5.34469 32.8349L5.36776 33.0815L5.39334 33.3277L5.42145 33.5735L5.45208 33.8189L5.48521 34.0638L5.52084 34.3083L5.55899 34.5524L5.5996 34.7958L5.64272 35.0388L5.6883 35.2813L5.73635 35.5231L5.78687 35.7644L5.83984 36.005L5.89526 36.245L5.95312 36.4843L6.01341 36.7229L6.07613 36.9609L6.14124 37.1979L6.20879 37.4343L6.27872 37.67L6.35103 37.9048L6.42573 38.1388L6.50278 38.3718L6.58219 38.604L6.66396 38.8353L6.74806 39.0658L6.83446 39.2951L6.92323 39.5237L7.01424 39.7511L7.10756 39.9776L7.20319 40.2031L7.30105 40.4274L7.4012 40.6507L7.50357 40.873L7.60818 41.0941L7.715 41.314L7.82403 41.5327L7.93525 41.7504L8.04865 41.9668L8.16421 42.182L8.28193 42.3959L8.40178 42.6085L8.52374 42.8199L8.64782 43.03L8.77401 43.2386L8.90221 43.4461L9.03257 43.6521L9.16491 43.8566L9.29932 44.06L9.43574 44.2618L9.57414 44.4621L9.71452 44.661L9.85692 44.8585L10.0012 45.0545L10.1475 45.2489L10.2957 45.4417L10.4458 45.6331L10.5977 45.8227L10.7515 46.0109L10.9073 46.1976L11.0647 46.3825L11.2241 46.5658L11.3852 46.7474L11.5481 46.9274L11.7128 47.1056L11.8792 47.2822L12.0473 47.457L12.2171 47.6302L12.3887 47.8016L12.5619 47.9711L12.7368 48.139L12.9132 48.305L13.0913 48.4693L13.271 48.6317L13.4523 48.7922L13.635 48.9508L13.8194 49.1076L14.0053 49.2625L14.1925 49.4155L14.3814 49.5667L14.5716 49.7158L14.7633 49.863L14.9563 50.0084L15.1509 50.1517L15.3467 50.293L15.5438 50.4324L15.7422 50.5697L15.9421 50.7051L16.1431 50.8383L16.3456 50.9696L16.5491 51.0989L16.7539 51.226L16.96 51.3512L17.167 51.4742L17.3754 51.5951L17.5848 51.7139L17.7954 51.8306L18.0069 51.9452L18.2197 52.0577L18.4333 52.168L18.648 52.2763L18.8638 52.3822L19.0805 52.4861L19.2981 52.5879L19.5167 52.6874L19.736 52.7846L19.9565 52.8798L20.1776 52.9727L20.3997 53.0635L20.6225 53.152L20.8461 53.2382L21.0705 53.3223L21.2955 53.4041L21.5213 53.4836L21.7479 53.561L21.9751 53.6361L22.2029 53.7089L22.4312 53.7794L22.6604 53.8477L22.8899 53.9137L23.1201 53.9774L23.3508 54.0389L23.582 54.0981L23.8137 54.155L24.0456 54.2095L24.2783 54.2619L24.5112 54.3118L24.7444 54.3595L24.9781 54.4049L25.2121 54.448L25.4464 54.4888L25.681 54.5272L25.9158 54.5634L26.151 54.5972L26.3863 54.6287L26.6217 54.658L26.8574 54.6849L27.0932 54.7094L27.3291 54.7318L27.5652 54.7517L27.8013 54.7694L28.0374 54.7847L28.2736 54.7978L28.5096 54.8084L28.7457 54.8169L28.9818 54.823L29.2179 54.8267L29.4537 54.8282L29.6895 54.8274L29.9251 54.8242L30.1605 54.8189L30.3958 54.8111L30.6309 54.8012L30.8657 54.7889L31.1001 54.7743L31.3344 54.7576L31.5685 54.7385L31.8021 54.7171L32.0353 54.6933L32.2682 54.6674L32.5006 54.6393L32.7326 54.6089L32.9642 54.5762L33.1953 54.5413L33.4259 54.5042L33.6561 54.4648L33.8858 54.4232L34.1147 54.3794L34.3431 54.3335L34.571 54.2852L34.7981 54.2349L35.0246 54.1822L35.2505 54.1274L35.4757 54.0706L35.7001 54.0114L35.9237 53.9501L36.1467 53.8867L36.3688 53.8211L36.5903 53.7535L36.8107 53.6838L37.0305 53.6118L37.2493 53.5379L37.467 53.4618L37.6842 53.3836L37.9002 53.3034L38.1153 53.221L38.3295 53.1367L38.5425 53.0504L38.7546 52.9619L38.9658 52.8715L39.1758 52.7791L39.3846 52.6847L39.5926 52.5883L39.7994 52.4898L40.0049 52.3896L40.2094 52.2872L40.4126 52.183L40.6147 52.0769L40.8157 51.9688L41.0152 51.8589L41.2136 51.7471L41.4106 51.6335L41.6067 51.5178L41.801 51.4006L41.9945 51.2812L42.1861 51.1603L42.3766 51.0374L42.5658 50.9128L42.7536 50.7862L42.9397 50.6583L43.1245 50.5284L43.308 50.3968L43.49 50.2636L43.6705 50.1284L43.8493 49.9919L44.027 49.8534L44.2028 49.7135L44.3771 49.5719L44.5502 49.4286L44.7214 49.2836L44.8909 49.1373L45.059 48.9892L45.2254 48.8398L45.3902 48.6887L45.5534 48.5361L45.7146 48.3821L45.8745 48.2264L46.0326 48.0693L46.189 47.9109L46.3437 47.7509L46.4964 47.5897L46.6474 47.4272L46.797 47.2627L46.9445 47.0975L47.0904 46.9306L47.2342 46.7626L47.3765 46.5931L47.5168 46.4225L47.6551 46.2505L47.7919 46.0772L47.9266 45.9029L48.0596 45.7271L48.1905 45.5504L48.3197 45.3723L48.4471 45.193L48.572 45.013L48.6955 44.8315L48.8167 44.6492L48.9362 44.4655L49.0539 44.2807L49.1693 44.0953L49.2827 43.9087L49.3944 43.7207L49.5037 43.5324L49.6113 43.3427L49.7169 43.1521L49.8202 42.9609L49.9217 42.7683L50.0212 42.575L50.1184 42.3815L50.2137 42.1863L50.307 41.9905L50.3981 41.7941L50.4872 41.597L50.5742 41.399L50.659 41.2004L50.7419 41.0008L50.8226 40.8006L50.9011 40.6003L50.9776 40.3985L51.0518 40.1966L51.1242 39.9939L51.1943 39.7907L51.2623 39.5868L51.3279 39.383L51.3918 39.1776L51.4531 38.9725L51.5125 38.7667L51.5697 38.5607L51.6248 38.3538L51.6776 38.147L51.7284 37.9394L51.7769 37.7315L51.8234 37.5234L51.8676 37.3147L51.9095 37.1062L51.9494 36.8968L51.9871 36.6879L52.0226 36.4781L52.0559 36.2683L52.087 36.0584L52.116 35.8481L52.1427 35.6381L52.1674 35.4272L52.1897 35.2171L52.21 35.0062L52.228 34.7958L52.2438 34.5847L52.2575 34.3745L52.2691 34.1635L52.2784 33.9524L52.2855 33.7419L52.2906 33.5317L52.2933 33.3208L52.294 33.1102L52.2925 32.9L52.2888 32.6898L52.2829 32.4797L52.2748 32.2704L52.2647 32.0602L52.2523 31.8511L52.2378 31.6419L52.2212 31.4334L52.2025 31.2245L52.1816 31.0165L52.1586 30.8084L52.1334 30.601L52.1062 30.3937L52.0768 30.1871L52.0452 29.9804L52.0116 29.7746L51.976 29.5696L51.9382 29.3643L51.8982 29.1598L51.8562 28.9561L51.8121 28.7522L51.7662 28.5498L51.7179 28.3472L51.6678 28.1459L51.6154 27.9444L51.5611 27.7443L51.5048 27.5445L51.4464 27.3452L51.3861 27.1471L51.3238 26.9496L51.2593 26.7523L51.1931 26.5565L51.1246 26.3608L51.0544 26.1663L50.9821 25.9723L50.908 25.7796L50.8317 25.5872L50.7536 25.3959L50.6737 25.2058L50.5919 25.0165L50.5078 24.8275L50.4224 24.6403L50.3346 24.4532L50.2452 24.2679L50.154 24.0832L50.0607 23.8993L49.9659 23.7168L49.869 23.5352L49.7702 23.3544L49.6702 23.1753L49.5678 22.9967L49.464 22.8196L49.3581 22.6432L49.2509 22.4687L49.1415 22.2946L49.0308 22.1221L48.918 21.9504L48.8037 21.7802L48.688 21.6115L48.5701 21.4435L48.4508 21.277L48.3299 21.1117L48.2073 20.948L48.0832 20.7851L47.9574 20.624L47.8301 20.4639L47.7012 20.3053L47.5707 20.1481L47.4387 19.9921L47.3051 19.8376L47.1701 19.6844L47.0338 19.5328L46.8958 19.3825L46.7561 19.2335L46.6156 19.0865L46.4729 18.9403L46.3294 18.7961L46.1843 18.6531L46.038 18.5118L45.8897 18.3716L45.7409 18.2336L45.5902 18.0967L45.4383 17.9615L45.2855 17.828L45.1312 17.696L44.9752 17.5652L44.8183 17.4363L44.6603 17.3091L44.501 17.1835L44.3404 17.0594L44.179 16.9374L44.0158 16.8163L43.8521 16.6975L43.687 16.5802L43.5206 16.4645L43.3536 16.3506L43.1848 16.2381L43.016 16.1279L42.8453 16.019L42.674 15.9119L42.5014 15.8065L42.3281 15.7029L42.1538 15.6011L41.9788 15.5013L41.8022 15.4027L41.6256 15.3065L41.4475 15.2117L41.2687 15.1188L41.0892 15.0279L40.9086 14.9386L40.7274 14.851L40.5454 14.7655L40.3625 14.6816L40.1792 14.5998L39.9949 14.5196L39.804 14.4389L39.6245 14.3651L39.4378 14.2904L39.2513 14.218L39.0633 14.147L38.8754 14.0782L38.6866 14.0111L38.4973 13.9461L38.3073 13.8827L38.1171 13.8215L37.9261 13.762L37.7347 13.7045L37.5432 13.649L37.3508 13.5952L37.1578 13.5433L36.965 13.4934L36.7718 13.4455L36.5774 13.3994L36.3836 13.3553L36.1889 13.3131L35.9942 13.2728L35.7989 13.2344L35.6038 13.198L35.4081 13.1635L35.2126 13.1311L35.0161 13.1004L34.8202 13.0717L34.6238 13.045L34.4272 13.0201L34.2306 12.9973L34.034 12.9763L33.8372 12.9573L33.6404 12.9403L33.4433 12.9251L33.2462 12.9119L33.0496 12.9006L32.8528 12.8913L32.6554 12.8838L32.459 12.8784L32.2623 12.8748L32.0657 12.8731L31.8688 12.8734L31.8293 12.8739L31.8914 18.086L32.0031 18.0854L32.1468 18.0862L32.2905 18.0884L32.4344 18.0921L32.5784 18.0971L32.7224 18.1037L32.8664 18.1116L33.0105 18.1209L33.1547 18.1316L33.2988 18.1438L33.4429 18.1574L33.5869 18.1724L33.7311 18.1889L33.8751 18.2068L34.0189 18.226L34.1628 18.2469L34.3065 18.269L34.4501 18.2926L34.5937 18.3176L34.737 18.3441L34.8802 18.3721L35.0232 18.4014L35.1661 18.4321L35.3088 18.4642L35.4511 18.4979L35.5933 18.533L35.7352 18.5694L35.8768 18.6073L36.0182 18.6466L36.1593 18.6873L36.3002 18.7295L36.4406 18.773L36.5807 18.818L36.7204 18.8643L36.8599 18.9122L36.9988 18.9614L37.1375 19.012L37.2756 19.064L37.4134 19.1174L37.5507 19.1722L37.6876 19.2284L37.8239 19.2861L37.9598 19.345L38.0952 19.4054L38.23 19.4671L38.3643 19.5302L38.4982 19.5947L38.6313 19.6606L38.764 19.7278L38.896 19.7964L39.0274 19.8662L39.1583 19.9375L39.2884 20.0101L39.4179 20.084L39.5469 20.1592L39.6751 20.2359L39.8025 20.3137L39.9293 20.393L40.0553 20.4736L40.1807 20.5554L40.3052 20.6384L40.4291 20.7228L40.5521 20.8086L40.6743 20.8955L40.7957 20.9837L40.9163 21.0733L41.0362 21.164L41.155 21.256L41.2731 21.3493L41.3902 21.4436L41.5065 21.5394L41.6219 21.6363L41.7365 21.7344L41.85 21.8336L41.9627 21.9341L42.0743 22.0359L42.1849 22.1387L42.2947 22.2427L42.4033 22.3479L42.511 22.4542L42.6177 22.5617L42.7234 22.6704L42.828 22.78L42.9315 22.8909L43.034 23.0028L43.1354 23.1159L43.2357 23.2299L43.3349 23.3451L43.433 23.4613L43.53 23.5786L43.6257 23.6969L43.7204 23.8162L43.8138 23.9366L43.9062 24.058L43.9973 24.1805L44.0872 24.3037L44.176 24.4281L44.2634 24.5534L44.3497 24.6797L44.4347 24.8069L44.5184 24.935L44.6009 25.0641L44.6821 25.1941L44.7621 25.3248L44.8408 25.4566L44.918 25.5892L44.9941 25.7226L45.0687 25.8569L45.1421 25.9921L45.2141 26.128L45.2848 26.2648L45.354 26.4024L45.422 26.5408L45.4886 26.6799L45.5536 26.8196L45.6174 26.9604L45.6797 27.1016L45.7407 27.2437L45.8001 27.3865L45.8582 27.53L45.9148 27.6741L45.9699 27.8188L46.0236 27.9643L46.0758 28.1103L46.1266 28.2571L46.176 28.4043L46.2236 28.5523L46.2699 28.7006L46.3147 28.8497L46.358 28.9993L46.3998 29.1494L46.44 29.3001L46.4788 29.4512L46.5159 29.6028L46.5515 29.7549L46.5856 29.9075L46.6181 30.0605L46.6491 30.2139L46.6784 30.3677L46.7062 30.5221L46.7325 30.6767L46.7572 30.8316L46.7802 30.9871L46.8017 31.1426L46.8216 31.2986L46.8399 31.4551L46.8565 31.6117L46.8716 31.7686L46.8851 31.9258L46.8969 32.0831L46.9072 32.2408L46.9157 32.3986L46.9227 32.5566L46.928 32.7149L46.9317 32.8732L46.9338 33.0318L46.9342 33.1905L46.9329 33.3493L46.9301 33.5081L46.9256 33.6671L46.9194 33.8263L46.9116 33.9853L46.9021 34.1444L46.891 34.3037L46.8783 34.4628L46.8638 34.622L46.8477 34.7811L46.8299 34.9401L46.8106 35.0992L46.7895 35.2581L46.7668 35.417L46.7424 35.5757L46.7163 35.7343L46.6887 35.8927L46.6592 36.051L46.6282 36.2092L46.5955 36.3671L46.5611 36.5249L46.5252 36.6824L46.4875 36.8396L46.4482 36.9966L46.4072 37.1534L46.3646 37.3098L46.3204 37.466L46.2745 37.6217L46.2269 37.7771L46.1777 37.9323L46.1268 38.0871L46.0743 38.2413L46.0202 38.3953L45.9645 38.5488L45.9071 38.7018L45.8481 38.8544L45.7875 39.0066L45.7253 39.1582L45.6615 39.3095L45.596 39.46L45.529 39.6101L45.4603 39.7597L45.39 39.9086L45.3183 40.057L45.2448 40.2048L45.1697 40.352L45.0931 40.4986L45.015 40.6443L44.9353 40.7896L44.854 40.9341L44.7713 41.078L44.6869 41.221L44.601 41.3635L44.5136 41.5051L44.4247 41.6461L44.3341 41.7861L44.2422 41.9255L44.1486 42.0639L44.0536 42.2016L43.9572 42.3385L43.8592 42.4745L43.7597 42.6096L43.6589 42.7439L43.5565 42.8773L43.4527 43.0097L43.3475 43.1411L43.2407 43.2718L43.1326 43.4013L43.0231 43.5301L42.9122 43.6577L42.7998 43.7844L42.6861 43.91L42.571 44.0346L42.4545 44.1581L42.3368 44.2807L42.2176 44.4021L42.0972 44.5225L41.9753 44.6417L41.8522 44.7599L41.7277 44.8769L41.602 44.9927L41.475 45.1075L41.3467 45.221L41.2172 45.3333L41.0863 45.4446L40.9544 45.5545L40.8211 45.6633L40.6867 45.7708L40.5509 45.877L40.414 45.982L40.276 46.0858L40.1368 46.1882L39.9964 46.2894L39.855 46.3893L39.7124 46.4878L39.5686 46.585L39.4237 46.6809L39.2778 46.7754L39.1307 46.8685L38.9828 46.9603L38.8336 47.0505L38.6835 47.1396L38.5323 47.2271L38.3802 47.3132L38.227 47.3979L38.0729 47.4812L37.9178 47.563L37.7617 47.6433L37.6047 47.7221L37.4469 47.7995L37.2881 47.8754L37.1283 47.9497L36.9677 48.0226L36.8063 48.0939L36.6441 48.1637L36.4809 48.2319L36.317 48.2986L36.1524 48.3637L35.9868 48.4273L35.8206 48.4893L35.6536 48.5497L35.4859 48.6085L35.3174 48.6656L35.1483 48.7213L34.9784 48.7751L34.808 48.8275L34.6369 48.8782L34.465 48.9272L34.2927 48.9746L34.1196 49.0203L33.946 49.0644L33.7719 49.1068L33.5972 49.1475L33.4218 49.1866L33.2462 49.2239L33.0698 49.2595L32.8931 49.2935L32.7159 49.3258L32.5382 49.3563L32.3601 49.3851L32.1817 49.4121L32.0028 49.4375L31.8234 49.461L31.6438 49.483L31.4639 49.503L31.2836 49.5215L31.103 49.5381L30.9222 49.553L30.741 49.566L30.5596 49.5774L30.3779 49.5869L30.1961 49.5947L30.014 49.6007L29.8318 49.6049L29.6494 49.6074L29.4668 49.608L29.2842 49.607L29.1015 49.604L28.9186 49.5993L28.7357 49.5928L28.5528 49.5845L28.3697 49.5744L28.1868 49.5625L28.0038 49.5489L27.8209 49.5333L27.638 49.516L27.455 49.4969L27.2723 49.4761L27.0896 49.4534L26.907 49.4289L26.7246 49.4025L26.5424 49.3745L26.3603 49.3446L26.1784 49.3128L25.9967 49.2794L25.8153 49.2441L25.6341 49.2069L25.4532 49.168L25.2726 49.1274L25.0923 49.0848L24.9122 49.0405L24.7326 48.9944L24.5533 48.9465L24.3743 48.8969L24.1959 48.8455L24.0178 48.7923L23.8401 48.7374L23.6629 48.6805L23.4863 48.622L23.31 48.5617L23.1343 48.4997L22.9592 48.4359L22.7845 48.3703L22.6105 48.3029L22.4371 48.2339L22.2642 48.163L22.0919 48.0905L21.9204 48.0163L21.7496 47.9402L21.5792 47.8625L21.4098 47.7831L21.241 47.702L21.0728 47.6191L20.9054 47.5345L20.7389 47.4483L20.5732 47.3604L20.4082 47.2708L20.2441 47.1796L20.0807 47.0866L19.9182 46.992L19.7567 46.8958L19.596 46.7979L19.4362 46.6985L19.2774 46.5973L19.1196 46.4946L18.9627 46.3901L18.8068 46.2842L18.6518 46.1767L18.498 46.0676L18.3451 45.9569L18.1932 45.8447L18.0424 45.7308L17.8928 45.6155L17.7443 45.4986L17.5968 45.3801L17.4505 45.2602L17.3053 45.1387L17.1613 45.0159L17.0185 44.8914L16.8768 44.7655L16.7364 44.6381L16.5973 44.5094L16.4593 44.3792L16.3226 44.2475L16.1872 44.1144L16.0532 43.9799L15.9205 43.844L15.7889 43.7068L15.6588 43.5681L15.5301 43.4282L15.4027 43.2868L15.2766 43.1441L15.1521 43.0001L15.0288 42.8549L14.9071 42.7083L14.7867 42.5604L14.6679 42.4113L14.5505 42.2609L14.4346 42.1093L14.3202 41.9564L14.2071 41.8025L14.0957 41.6471L13.986 41.4907L13.8776 41.3331L13.7709 41.1744L13.6657 41.0146L13.5622 40.8535L13.4602 40.6914L13.3598 40.5281L13.2611 40.3638L13.164 40.1986L13.0686 40.0321L12.9748 39.8647L12.8827 39.6962L12.7923 39.5268L12.7035 39.3564L12.6165 39.185L12.5312 39.0126L12.4477 38.8393L12.3658 38.6651L12.2858 38.4899L12.2075 38.314L12.1309 38.1371L12.0562 37.9593L11.9832 37.7808L11.912 37.6015L11.8427 37.4212L11.7752 37.2403L11.7094 37.0586L11.6456 36.8761L11.5836 36.6929L11.5234 36.509L11.4651 36.3243L11.4087 36.1391L11.3541 35.9531L11.3015 35.7666L11.2507 35.5794L11.2019 35.3915L11.1549 35.2031L11.1099 35.0141L11.0668 34.8246L11.0256 34.6345L10.9864 34.444L10.9491 34.253L10.9138 34.0614L10.8804 33.8694L10.849 33.677L10.8196 33.4841L10.7921 33.2909L10.7666 33.0973L10.7431 32.9032L10.7216 32.7089L10.7021 32.5143L10.6846 32.3193L10.6691 32.1241L10.6555 31.9286L10.644 31.7328L10.6346 31.5369L10.6271 31.3408L10.6216 31.1444L10.6182 30.9479L10.6168 30.7511L10.6175 30.5544L10.6201 30.3575L10.6248 30.1606L10.6316 29.9635L10.6403 29.7663L10.6512 29.5693L10.664 29.3721L10.6789 29.1751L10.6959 28.9779L10.7149 28.781L10.7359 28.5839L10.759 28.3871L10.7841 28.1904L10.8113 27.9937L10.8405 27.7972L10.8717 27.601L10.905 27.4049L10.9404 27.2091L10.9778 27.0134L11.0172 26.818L11.0587 26.623L11.1022 26.4281L11.1477 26.2337L11.1953 26.0395L11.2449 25.8457L11.2965 25.6524L11.3502 25.4593L11.4059 25.2667L11.4636 25.0746L11.5233 24.8829L11.585 24.6916L11.6488 24.5009L11.7145 24.3107L11.7823 24.121L11.852 23.9319L11.9237 23.7433L11.9974 23.5554L12.0731 23.368L12.1508 23.1813L12.2305 22.9953L12.3121 22.8099L12.3956 22.6252L12.4812 22.4413L12.5686 22.258L12.658 22.0756L12.7494 21.8939L12.8426 21.713L12.9378 21.533L13.0349 21.3536L13.1339 21.1753L13.2348 20.9977L13.3376 20.821L13.4423 20.6454L13.5488 20.4706L13.6572 20.2967L13.7674 20.1238L13.8795 19.9518L13.9935 19.781L14.1092 19.6111L14.2269 19.4422L14.3462 19.2744L14.4673 19.1076L14.5904 18.9421L14.715 18.7775L14.8416 18.6141L14.9699 18.4518L15.0999 18.2908L15.2316 18.131L15.365 17.9722L15.5003 17.8147L15.6371 17.6585L15.7756 17.5036L15.916 17.3499L16.0578 17.1974L16.2013 17.0463L16.3466 16.8965L16.4933 16.7481L16.6417 16.601L16.7917 16.4552L16.9434 16.3109L17.0966 16.1679L17.2513 16.0265L17.4076 15.8863L17.5655 15.7477L17.7247 15.6106L17.8855 15.4749L18.0479 15.3407L18.2116 15.208L18.3768 15.0768L18.5436 14.9473L18.7117 14.8192L18.8812 14.6928L19.0522 14.5679L19.2244 14.4446L19.398 14.323L19.5731 14.203L19.7494 14.0846L19.927 13.9681L20.1061 13.853L20.2863 13.7396L20.4678 13.628L20.6506 13.5181L20.8346 13.4099L21.0197 13.3035L21.2062 13.1988L21.3937 13.0958L21.5824 12.9947L21.7723 12.8953L21.9633 12.7978L22.1554 12.702L22.3486 12.6081L22.5429 12.516L22.7382 12.4258L22.9346 12.3375L23.132 12.251L23.3304 12.1664L23.5298 12.0837L23.7301 12.0028L23.9312 11.924L24.1334 11.847L24.3365 11.772L24.5405 11.6989L24.7453 11.6278L24.951 11.5586L25.1575 11.4914L25.3646 11.4262L25.5728 11.363L25.7816 11.3018L25.9912 11.2426L26.2014 11.1854L26.4124 11.1302L26.6241 11.0771L26.8364 11.026L27.0494 10.977L27.263 10.93L27.4771 10.8851L27.6918 10.8423L27.9072 10.8015L28.123 10.7628L28.3393 10.7262L28.5562 10.6917L28.7735 10.6593L28.9912 10.629L29.2094 10.6008L29.2907 10.5911ZM29.3828 18.3217L29.3201 13.0524L29.1413 13.0772L28.949 13.1059L28.7567 13.1365L28.5655 13.1688L28.3741 13.2031L28.1837 13.2392L27.9936 13.2771L27.8043 13.3168L27.6154 13.3584L27.4268 13.4018L27.2388 13.447L27.0517 13.494L26.8647 13.5429L26.685 13.5917L26.4936 13.6458L26.3088 13.7L26.1248 13.7559L25.9417 13.8134L25.7591 13.8729L25.5771 13.9341L25.396 13.997L25.2158 14.0615L25.0364 14.1279L24.8577 14.1958L24.6797 14.2656L24.5031 14.3369L24.3265 14.4101L24.1513 14.4849L23.9768 14.5612L23.8037 14.6392L23.6309 14.719L23.4591 14.8004L23.2888 14.8832L23.1187 14.9679L22.9505 15.0539L22.7825 15.1419L22.6162 15.2309L22.4501 15.3221L22.2857 15.4143L22.1224 15.5083L21.9599 15.6039L21.7986 15.7008L21.6382 15.7996L21.4794 15.8994L21.3212 16.001L21.1646 16.1039L21.0091 16.2082L20.8547 16.3142L20.7013 16.4216L20.5496 16.5301L20.3987 16.6404L20.2491 16.7519L20.1009 16.8648L19.954 16.979L19.8081 17.0947L19.6638 17.2116L19.5208 17.3298L19.3788 17.4497L19.2387 17.5704L19.0994 17.6927L18.9616 17.8162L18.8253 17.9409L18.6905 18.0667L18.5566 18.1941L18.4247 18.3223L18.2939 18.4518L18.1645 18.5827L18.0366 18.7146L17.9102 18.8478L17.7852 18.982L17.6618 19.1173L17.5397 19.2538L17.419 19.3915L17.3003 19.5299L17.1828 19.6697L17.0667 19.8106L16.9523 19.9522L16.8396 20.0949L16.728 20.2389L16.6183 20.3836L16.51 20.5293L16.4034 20.6761L16.2984 20.8237L16.195 20.9721L16.0932 21.1216L15.993 21.272L15.8943 21.4232L15.7974 21.5751L15.7022 21.728L15.6085 21.8819L15.5164 22.0363L15.4261 22.1916L15.3373 22.3477L15.2505 22.5043L15.1651 22.6619L15.0813 22.8204L14.9995 22.9791L14.9192 23.1389L14.8407 23.2993L14.7638 23.4601L14.6887 23.6218L14.6153 23.7839L14.5436 23.9467L14.4736 24.1101L14.4055 24.274L14.3391 24.4385L14.2743 24.6036L14.2112 24.7691L14.1501 24.9351L14.0905 25.1017L14.033 25.2685L13.9769 25.436L13.9228 25.6038L13.8703 25.7721L13.8198 25.9406L13.7709 26.1096L13.7239 26.2788L13.6785 26.4486L13.635 26.6185L13.5933 26.7888L13.5534 26.9594L13.5152 27.1301L13.4788 27.3013L13.4443 27.4726L13.4115 27.644L13.3805 27.8158L13.3514 27.9876L13.3239 28.1597L13.2984 28.3316L13.2745 28.504L13.2525 28.6764L13.2323 28.8489L13.2139 29.0214L13.1972 29.194L13.1824 29.3666L13.1694 29.5391L13.1581 29.7119L13.1486 29.8846L13.1409 30.0571L13.135 30.2296L13.1309 30.4019L13.1286 30.5743L13.128 30.7466L13.1292 30.9187L13.1322 31.0907L13.137 31.2625L13.1435 31.4341L13.1518 31.6056L13.1619 31.7769L13.1737 31.9477L13.1873 32.1186L13.2026 32.2891L13.2197 32.4592L13.2385 32.6291L13.259 32.7988L13.2813 32.9681L13.3053 33.137L13.3311 33.3056L13.3585 33.4736L13.3877 33.6415L13.4186 33.809L13.4511 33.9757L13.4854 34.1424L13.5214 34.3083L13.559 34.474L13.5983 34.6389L13.6393 34.8035L13.682 34.9675L13.7263 35.131L13.7722 35.2938L13.8199 35.4562L13.8691 35.618L13.9201 35.7791L13.9726 35.9398L14.0267 36.0996L14.0824 36.2587L14.1397 36.4173L14.1986 36.5752L14.2592 36.7325L14.3213 36.8889L14.3848 37.0446L14.45 37.1996L14.5168 37.3539L14.5851 37.5073L14.6549 37.66L14.7263 37.8118L14.7992 37.9629L14.8734 38.1131L14.9493 38.2625L15.0266 38.4111L15.1054 38.5588L15.1857 38.7055L15.2673 38.8514L15.3505 38.9964L15.435 39.1404L15.5211 39.2834L15.6085 39.4256L15.6973 39.5668L15.7874 39.707L15.8791 39.8463L15.9719 39.9843L16.0663 40.1216L16.1618 40.2577L16.2588 40.3929L16.357 40.5269L16.4566 40.6599L16.5574 40.7917L16.6597 40.9226L16.763 41.0523L16.8676 41.1809L16.9736 41.3084L17.0807 41.4348L17.1891 41.5599L17.2987 41.6841L17.4094 41.8068L17.5213 41.9286L17.6344 42.049L17.7486 42.1683L17.864 42.2864L17.9806 42.4033L18.0982 42.5189L18.2169 42.6333L18.3368 42.7465L18.4575 42.8583L18.5796 42.9691L18.7025 43.0783L18.8265 43.1863L18.9516 43.2931L19.0777 43.3985L19.2047 43.5026L19.3326 43.6053L19.4616 43.7068L19.5915 43.8069L19.7223 43.9057L19.8541 44.0031L19.9866 44.0991L20.1201 44.1937L20.2545 44.287L20.3897 44.3789L20.5259 44.4695L20.6628 44.5585L20.8005 44.6462L20.939 44.7325L21.0782 44.8173L21.2182 44.9008L21.3591 44.9827L21.5005 45.0632L21.6428 45.1423L21.7856 45.2199L21.9293 45.2961L22.0736 45.3708L22.2184 45.4439L22.3641 45.5158L22.5104 45.586L22.6571 45.6549L22.8044 45.7221L22.9525 45.788L23.1009 45.8522L23.25 45.9149L23.3996 45.9763L23.5498 46.036L23.7002 46.0942L23.8513 46.151L24.0029 46.2062L24.1548 46.2599L24.3072 46.312L24.4601 46.3627L24.6133 46.4117L24.7669 46.4593L24.9209 46.5052L25.0751 46.5497L25.2297 46.5926L25.3846 46.634L25.5399 46.6739L25.6954 46.7121L25.8512 46.7488L26.0072 46.784L26.1636 46.8176L26.32 46.8497L26.4766 46.8801L26.6337 46.909L26.7905 46.9364L26.9478 46.9623L27.1051 46.9865L27.2625 47.0092L27.4201 47.0304L27.5777 47.05L27.7354 47.068L27.8931 47.0845L28.0509 47.0994L28.2088 47.1127L28.3666 47.1245L28.5244 47.1348L28.6821 47.1434L28.8398 47.1506L28.9977 47.1562L29.1552 47.1603L29.3127 47.1628L29.4701 47.1637L29.6274 47.1632L29.7845 47.161L29.9416 47.1575L30.0983 47.1523L30.255 47.1456L30.4114 47.1373L30.5676 47.1276L30.7235 47.1163L30.8793 47.1035L31.0346 47.0891L31.1899 47.0733L31.3448 47.056L31.4994 47.0372L31.6537 47.0169L31.8075 46.9952L31.9611 46.9719L32.1143 46.9471L32.2669 46.9209L32.4194 46.8931L32.5714 46.8639L32.7229 46.8333L32.8742 46.8011L33.0246 46.7676L33.1748 46.7327L33.3244 46.6961L33.4736 46.6584L33.6223 46.6191L33.7704 46.5783L33.918 46.5362L34.065 46.4927L34.2113 46.4478L34.3571 46.4015L34.5024 46.3537L34.647 46.3046L34.791 46.2542L34.9343 46.2024L35.0769 46.1492L35.2189 46.0946L35.3601 46.0387L35.5009 45.9815L35.6407 45.923L35.7798 45.8631L35.9183 45.802L36.0559 45.7396L36.1929 45.6757L36.3291 45.6107L36.4642 45.5446L36.599 45.4768L36.7326 45.4081L36.8656 45.3378L36.9975 45.2666L37.1287 45.1941L37.2591 45.1203L37.3885 45.0453L37.5171 44.9691L37.6448 44.8918L37.7714 44.8132L37.8975 44.7335L38.0222 44.6527L38.1462 44.5706L38.2693 44.4873L38.3913 44.4031L38.5121 44.3178L38.6324 44.2311L38.7514 44.1437L38.8695 44.0549L38.9866 43.9651L39.1022 43.8744L39.2175 43.7823L39.3315 43.6893L39.444 43.5955L39.556 43.5002L39.6666 43.4043L39.7761 43.3075L39.8849 43.2092L39.992 43.1105L40.0983 43.0105L40.2036 42.9096L40.3074 42.8079L40.4103 42.7051L40.5121 42.6014L40.6127 42.4968L40.7119 42.3914L40.8101 42.285L40.9073 42.1779L41.0029 42.07L41.0977 41.9609L41.191 41.8513L41.2831 41.7408L41.3742 41.6293L41.4638 41.5175L41.5523 41.4044L41.6396 41.2908L41.7256 41.1763L41.8103 41.0612L41.8936 40.9456L41.976 40.8287L42.0568 40.7116L42.1364 40.5936L42.2149 40.4748L42.2916 40.3558L42.3675 40.2358L42.4419 40.1151L42.5151 39.994L42.5868 39.8722L42.6575 39.7496L42.7264 39.6271L42.7943 39.5032L42.8608 39.3793L42.9257 39.2548L42.9897 39.1293L43.0519 39.0041L43.1132 38.8776L43.1726 38.7515L43.2313 38.624L43.288 38.4967L43.3438 38.3684L43.398 38.2402L43.4508 38.1115L43.5023 37.9822L43.5524 37.8526L43.6009 37.7229L43.6485 37.5924L43.6942 37.4617L43.7388 37.3308L43.7819 37.1995L43.8237 37.0678L43.8641 36.9359L43.903 36.8039L43.9406 36.6714L43.9766 36.5388L44.0114 36.4059L44.0447 36.2728L44.0766 36.1397L44.1072 36.0059L44.1362 35.8723L44.1641 35.7385L44.1902 35.6047L44.2152 35.4707L44.2386 35.3361L44.2606 35.2021L44.2813 35.0676L44.3005 34.933L44.3183 34.7987L44.3348 34.6641L44.3498 34.5291L44.3634 34.3951L44.3757 34.2599L44.3866 34.1253L44.3959 33.991L44.404 33.8563L44.4105 33.7218L44.4157 33.5875L44.4196 33.4528L44.4219 33.3189L44.423 33.1844L44.4226 33.0504L44.421 32.9163L44.4178 32.7828L44.4133 32.6491L44.4074 32.5156L44.4001 32.3826L44.3915 32.2492L44.3815 32.1163L44.3703 31.984L44.3575 31.8513L44.3434 31.7195L44.3279 31.5873L44.3112 31.4559L44.2931 31.3246L44.2737 31.1934L44.2528 31.0627L44.2308 30.9325L44.2073 30.8026L44.1826 30.673L44.1564 30.5433L44.129 30.4146L44.1003 30.2863L44.0703 30.1581L44.039 30.0302L44.0065 29.9034L43.9725 29.7761L43.9374 29.65L43.901 29.524L43.8633 29.3988L43.8244 29.2738L43.7841 29.1493L43.7427 29.0256L43.7001 28.9023L43.656 28.7792L43.6111 28.6571L43.5646 28.5354L43.5171 28.4144L43.4683 28.2937L43.4183 28.1736L43.3672 28.0546L43.3147 27.9356L43.2613 27.8177L43.2066 27.7004L43.1507 27.5834L43.0936 27.4671L43.0356 27.3519L42.9762 27.2369L42.9159 27.1231L42.8543 27.0099L42.7916 26.8968L42.728 26.7851L42.6631 26.6739L42.5972 26.5636L42.53 26.4536L42.4622 26.345L42.3929 26.2365L42.3229 26.1294L42.2516 26.0229L42.1794 25.9172L42.106 25.8121L42.0317 25.708L41.9566 25.6049L41.8802 25.5022L41.803 25.4008L41.7247 25.3L41.6458 25.2003L41.5655 25.1012L41.4844 25.0031L41.4023 24.9059L41.3194 24.8095L41.2357 24.7143L41.1507 24.6197L41.0652 24.5263L40.9786 24.4336L40.8915 24.3422L40.803 24.2512L40.7141 24.1616L40.6239 24.0726L40.5332 23.9849L40.4418 23.8982L40.3495 23.8123L40.2562 23.7273L40.1622 23.6436L40.0675 23.5608L39.9717 23.4787L39.876 23.3983L39.7788 23.3182L39.6811 23.2396L39.5828 23.162L39.4836 23.085L39.3838 23.0095L39.2837 22.9352L39.1823 22.8616L39.0802 22.7889L38.9781 22.7178L38.8747 22.6473L38.7714 22.5785L38.6671 22.5103L38.5621 22.4432L38.4565 22.3772L38.3507 22.3126L38.2439 22.2487L38.1369 22.1863L38.0289 22.1246L37.9211 22.0645L37.8123 22.0053L37.7029 21.9471L37.5932 21.8901L37.4832 21.8345L37.3725 21.7796L37.2612 21.7261L37.1498 21.6737L37.0381 21.6226L36.9252 21.5722L36.8129 21.5234L36.6997 21.4757L36.586 21.4289L36.4721 21.3835L36.3582 21.3393L36.2436 21.2962L36.1284 21.2541L36.0134 21.2135L35.8978 21.1738L35.7819 21.1353L35.6661 21.0981L35.5498 21.0621L35.4335 21.0272L35.3162 20.9934L35.1993 20.9609L35.0821 20.9296L34.9647 20.8994L34.8472 20.8704L34.7291 20.8426L34.6112 20.816L34.4934 20.7906L34.375 20.7663L34.2564 20.7431L34.1384 20.7215L34.0196 20.7007L33.9011 20.6812L33.782 20.6628L33.6637 20.6458L33.5443 20.6297L33.4258 20.6151L33.3069 20.6015L33.1879 20.5891L33.0692 20.5779L32.9501 20.5678L32.8316 20.5589L32.7124 20.5513L32.5937 20.5447L32.4753 20.5394L32.3561 20.5352L32.2379 20.5322L32.1195 20.5304L32.0013 20.5297L31.9204 20.53L31.9817 25.6783L32.0183 25.6784L32.0862 25.6794L32.1543 25.681L32.2226 25.6832L32.2908 25.6863L32.3592 25.69L32.4275 25.6944L32.496 25.6996L32.5645 25.7054L32.6332 25.712L32.7018 25.7192L32.7705 25.7271L32.8392 25.7358L32.9079 25.7452L32.9767 25.7553L33.0455 25.7662L33.1142 25.7778L33.1829 25.7901L33.2517 25.8032L33.3203 25.8168L33.3889 25.8314L33.4576 25.8466L33.5262 25.8625L33.5946 25.8791L33.6631 25.8965L33.7315 25.9146L33.7997 25.9334L33.8679 25.9529L33.936 25.9732L34.004 25.9942L34.0718 26.0161L34.1396 26.0386L34.2072 26.0617L34.2747 26.0856L34.342 26.1103L34.4091 26.1356L34.4761 26.1617L34.543 26.1885L34.6096 26.2161L34.676 26.2443L34.7424 26.2734L34.8084 26.3031L34.8743 26.3335L34.9399 26.3647L35.0053 26.3965L35.0705 26.4291L35.1353 26.4625L35.2 26.4965L35.2644 26.5312L35.3285 26.5667L35.3923 26.6028L35.4559 26.6396L35.5191 26.6771L35.5821 26.7155L35.6447 26.7545L35.7071 26.7941L35.769 26.8344L35.8307 26.8754L35.892 26.9173L35.953 26.9597L36.0136 27.0028L36.0738 27.0465L36.1337 27.091L36.1932 27.1361L36.2522 27.182L36.311 27.2285L36.3692 27.2756L36.4271 27.3234L36.4846 27.3719L36.5416 27.421L36.5982 27.4708L36.6544 27.5212L36.71 27.5724L36.7652 27.624L36.8199 27.6764L36.8743 27.7295L36.928 27.783L36.9813 27.8373L37.0342 27.8921L37.0864 27.9476L37.1382 28.0038L37.1894 28.0606L37.2402 28.1178L37.2904 28.1758L37.34 28.2343L37.3892 28.2933L37.4377 28.3531L37.4856 28.4133L37.533 28.4741L37.5799 28.5356L37.6262 28.5976L37.6718 28.6601L37.7168 28.7231L37.7613 28.7868L37.8051 28.8511L37.8483 28.9158L37.8909 28.981L37.933 29.0469L37.9742 29.1131L38.0149 29.18L38.0549 29.2473L38.0942 29.3151L38.133 29.3834L38.171 29.4523L38.2084 29.5216L38.2451 29.5914L38.281 29.6616L38.3163 29.7322L38.3509 29.8034L38.3847 29.8751L38.4179 29.9471L38.4503 30.0197L38.4821 30.0926L38.5131 30.166L38.5434 30.2398L38.5728 30.314L38.6016 30.3886L38.6297 30.4636L38.657 30.539L38.6834 30.6148L38.7092 30.6909L38.7341 30.7674L38.7582 30.8443L38.7816 30.9215L38.8042 30.9991L38.826 31.0771L38.8471 31.1552L38.8674 31.2337L38.8867 31.3127L38.9054 31.3919L38.9232 31.4713L38.9402 31.5512L38.9563 31.6312L38.9715 31.7114L38.9861 31.7921L38.9998 31.873L39.0126 31.954L39.0246 32.0354L39.0357 32.117L39.0459 32.1988L39.0554 32.2809L39.064 32.3631L39.0717 32.4455L39.0785 32.5281L39.0846 32.611L39.0896 32.6939L39.0939 32.7771L39.0972 32.8604L39.0998 32.9439L39.1013 33.0275L39.1021 33.1112L39.1018 33.1949L39.1009 33.2789L39.099 33.3631L39.0961 33.4472L39.0924 33.5315L39.0877 33.6157L39.0822 33.7001L39.0758 33.7846L39.0684 33.8691L39.0602 33.9536L39.0511 34.0382L39.041 34.1227L39.03 34.2074L39.0183 34.2921L39.0055 34.3766L38.9918 34.4612L38.9772 34.5457L38.9617 34.6303L38.9452 34.7148L38.928 34.7992L38.9096 34.8836L38.8904 34.9679L38.8704 35.0522L38.8493 35.1363L38.8274 35.2205L38.8047 35.3043L38.7808 35.3882L38.7562 35.4718L38.7305 35.5554L38.7041 35.6388L38.6767 35.722L38.6483 35.8052L38.6191 35.8881L38.5889 35.9707L38.5578 36.0534L38.5258 36.1356L38.493 36.2178L38.4591 36.2996L38.4244 36.3813L38.3888 36.4627L38.3522 36.544L38.3148 36.6249L38.2765 36.7055L38.2371 36.7859L38.1971 36.866L38.156 36.9457L38.1141 37.0252L38.0712 37.1043L38.0275 37.1831L37.983 37.2617L37.9375 37.3398L37.8911 37.4177L37.8439 37.495L37.7957 37.5722L37.7468 37.6488L37.6969 37.7251L37.6461 37.801L37.5946 37.8764L37.5421 37.9516L37.4888 38.0261L37.4345 38.1003L37.3796 38.1741L37.3237 38.2473L37.267 38.3201L37.2094 38.3926L37.151 38.4644L37.0919 38.5357L37.0318 38.6066L36.971 38.677L36.9092 38.7468L36.8467 38.8161L36.7834 38.885L36.7193 38.9531L36.6545 39.0208L36.5887 39.088L36.5223 39.1545L36.455 39.2204L36.3871 39.2859L36.3181 39.3506L36.2485 39.4147L36.1783 39.4783L36.1071 39.5413L36.0353 39.6036L35.9627 39.6652L35.8894 39.7262L35.8153 39.7866L35.7405 39.8463L35.665 39.9052L35.5888 39.9636L35.512 40.0213L35.4343 40.0783L35.356 40.1345L35.277 40.19L35.1974 40.2449L35.1169 40.2989L35.036 40.3524L34.9543 40.4049L34.872 40.4568L34.7889 40.508L34.7054 40.5583L34.6211 40.6078L34.5363 40.6566L34.4508 40.7046L34.3646 40.7518L34.278 40.7983L34.1907 40.8438L34.1029 40.8887L34.0144 40.9326L33.9255 40.9758L33.8359 41.0181L33.7457 41.0596L33.6552 41.1002L33.5639 41.1399L33.4722 41.1789L33.38 41.2169L33.2873 41.254L33.194 41.2903L33.1003 41.3257L33.006 41.3602L32.9113 41.3939L32.8162 41.4266L32.7206 41.4584L32.6245 41.4894L32.5281 41.5192L32.4312 41.5483L32.3338 41.5765L32.2361 41.6036L32.138 41.63L32.0395 41.6552L31.9406 41.6796L31.8412 41.7029L31.7416 41.7254L31.6416 41.7468L31.5413 41.7674L31.4406 41.7869L31.3396 41.8055L31.2384 41.8231L31.1367 41.8397L31.0349 41.8552L30.9327 41.8698L30.8304 41.8835L30.7276 41.8961L30.6247 41.9077L30.5215 41.9182L30.4181 41.9279L30.3145 41.9364L30.2107 41.944L30.1065 41.9504L30.0024 41.956L29.898 41.9605L29.7934 41.9639L29.6886 41.9662L29.5838 41.9676L29.4789 41.968L29.3738 41.9673L29.2686 41.9656L29.1632 41.9627L29.0578 41.9589L28.9523 41.954L28.8467 41.948L28.7411 41.941L28.6354 41.933L28.5298 41.9238L28.424 41.9136L28.3184 41.9024L28.2126 41.89L28.107 41.8766L28.0012 41.8622L27.8955 41.8468L27.7899 41.8301L27.6844 41.8126L27.5789 41.7939L27.4735 41.7741L27.3682 41.7534L27.263 41.7314L27.1579 41.7085L27.0529 41.6844L26.9481 41.6593L26.8433 41.6332L26.7387 41.606L26.6345 41.5776L26.5302 41.5483L26.4264 41.5179L26.3225 41.4864L26.2189 41.4538L26.1156 41.4202L26.0124 41.3856L25.9097 41.3499L25.8071 41.3131L25.7047 41.2751L25.6028 41.2363L25.501 41.1963L25.3996 41.1553L25.2985 41.1133L25.1978 41.0702L25.0973 41.026L24.9972 40.9809L24.8976 40.9346L24.7981 40.8873L24.6992 40.839L24.6007 40.7897L24.5026 40.7394L24.4049 40.688L24.3076 40.6356L24.2107 40.5821L24.1144 40.5277L24.0184 40.4722L23.923 40.4158L23.828 40.3584L23.7336 40.2999L23.6396 40.2404L23.5462 40.18L23.4533 40.1185L23.361 40.0561L23.2693 39.9926L23.1781 39.9283L23.0873 39.863L22.9973 39.7966L22.9079 39.7293L22.8191 39.6611L22.7308 39.5919L22.6433 39.5218L22.5563 39.4507L22.47 39.3787L22.3843 39.3058L22.2994 39.2319L22.2151 39.1571L22.1315 39.0815L22.0487 39.0048L21.9664 38.9274L21.8851 38.849L21.8042 38.7697L21.7243 38.6896L21.6451 38.6086L21.5666 38.5266L21.489 38.444L21.4121 38.3602L21.336 38.2758L21.2607 38.1906L21.1863 38.1044L21.1126 38.0176L21.0397 37.9297L20.9678 37.8411L20.8966 37.7518L20.8264 37.6616L20.7569 37.5707L20.6884 37.4789L20.6208 37.3865L20.5541 37.2932L20.4882 37.1991L20.4233 37.1043L20.3593 37.0089L20.2963 36.9126L20.2342 36.8156L20.1729 36.718L20.1128 36.6197L20.0535 36.5206L19.9952 36.4209L19.938 36.3204L19.8817 36.2193L19.8263 36.1176L19.772 36.0152L19.7187 35.9121L19.6664 35.8085L19.6152 35.7043L19.565 35.5993L19.5158 35.4939L19.4677 35.3878L19.4207 35.2811L19.3747 35.1738L19.3298 35.0661L19.2859 34.9577L19.2432 34.8489L19.2015 34.7394L19.1611 34.6295L19.1216 34.519L19.0833 34.4081L19.046 34.2967L19.01 34.1848L18.975 34.0724L18.9412 33.9596L18.9085 33.8463L18.8769 33.7326L18.8467 33.6185L18.8173 33.5039L18.7894 33.389L18.7625 33.2737L18.7368 33.158L18.7122 33.0419L18.689 32.9255L18.6668 32.8087L18.6458 32.6916L18.6261 32.5742L18.6076 32.4565L18.5902 32.3384L18.574 32.2202L18.5592 32.1016L18.5455 31.9828L18.533 31.8636L18.5218 31.7443L18.5118 31.6247L18.503 31.505L18.4955 31.385L18.4892 31.2648L18.4841 31.1446L18.4803 31.024L18.4778 30.9033L18.4766 30.7826L18.4764 30.6617L18.4777 30.5406L18.4803 30.4195L18.484 30.2983L18.4891 30.1769L18.4954 30.0556L18.5029 29.9342L18.5117 29.8127L18.5218 29.6912L18.5332 29.5697L18.5458 29.4482L18.5598 29.3267L18.575 29.2052L18.5914 29.0838L18.6092 28.9625L18.6283 28.8411L18.6487 28.7199L18.6702 28.5986L18.6931 28.4776L18.7173 28.3566L18.7428 28.2358L18.7695 28.1151L18.7975 27.9945L18.8268 27.8743L18.8573 27.754L18.8893 27.634L18.9224 27.5143L18.9568 27.3947L18.9924 27.2752L19.0294 27.1562L19.0677 27.0373L19.1071 26.9186L19.1479 26.8004L19.19 26.6823L19.2333 26.5646L19.2778 26.4472L19.3237 26.3302L19.3709 26.2135L19.4192 26.0971L19.4688 25.9811L19.5197 25.8655L19.5719 25.7503L19.6252 25.6355L19.6798 25.521L19.7356 25.4072L19.7927 25.2936L19.851 25.1806L19.9106 25.0681L19.9713 24.956L20.0333 24.8444L20.0965 24.7333L20.1609 24.6227L20.2265 24.5128L20.2934 24.4033L20.3613 24.2943L20.4307 24.1861L20.5011 24.0782L20.5726 23.971L20.6454 23.8645L20.7194 23.7586L20.7944 23.6533L20.8708 23.5487L20.9482 23.4446L21.0267 23.3413L21.1064 23.2387L21.1873 23.1367L21.2693 23.0356L21.3525 22.9349L21.4366 22.8352L21.522 22.7361L21.6084 22.6378L21.696 22.5403L21.7846 22.4435L21.8744 22.3476L21.9652 22.2524L22.0571 22.158L22.15 22.0645L22.244 21.9718L22.3391 21.8799L22.4352 21.7889L22.5323 21.6988L22.6304 21.6095L22.7295 21.5211L22.8296 21.4336L22.9309 21.3471L23.033 21.2613L23.1361 21.1766L23.2401 21.0929L23.3452 21.01L23.4511 20.9282L23.5581 20.8473L23.666 20.7674L23.7747 20.6885L23.8845 20.6106L23.9951 20.5337L24.1066 20.4577L24.2191 20.3829L24.3322 20.3091L24.4464 20.2364L24.5615 20.1647L24.6772 20.0941L24.794 20.0245L24.9114 19.9561L25.0298 19.8887L25.1488 19.8224L25.2687 19.7572L25.3894 19.6933L25.5108 19.6304L25.633 19.5686L25.756 19.5081L25.8797 19.4486L26.0041 19.3904L26.1292 19.3333L26.2549 19.2774L26.3814 19.2227L26.5087 19.1691L26.6365 19.1167L26.7649 19.0657L26.8941 19.0158L27.0239 18.9671L27.1542 18.9197L27.2852 18.8736L27.4168 18.8286L27.5489 18.785L27.6817 18.7426L27.8148 18.7014L27.9487 18.6616L28.083 18.623L28.2178 18.5857L28.3532 18.5497L28.4889 18.515L28.6253 18.4816L28.762 18.4495L28.8993 18.4188L29.0369 18.3894L29.175 18.3613L29.3134 18.3346L29.3828 18.3217ZM31.0844 28.2221L29.5052 28.5977L29.4124 20.812L29.338 20.8286L29.2259 20.855L29.114 20.8824L29.0029 20.9107L28.8919 20.9402L28.7816 20.9707L28.6713 21.0025L28.5621 21.035L28.4526 21.0688L28.3445 21.1033L28.2362 21.1391L28.1285 21.176L28.0213 21.2137L27.9146 21.2525L27.8088 21.2921L27.7032 21.3331L27.5981 21.3748L27.4937 21.4175L27.3894 21.4614L27.2865 21.5058L27.1836 21.5516L27.0817 21.5981L26.9799 21.6459L26.879 21.6943L26.7785 21.7438L26.679 21.7941L26.5799 21.8454L26.4816 21.8976L26.3839 21.9506L26.2867 22.0046L26.1903 22.0596L26.0949 22.1152L25.9994 22.1721L25.9052 22.2295L25.8117 22.2879L25.7188 22.3471L25.6265 22.4072L25.5351 22.4681L25.4444 22.5299L25.3544 22.5924L25.2653 22.6556L25.1767 22.7199L25.089 22.7849L25.0021 22.8506L24.9159 22.9172L24.8307 22.9843L24.7463 23.0523L24.6624 23.1212L24.5794 23.1909L24.4975 23.261L24.4162 23.332L24.3358 23.4036L24.2562 23.476L24.1774 23.5492L24.0996 23.623L24.0226 23.6973L23.9463 23.7726L23.8711 23.8483L23.7967 23.9248L23.7232 24.0017L23.6503 24.0797L23.5787 24.1578L23.5078 24.2368L23.4378 24.3164L23.3689 24.3963L23.3007 24.4772L23.2337 24.5582L23.1672 24.6403L23.102 24.7225L23.0375 24.8056L22.974 24.8891L22.9116 24.973L22.8499 25.0574L22.7893 25.1424L22.7296 25.228L22.6708 25.3139L22.6131 25.4005L22.5564 25.4872L22.5007 25.5745L22.4457 25.6625L22.392 25.7506L22.339 25.8395L22.2872 25.9282L22.2362 26.0178L22.1862 26.1077L22.1374 26.1978L22.0895 26.2884L22.0426 26.3793L21.9966 26.4708L21.9518 26.5622L21.9078 26.6544L21.8649 26.7466L21.8231 26.8391L21.7822 26.932L21.7423 27.0253L21.7035 27.1186L21.6657 27.2124L21.629 27.3063L21.5931 27.4006L21.5584 27.4948L21.5247 27.5896L21.492 27.6845L21.4603 27.7795L21.4296 27.8747L21.4 27.9703L21.3714 28.0659L21.344 28.1615L21.3174 28.2575L21.2918 28.3536L21.2674 28.4497L21.244 28.546L21.2215 28.6424L21.2001 28.739L21.1799 28.8356L21.1605 28.9322L21.1422 29.0289L21.1249 29.1258L21.1087 29.2225L21.0935 29.3193L21.0793 29.4164L21.0661 29.5131L21.0541 29.6102L21.043 29.7069L21.0328 29.8038L21.0238 29.9009L21.0157 29.9976L21.0087 30.0944L21.0027 30.1912L20.9976 30.2878L20.9937 30.3843L20.9906 30.4807L20.9887 30.5773L20.9876 30.6736L20.9878 30.7697L20.9887 30.8657L20.9908 30.9617L20.9938 31.0574L20.9978 31.153L21.0027 31.2485L21.0087 31.3436L21.0157 31.4387L21.0237 31.5336L21.0326 31.6282L21.0424 31.7229L21.0533 31.8168L21.065 31.9111L21.0778 32.0046L21.0916 32.0983L21.1063 32.1914L21.1219 32.2844L21.1385 32.3773L21.156 32.4696L21.1745 32.5618L21.1938 32.6534L21.2142 32.7451L21.2355 32.8361L21.2577 32.9271L21.2807 33.0174L21.3048 33.1078L21.3296 33.1974L21.3554 33.287L21.3821 33.3759L21.4096 33.4646L21.4381 33.5529L21.4674 33.6406L21.4977 33.7282L21.5288 33.8152L21.5607 33.9017L21.5935 33.988L21.6272 34.0738L21.6617 34.159L21.6971 34.2438L21.7331 34.3281L21.7702 34.4121L21.8081 34.4956L21.8467 34.5785L21.8862 34.6608L21.9263 34.7426L21.9675 34.8243L22.0092 34.9051L22.0518 34.9854L22.0952 35.0653L22.1395 35.1445L22.1844 35.2233L22.2301 35.3016L22.2765 35.3791L22.3238 35.4562L22.3716 35.5327L22.4202 35.6086L22.4697 35.684L22.5197 35.7587L22.5705 35.833L22.6219 35.9062L22.6741 35.9793L22.727 36.0516L22.7804 36.1232L22.8348 36.1944L22.8896 36.2647L22.9451 36.3344L23.0013 36.4036L23.0582 36.4721L23.1154 36.5398L23.1737 36.607L23.2323 36.6736L23.2915 36.7393L23.3516 36.8045L23.4119 36.8687L23.473 36.9326L23.5347 36.9956L23.5968 37.058L23.6597 37.1196L23.723 37.1806L23.7868 37.2408L23.8512 37.3003L23.9161 37.359L23.9816 37.4171L24.0475 37.4744L24.114 37.531L24.1808 37.5869L24.2483 37.642L24.3162 37.6964L24.3847 37.75L24.4534 37.8028L24.5227 37.8549L24.5924 37.9063L24.6626 37.9569L24.7331 38.0066L24.8041 38.0557L24.8755 38.104L24.9473 38.1515L25.0194 38.1981L25.0918 38.2441L25.165 38.2893L25.2382 38.3335L25.3118 38.3771L25.3859 38.42L25.46 38.4618L25.5345 38.503L25.6098 38.5435L25.685 38.5831L25.7605 38.6218L25.8362 38.6597L25.9126 38.6969L25.9887 38.7332L26.0656 38.7688L26.1425 38.8036L26.2195 38.8374L26.297 38.8705L26.3747 38.9028L26.4524 38.9343L26.5305 38.965L26.6087 38.9947L26.6874 39.0238L26.7657 39.052L26.8448 39.0794L26.9236 39.1059L27.0026 39.1316L27.082 39.1566L27.1614 39.1807L27.2409 39.2039L27.3205 39.2264L27.4004 39.248L27.4803 39.2688L27.5601 39.2887L27.6402 39.308L27.7202 39.3262L27.8003 39.3437L27.8806 39.3605L27.9609 39.3763L28.0412 39.3914L28.1215 39.4056L28.2019 39.4191L28.2823 39.4316L28.3628 39.4435L28.4429 39.4544L28.5233 39.4645L28.6036 39.4739L28.6841 39.4825L28.7643 39.4901L28.8446 39.4971L28.9248 39.5032L29.0048 39.5086L29.085 39.5131L29.1648 39.5167L29.2446 39.5197L29.3246 39.5218L29.4041 39.5231L29.4835 39.5237L29.563 39.5234L29.6422 39.5225L29.7215 39.5206L29.8006 39.518L29.8792 39.5147L29.9579 39.5105L30.0366 39.5056L30.1147 39.4998L30.193 39.4934L30.2708 39.4862L30.3486 39.4783L30.4262 39.4694L30.5033 39.46L30.5806 39.4498L30.6573 39.4387L30.7338 39.427L30.8104 39.4146L30.8864 39.4014L30.9622 39.3875L31.0378 39.3727L31.1132 39.3573L31.188 39.3412L31.2625 39.3245L31.337 39.3069L31.4112 39.2886L31.4849 39.2698L31.5583 39.2501L31.6313 39.2298L31.7044 39.2087L31.7767 39.187L31.8485 39.1646L31.9206 39.1415L31.9918 39.1177L32.0628 39.0935L32.1334 39.0684L32.2035 39.0426L32.2735 39.0161L32.343 38.9891L32.4119 38.9615L32.4805 38.9332L32.5488 38.9042L32.6167 38.8746L32.6839 38.8445L32.751 38.8136L32.8175 38.7823L32.8834 38.7502L32.9491 38.7176L33.0141 38.6845L33.0789 38.6507L33.1431 38.6162L33.2069 38.5813L33.27 38.5458L33.3329 38.5097L33.3952 38.473L33.4569 38.4358L33.5181 38.398L33.579 38.3597L33.6393 38.321L33.6991 38.2816L33.7583 38.2417L33.8171 38.2012L33.8753 38.1603L33.9329 38.119L33.99 38.077L34.0466 38.0346L34.1026 37.9916L34.1581 37.9483L34.2132 37.9044L34.2675 37.8602L34.3213 37.8155L34.3745 37.7702L34.4271 37.7245L34.4793 37.6784L34.5308 37.6318L34.5818 37.5849L34.6319 37.5376L34.6818 37.4897L34.731 37.4414L34.7796 37.3929L34.8276 37.3439L34.8748 37.2944L34.9216 37.2448L34.9679 37.1945L35.0132 37.1441L35.0583 37.0931L35.1026 37.0419L35.1461 36.9905L35.1894 36.9384L35.2316 36.8863L35.2736 36.8336L35.3148 36.7809L35.3552 36.7277L35.3952 36.6741L35.4344 36.6205L35.473 36.5662L35.5111 36.5118L35.5484 36.4574L35.5851 36.4023L35.6213 36.3472L35.6565 36.2919L35.6913 36.2362L35.7254 36.1803L35.7589 36.1241L35.7917 36.0678L35.8238 36.0112L35.8553 35.9545L35.8861 35.8974L35.9163 35.8404L35.9457 35.783L35.9747 35.7254L36.0029 35.6677L36.0304 35.6096L36.0573 35.5517L36.0834 35.4935L36.1089 35.4352L36.1339 35.3766L36.158 35.3181L36.1817 35.2591L36.2044 35.2006L36.2268 35.1411L36.2481 35.0826L36.2691 35.0231L36.2894 34.9637L36.3088 34.9045L36.3277 34.8451L36.346 34.7857L36.3636 34.7257L36.3803 34.6666L36.3968 34.6064L36.4123 34.5472L36.4272 34.4872L36.4415 34.4272L36.455 34.3676L36.4679 34.3082L36.4802 34.2479L36.4919 34.1883L36.5028 34.1282L36.5131 34.0687L36.5228 34.009L36.5319 33.9491L36.5402 33.8893L36.5479 33.8296L36.555 33.7701L36.5615 33.7108L36.5672 33.6509L36.5724 33.5916L36.577 33.5321L36.5808 33.4728L36.5841 33.4136L36.5867 33.3546L36.5886 33.2958L36.59 33.2366L36.5908 33.1776L36.5909 33.1191L36.5904 33.0606L36.5893 33.0022L36.5875 32.944L36.5852 32.8855L36.5822 32.8281L36.5786 32.7695L36.5745 32.7123L36.5697 32.6549L36.5644 32.5971L36.5583 32.54L36.5519 32.4834L36.5446 32.426L36.537 32.3698L36.5286 32.3132L36.5198 32.2574L36.5102 32.2011L36.5002 32.1452L36.4897 32.0898L36.4786 32.0346L36.4668 31.9792L36.4545 31.9246L36.4417 31.8699L36.4283 31.8156L36.4145 31.7617L36.3998 31.7075L36.385 31.6543L36.3694 31.6006L36.3534 31.5478L36.3368 31.495L36.3196 31.4426L36.302 31.3904L36.2838 31.3383L36.2653 31.2871L36.2461 31.2359L36.2263 31.1846L36.2062 31.1342L36.1855 31.0835L36.1646 31.034L36.1428 30.9839L36.1208 30.9347L36.0982 30.8859L36.0752 30.8371L36.0518 30.7888L36.0278 30.7408L36.0034 30.6931L35.9786 30.6459L35.9533 30.599L35.9277 30.5525L35.9015 30.5062L35.8748 30.4604L35.8479 30.415L35.8205 30.37L35.7926 30.3251L35.7643 30.2811L35.7357 30.2372L35.7067 30.1937L35.6772 30.1505L35.6475 30.1079L35.6172 30.0655L35.5866 30.0236L35.5557 29.9822L35.5243 29.9411L35.4928 29.9005L35.4606 29.8601L35.4282 29.8205L35.3955 29.7811L35.3625 29.7421L35.329 29.7035L35.2955 29.6654L35.2614 29.6278L35.227 29.5906L35.1923 29.5536L35.1574 29.5173L35.122 29.4815L35.0864 29.4459L35.0506 29.411L35.0145 29.3765L34.9782 29.3424L34.9412 29.3085L34.9044 29.2754L34.8672 29.2426L34.8298 29.2104L34.792 29.1785L34.754 29.1472L34.7158 29.1163L34.6774 29.0859L34.6388 29.0559L34.5999 29.0263L34.5608 28.9974L34.5215 28.9687L34.4819 28.9406L34.4423 28.9131L34.4024 28.8858L34.3624 28.8592L34.3221 28.8331L34.2816 28.8073L34.2412 28.7821L34.2002 28.7572L34.1594 28.733L34.1184 28.7092L34.0772 28.6859L34.0356 28.663L33.9943 28.6406L33.9528 28.6187L33.911 28.5973L33.8693 28.5764L33.8271 28.5558L33.7852 28.5359L33.743 28.5166L33.7008 28.4975L33.6584 28.4789L33.6158 28.4608L33.5736 28.4433L33.5309 28.4263L33.4881 28.4096L33.4455 28.3936L33.4028 28.3779L33.36 28.3627L33.3171 28.348L33.2743 28.3337L33.2315 28.3201L33.1885 28.3067L33.1455 28.2939L33.1027 28.2816L33.0594 28.2697L33.0167 28.2584L32.9737 28.2475L32.9306 28.237L32.8876 28.2271L32.8447 28.2175L32.8017 28.2085L32.7588 28.1999L32.7161 28.1917L32.6733 28.1841L32.6303 28.1769L32.5878 28.1702L32.5448 28.1639L32.5025 28.1581L32.4597 28.1526L32.4172 28.1477L32.375 28.1432L32.3326 28.1392L32.2904 28.1356L32.2482 28.1324L32.2061 28.1297L32.164 28.1274L32.1221 28.1256L32.0806 28.1242L32.0388 28.1231L31.9973 28.1226L31.9558 28.1225L31.9145 28.1229L31.8733 28.1236L31.8323 28.1246L31.7914 28.1263L31.7508 28.1282L31.71 28.1306L31.6697 28.1334L31.6294 28.1365L31.5893 28.1402L31.5494 28.1441L31.5094 28.1485L31.4699 28.1533L31.4305 28.1585L31.3913 28.164L31.3521 28.1701L31.3133 28.1763L31.2746 28.183L31.2363 28.1901L31.1978 28.1976L31.1599 28.2054L31.1219 28.2136L31.0844 28.2221Z" fill="white"/>
</svg>
