<svg width="211" height="56" viewBox="0 0 211 56" fill="none" xmlns="http://www.w3.org/2000/svg">
<g clip-path="url(#clip0_137_128)">
<path fill-rule="evenodd" clip-rule="evenodd" d="M0.438477 6.16461L4.12723 4.56935C17.8402 -1.36101 33.4174 -1.36101 47.1303 4.56935L50.8191 6.16461V30.8159C50.8191 44.6376 39.541 55.8426 25.6288 55.8426C11.7165 55.8426 0.438477 44.6376 0.438477 30.8159V6.16461ZM8.41956 11.3779V22.1658C9.27069 21.9611 10.1065 21.6907 10.9192 21.3563C12.9769 20.5095 14.8465 19.2684 16.4214 17.7037C17.9963 16.1391 19.2455 14.2816 20.0978 12.2373C20.6305 10.9597 21.0016 9.62477 21.2051 8.26302C16.8517 8.68174 12.5443 9.72006 8.41956 11.3779ZM8.42101 31.0415C9.27164 31.2462 10.107 31.5164 10.9192 31.8507C12.9769 32.6975 14.8465 33.9386 16.4214 35.5032C17.9963 37.0678 19.2455 38.9253 20.0978 40.9696C20.9467 43.0055 21.3852 45.1869 21.3888 47.3904C14.005 45.5317 8.52371 38.9309 8.42101 31.0415ZM25.3794 33.973C24.425 32.5051 23.3147 31.138 22.0649 29.8964C20.8151 28.6548 19.4391 27.5517 17.9616 26.6035C19.4391 25.6553 20.8151 24.5522 22.0649 23.3105C23.3147 22.0689 24.425 20.7019 25.3794 19.2339C26.3338 20.7019 27.4441 22.0689 28.6939 23.3105C29.9436 24.5522 31.3196 25.6553 32.7971 26.6035C31.3196 27.5517 29.9436 28.6548 28.6939 29.8964C27.4441 31.138 26.3338 32.5051 25.3794 33.973ZM29.3699 47.5081C37.0398 45.8189 42.7846 39.0451 42.8377 30.9291C41.8142 31.1431 40.8104 31.4511 39.8395 31.8507C37.7818 32.6975 35.9122 33.9386 34.3373 35.5032C32.7625 37.0678 31.5132 38.9253 30.6609 40.9696C29.8086 43.0138 29.3699 45.2049 29.3699 47.4176V47.5081ZM39.8395 21.3563C40.8105 21.7559 41.8144 22.064 42.838 22.2779V11.3779C38.5536 9.65589 34.0723 8.60229 29.5469 8.21718C29.7488 9.59483 30.1222 10.9454 30.6609 12.2373C31.5132 14.2816 32.7625 16.1391 34.3373 17.7037C35.9122 19.2684 37.7818 20.5095 39.8395 21.3563Z" fill="white"/>
<path fill-rule="evenodd" clip-rule="evenodd" d="M110.751 50.9242C109.554 50.9242 108.476 50.6388 107.519 50.0679C106.561 49.4809 105.803 48.688 105.244 47.6889C104.701 46.674 104.43 45.5322 104.43 44.2635C104.43 42.979 104.701 41.8372 105.244 40.8381C105.803 39.839 106.553 39.054 107.495 38.4831C108.452 37.8963 109.538 37.603 110.751 37.603C111.852 37.603 112.834 37.8408 113.696 38.3166C114.402 38.7061 114.984 39.2071 115.444 39.8198V32.6313H117.24V50.6388H115.444V48.5609C115.014 49.2363 114.439 49.7784 113.72 50.1868C112.842 50.6784 111.852 50.9242 110.751 50.9242ZM110.847 49.14C111.709 49.14 112.483 48.9259 113.169 48.4977C113.872 48.0695 114.422 47.4907 114.821 46.7612C115.236 46.0158 115.444 45.1833 115.444 44.2635C115.444 43.3437 115.236 42.5191 114.821 41.7896C114.422 41.0442 113.872 40.4575 113.169 40.0293C112.483 39.6011 111.709 39.387 110.847 39.387C110.001 39.387 109.235 39.6011 108.548 40.0293C107.862 40.4575 107.319 41.0363 106.92 41.7658C106.537 42.4953 106.345 43.3278 106.345 44.2635C106.345 45.1833 106.537 46.0158 106.92 46.7612C107.319 47.4907 107.854 48.0695 108.524 48.4977C109.211 48.9259 109.985 49.14 110.847 49.14Z" fill="#B8BBC4"/>
<path fill-rule="evenodd" clip-rule="evenodd" d="M122.795 50.0679C123.768 50.6388 124.854 50.9243 126.051 50.9243C126.929 50.9243 127.727 50.7816 128.445 50.4961C129.179 50.1948 129.81 49.8063 130.337 49.3303C130.863 48.8387 131.254 48.3075 131.51 47.7365L129.977 46.9278C129.578 47.5938 129.06 48.1489 128.421 48.5929C127.783 49.0369 126.993 49.259 126.051 49.259C125.237 49.259 124.471 49.0528 123.752 48.6405C123.05 48.2282 122.491 47.6493 122.076 46.904C121.754 46.289 121.588 45.5913 121.578 44.8107H131.677C131.709 44.6045 131.733 44.4063 131.749 44.216C131.765 44.0098 131.773 43.8275 131.773 43.6689C131.773 42.9077 131.638 42.1702 131.366 41.4566C131.095 40.7271 130.704 40.0769 130.193 39.506C129.682 38.9193 129.06 38.4594 128.325 38.1264C127.607 37.7775 126.785 37.603 125.859 37.603C124.694 37.603 123.641 37.8885 122.699 38.4594C121.773 39.0303 121.039 39.8153 120.496 40.8144C119.953 41.7976 119.682 42.9315 119.682 44.216C119.682 45.5005 119.961 46.6502 120.52 47.6652C121.079 48.6801 121.837 49.481 122.795 50.0679ZM121.606 43.1455C121.666 42.5832 121.814 42.0757 122.052 41.6231C122.435 40.8778 122.962 40.299 123.633 39.8866C124.319 39.4743 125.061 39.2682 125.859 39.2682C126.657 39.2682 127.376 39.4743 128.014 39.8866C128.653 40.2831 129.139 40.8302 129.475 41.528C129.727 42.0181 129.851 42.5572 129.848 43.1455H121.606Z" fill="#B8BBC4"/>
<path d="M134.221 37.8885H136.017V39.4417C136.344 38.9398 136.767 38.5331 137.286 38.2215C137.988 37.8092 138.754 37.603 139.584 37.603C140.574 37.603 141.468 37.8805 142.266 38.4356C142.883 38.8647 143.362 39.3932 143.702 40.0212C144.031 39.3305 144.502 38.7861 145.115 38.388C145.913 37.8647 146.791 37.603 147.749 37.603C148.611 37.603 149.401 37.8092 150.119 38.2215C150.854 38.6338 151.436 39.2047 151.867 39.9342C152.314 40.6478 152.538 41.4566 152.538 42.3605V50.6388H150.742V43.0504C150.742 42.2733 150.598 41.6152 150.311 41.076C150.039 40.5368 149.664 40.1245 149.185 39.8391C148.707 39.5378 148.156 39.3871 147.533 39.3871C146.927 39.3871 146.376 39.5378 145.881 39.8391C145.386 40.1245 144.995 40.5448 144.708 41.0998C144.421 41.639 144.277 42.2892 144.277 43.0504V50.6388H142.481V43.0504C142.481 42.2733 142.338 41.6152 142.05 41.076C141.779 40.5368 141.404 40.1245 140.925 39.8391C140.446 39.5378 139.895 39.3871 139.273 39.3871C138.65 39.3871 138.092 39.5378 137.597 39.8391C137.118 40.1245 136.735 40.5448 136.448 41.0998C136.16 41.639 136.017 42.2892 136.017 43.0504V50.6388H134.221V37.8885Z" fill="#B8BBC4"/>
<path d="M155.277 55.8723C155.022 55.8723 154.759 55.8485 154.487 55.8009C154.232 55.7692 153.977 55.7058 153.721 55.6106V53.9455C153.881 53.9614 154.08 53.9852 154.32 54.0169C154.575 54.0644 154.831 54.0882 155.086 54.0882C155.868 54.0882 156.467 53.9217 156.882 53.5887C157.297 53.2715 157.704 52.653 158.103 51.7333L158.567 50.6484L153.434 37.8887H155.373L159.575 48.4136L163.753 37.8887H165.741L159.875 52.2566C159.619 52.8751 159.292 53.4618 158.893 54.0169C158.51 54.5719 158.023 55.0159 157.432 55.349C156.842 55.6979 156.123 55.8723 155.277 55.8723Z" fill="#B8BBC4"/>
<path fill-rule="evenodd" clip-rule="evenodd" d="M93.5054 50.4723C94.1439 50.7736 94.8702 50.9243 95.6847 50.9243C96.435 50.9243 97.1213 50.8133 97.7434 50.5913C98.3818 50.3534 98.9325 50.0441 99.3954 49.6635C99.7162 49.3979 99.9796 49.1147 100.186 48.8137V50.6388H101.982V41.8848C101.982 41.0443 101.774 40.3069 101.359 39.6725C100.96 39.0224 100.393 38.5149 99.6593 38.1501C98.9405 37.7854 98.111 37.603 97.1687 37.603C96.4509 37.603 95.7561 37.7378 95.0857 38.0074C94.4152 38.2612 93.8167 38.61 93.2899 39.0541C92.7796 39.4981 92.404 39.9897 92.1646 40.5289L93.7932 41.409C94.08 40.7906 94.519 40.291 95.1101 39.9104C95.7002 39.514 96.3866 39.3157 97.1687 39.3157C98.0626 39.3157 98.7894 39.5536 99.3481 40.0294C99.9062 40.5051 100.186 41.1236 100.186 41.8848V42.5429L95.5406 43.3121C94.5988 43.4706 93.8246 43.7402 93.2186 44.1208C92.6115 44.5014 92.1646 44.9693 91.8773 45.5243C91.5904 46.0635 91.4468 46.6661 91.4468 47.3322C91.4468 48.0299 91.6298 48.6484 91.997 49.1876C92.3646 49.727 92.8669 50.1552 93.5054 50.4723ZM100.186 44.1605V45.1199C100.186 45.897 100.003 46.6027 99.6349 47.237C99.2677 47.8713 98.757 48.3788 98.103 48.7594C97.4486 49.1242 96.6824 49.3065 95.804 49.3065C95.0857 49.3065 94.4951 49.1083 94.0322 48.7118C93.5857 48.3154 93.3622 47.8317 93.3622 47.2608C93.3622 46.674 93.5618 46.1666 93.9603 45.7384C94.3753 45.3102 95.0457 45.0168 95.9716 44.8582L100.186 44.1605Z" fill="#B8BBC4"/>
<path d="M84.4348 50.9243C83.1738 50.9243 82.0645 50.6309 81.1067 50.0441C80.149 49.4572 79.3988 48.6643 78.8561 47.6652C78.3134 46.6502 78.042 45.5084 78.042 44.2398C78.042 42.9711 78.3134 41.8372 78.8561 40.8381C79.3988 39.8391 80.149 39.0541 81.1067 38.4832C82.0645 37.8964 83.1738 37.603 84.4348 37.603C85.233 37.603 85.9832 37.7458 86.6855 38.0312C87.3878 38.3167 88.0104 38.7052 88.5531 39.1968C89.0958 39.6725 89.5028 40.2276 89.7742 40.8619L88.1461 41.6945C87.8268 41.0126 87.34 40.4575 86.6855 40.0294C86.0311 39.6012 85.2808 39.3871 84.4348 39.3871C83.5889 39.3871 82.8227 39.6012 82.1363 40.0294C81.4659 40.4417 80.9311 41.0205 80.5321 41.7659C80.149 42.4953 79.9575 43.3279 79.9575 44.2636C79.9575 45.1833 80.149 46.0159 80.5321 46.7613C80.9311 47.4907 81.4659 48.0696 82.1363 48.4978C82.8227 48.9259 83.5889 49.14 84.4348 49.14C85.2808 49.14 86.0231 48.9259 86.6616 48.4978C87.316 48.0696 87.8108 47.4987 88.1461 46.785L89.7742 47.6652C89.5028 48.2837 89.0958 48.8387 88.5531 49.3303C88.0104 49.8221 87.3878 50.2107 86.6855 50.4961C85.9832 50.7816 85.233 50.9243 84.4348 50.9243Z" fill="#B8BBC4"/>
<path fill-rule="evenodd" clip-rule="evenodd" d="M69.0677 32.917L62.5552 50.639H64.5664L66.1227 46.3094H74.0958L75.6282 50.639H77.6394L71.1269 32.917H69.0677ZM73.4254 44.5253H66.7453L70.0963 35.1507L73.4254 44.5253Z" fill="#B8BBC4"/>
<path d="M64.178 4.21191V25.3645H77.6101V21.5314H68.6075V4.21191H64.178Z" fill="white"/>
<path d="M131.825 25.3642H136.112V9.86182H131.825V25.3642Z" fill="white"/>
<path d="M131.825 4.21191V8.47085H136.112V4.21191H131.825Z" fill="white"/>
<path fill-rule="evenodd" clip-rule="evenodd" d="M138.391 31.0426V9.8617H142.392V11.4699C142.855 10.9295 143.426 10.4975 144.107 10.174C145.002 9.73865 146.022 9.521 147.165 9.521C148.651 9.521 149.994 9.88064 151.194 10.5999C152.394 11.3192 153.347 12.294 154.052 13.5244C154.757 14.7358 155.11 16.0986 155.11 17.6129C155.11 19.1082 154.757 20.4711 154.052 21.7014C153.366 22.9318 152.423 23.9066 151.223 24.6259C150.023 25.3452 148.66 25.7048 147.136 25.7048C146.069 25.7048 145.078 25.5155 144.164 25.137C143.601 24.887 143.105 24.5658 142.678 24.1736V31.0426H138.391ZM146.622 21.8718C147.422 21.8718 148.127 21.692 148.737 21.3323C149.346 20.9727 149.823 20.4711 150.165 19.8275C150.508 19.184 150.679 18.4458 150.679 17.6129C150.679 16.78 150.508 16.0513 150.165 15.4267C149.823 14.7831 149.346 14.2815 148.737 13.9219C148.127 13.5433 147.422 13.354 146.622 13.354C145.859 13.354 145.174 13.5338 144.564 13.8935C143.973 14.2531 143.507 14.7547 143.164 15.3983C142.84 16.0418 142.678 16.78 142.678 17.6129C142.678 18.4458 142.84 19.184 143.164 19.8275C143.507 20.4711 143.973 20.9727 144.564 21.3323C145.174 21.692 145.859 21.8718 146.622 21.8718Z" fill="white"/>
<path d="M158.392 24.5123C159.668 25.3073 161.164 25.7048 162.879 25.7048C164.098 25.7048 165.155 25.5061 166.051 25.1086C166.946 24.6921 167.642 24.1243 168.137 23.405C168.651 22.6857 168.909 21.8434 168.909 20.878C168.909 19.7613 168.566 18.8243 167.88 18.0672C167.194 17.2911 166.203 16.7138 164.908 16.3352L162.421 15.597C162.04 15.4835 161.716 15.3604 161.449 15.2279C161.202 15.0954 161.021 14.944 160.907 14.7736C160.793 14.6033 160.735 14.414 160.735 14.2058C160.735 13.8083 160.887 13.496 161.193 13.2688C161.516 13.0417 161.954 12.9281 162.507 12.9281C163.269 12.9281 163.946 13.1269 164.536 13.5244C165.146 13.9029 165.565 14.414 165.794 15.0576L168.966 13.5811C168.489 12.294 167.67 11.3003 166.508 10.5999C165.365 9.88064 164.031 9.521 162.507 9.521C161.345 9.521 160.316 9.72919 159.42 10.1456C158.525 10.5431 157.83 11.1015 157.334 11.8208C156.839 12.5401 156.591 13.3824 156.591 14.3477C156.591 15.4456 156.934 16.4015 157.62 17.2154C158.306 18.0104 159.287 18.5877 160.564 18.9474L163.221 19.6855C163.564 19.7802 163.85 19.8938 164.079 20.0262C164.307 20.1588 164.479 20.3102 164.593 20.4805C164.708 20.632 164.765 20.8213 164.765 21.0484C164.765 21.4838 164.603 21.8245 164.279 22.0705C163.955 22.3166 163.488 22.4396 162.879 22.4396C162.04 22.4396 161.278 22.2031 160.592 21.7298C159.906 21.2566 159.363 20.6036 158.963 19.7707L155.82 21.2471C156.277 22.61 157.134 23.6984 158.392 24.5123Z" fill="white"/>
<path d="M186.864 9.8617H190.865V11.7344C191.158 11.1678 191.567 10.7139 192.094 10.3727C192.97 9.80491 194.018 9.521 195.237 9.521C196.533 9.521 197.667 9.85224 198.638 10.5147C199.216 10.8901 199.667 11.3428 199.993 11.8728C200.406 11.2731 200.898 10.792 201.468 10.4295C202.42 9.82384 203.535 9.521 204.811 9.521C205.935 9.521 206.926 9.76705 207.783 10.2592C208.66 10.7513 209.345 11.4422 209.841 12.3318C210.336 13.2026 210.584 14.2247 210.584 15.3983V25.3641H206.297V16.3068C206.297 15.7011 206.183 15.1806 205.955 14.7453C205.745 14.3099 205.44 13.9692 205.04 13.7231C204.64 13.477 204.154 13.354 203.582 13.354C203.03 13.354 202.544 13.477 202.125 13.7231C201.725 13.9692 201.41 14.3099 201.182 14.7453C200.972 15.1806 200.868 15.7011 200.868 16.3068V25.3641H196.581V16.3068C196.581 15.7011 196.467 15.1806 196.238 14.7453C196.028 14.3099 195.723 13.9692 195.323 13.7231C194.923 13.477 194.437 13.354 193.866 13.354C193.313 13.354 192.827 13.477 192.408 13.7231C192.008 13.9692 191.694 14.3099 191.465 14.7453C191.255 15.1806 191.151 15.7011 191.151 16.3068V25.3641H186.864V9.8617Z" fill="white"/>
<path d="M176.214 25.7049C174.957 25.7049 173.88 25.4399 172.985 24.91C172.109 24.361 171.442 23.6039 170.985 22.6385C170.527 21.6732 170.299 20.5469 170.299 19.2598V9.86182H174.586V18.919C174.586 19.5059 174.7 20.0264 174.928 20.4807C175.176 20.916 175.519 21.2567 175.957 21.5028C176.395 21.7489 176.891 21.8719 177.443 21.8719C178.015 21.8719 178.51 21.7489 178.929 21.5028C179.368 21.2567 179.701 20.916 179.93 20.4807C180.177 20.0264 180.301 19.5059 180.301 18.919V9.86182H184.588V25.3642H180.587V23.4777C180.223 24.1584 179.709 24.6831 179.044 25.0519C178.244 25.4873 177.3 25.7049 176.214 25.7049Z" fill="white"/>
<path fill-rule="evenodd" clip-rule="evenodd" d="M121.812 25.7048C120.269 25.7048 118.858 25.3546 117.582 24.6543C116.324 23.9539 115.315 22.9981 114.553 21.7866C113.81 20.5563 113.438 19.165 113.438 17.6129C113.438 16.0418 113.81 14.6506 114.553 13.4392C115.315 12.2277 116.324 11.2719 117.582 10.5715C118.858 9.87117 120.269 9.521 121.812 9.521C123.355 9.521 124.755 9.87117 126.013 10.5715C127.27 11.2719 128.271 12.2277 129.013 13.4392C129.776 14.6506 130.157 16.0418 130.157 17.6129C130.157 19.165 129.776 20.5563 129.013 21.7866C128.271 22.9981 127.27 23.9539 126.013 24.6543C124.755 25.3546 123.355 25.7048 121.812 25.7048ZM121.812 21.8718C122.593 21.8718 123.269 21.692 123.841 21.3323C124.431 20.9727 124.889 20.4711 125.212 19.8275C125.556 19.184 125.727 18.4458 125.727 17.6129C125.727 16.78 125.556 16.0513 125.212 15.4267C124.889 14.7831 124.431 14.2815 123.841 13.9219C123.269 13.5433 122.593 13.354 121.812 13.354C121.031 13.354 120.345 13.5433 119.754 13.9219C119.163 14.2815 118.697 14.7831 118.354 15.4267C118.03 16.0513 117.868 16.78 117.868 17.6129C117.868 18.4458 118.03 19.184 118.354 19.8275C118.697 20.4711 119.163 20.9727 119.754 21.3323C120.345 21.692 121.031 21.8718 121.812 21.8718Z" fill="white"/>
<path fill-rule="evenodd" clip-rule="evenodd" d="M100.708 31.0142C101.737 31.4117 102.852 31.6105 104.052 31.6105C105.557 31.6105 106.881 31.3076 108.025 30.7019C109.187 30.0962 110.101 29.2539 110.768 28.175C111.435 27.115 111.768 25.9036 111.768 24.5407V9.8617H107.767V11.4899C107.296 10.9412 106.763 10.5119 106.167 10.2024C105.329 9.74812 104.347 9.521 103.223 9.521C101.794 9.521 100.518 9.84277 99.3936 10.4863C98.2697 11.1299 97.3838 12.0195 96.7359 13.1552C96.0879 14.272 95.7642 15.5591 95.7642 17.0166C95.7642 18.4742 96.0879 19.7802 96.7359 20.9348C97.3838 22.0705 98.2792 22.9696 99.4225 23.6322C100.565 24.2757 101.861 24.5975 103.309 24.5975C104.433 24.5975 105.414 24.3893 106.252 23.9729C106.707 23.7369 107.117 23.4369 107.481 23.073V24.5407C107.481 25.2032 107.339 25.7805 107.053 26.2727C106.786 26.7648 106.395 27.1339 105.881 27.38C105.366 27.645 104.757 27.7775 104.052 27.7775C103.157 27.7775 102.385 27.5693 101.737 27.1528C101.09 26.7364 100.661 26.1686 100.451 25.4493L96.4785 26.8405C96.8027 27.8059 97.3265 28.6387 98.0507 29.339C98.7935 30.0584 99.6794 30.6167 100.708 31.0142ZM105.795 20.2818C105.262 20.5847 104.633 20.7361 103.909 20.7361C103.185 20.7361 102.537 20.5847 101.966 20.2818C101.413 19.96 100.975 19.5247 100.651 18.9757C100.346 18.4268 100.194 17.7927 100.194 17.0734C100.194 16.3352 100.346 15.6917 100.651 15.1428C100.975 14.5749 101.413 14.1395 101.966 13.8367C102.537 13.5149 103.185 13.354 103.909 13.354C104.614 13.354 105.233 13.5149 105.766 13.8367C106.3 14.1395 106.719 14.5749 107.024 15.1428C107.329 15.6917 107.481 16.3352 107.481 17.0734C107.481 17.8116 107.329 18.4552 107.024 19.0041C106.738 19.5531 106.329 19.979 105.795 20.2818Z" fill="white"/>
<path fill-rule="evenodd" clip-rule="evenodd" d="M86.3798 25.7048C84.8364 25.7048 83.4268 25.3546 82.1503 24.6543C80.8928 23.9539 79.8831 22.9981 79.121 21.7866C78.3777 20.5563 78.0066 19.165 78.0066 17.6129C78.0066 16.0418 78.3777 14.6506 79.121 13.4392C79.8831 12.2277 80.8928 11.2719 82.1503 10.5715C83.4268 9.87117 84.8364 9.521 86.3798 9.521C87.9231 9.521 89.3233 9.87117 90.5808 10.5715C91.8383 11.2719 92.8384 12.2277 93.5817 13.4392C94.3439 14.6506 94.725 16.0418 94.725 17.6129C94.725 19.165 94.3439 20.5563 93.5817 21.7866C92.8384 22.9981 91.8383 23.9539 90.5808 24.6543C89.3233 25.3546 87.9231 25.7048 86.3798 25.7048ZM86.3798 21.8718C87.1609 21.8718 87.8373 21.692 88.4089 21.3323C88.9995 20.9727 89.457 20.4711 89.7807 19.8275C90.1239 19.184 90.295 18.4458 90.295 17.6129C90.295 16.78 90.1239 16.0513 89.7807 15.4267C89.457 14.7831 88.9995 14.2815 88.4089 13.9219C87.8373 13.5433 87.1609 13.354 86.3798 13.354C85.5986 13.354 84.9127 13.5433 84.3221 13.9219C83.7315 14.2815 83.2646 14.7831 82.9219 15.4267C82.5982 16.0513 82.4361 16.78 82.4361 17.6129C82.4361 18.4458 82.5982 19.184 82.9219 19.8275C83.2646 20.4711 83.7315 20.9727 84.3221 21.3323C84.9127 21.692 85.5986 21.8718 86.3798 21.8718Z" fill="white"/>
</g>
<defs>
<clipPath id="clip0_137_128">
<rect width="211" height="56" fill="white"/>
</clipPath>
</defs>
</svg>
