<svg width="211" height="55" viewBox="0 0 211 55" fill="none" xmlns="http://www.w3.org/2000/svg">
<g clip-path="url(#clip0_137_98)">
<path fill-rule="evenodd" clip-rule="evenodd" d="M32.3257 11.7358C30.4228 11.7358 28.5385 12.1068 26.7804 12.8275C25.0224 13.5482 23.425 14.6045 22.0795 15.9362C20.7339 17.2679 19.6665 18.8488 18.9383 20.5887C18.2907 22.1361 17.9226 23.7824 17.849 25.4525C17.8322 25.8348 17.6172 26.1847 17.2722 26.3554L12.6023 28.6663C12.2572 28.8371 12.0361 29.1869 12.0529 29.5692C12.1264 31.2393 12.4945 32.8856 13.1422 34.433C13.8704 36.1729 14.9378 37.7538 16.2833 39.0855C17.6288 40.4172 19.2263 41.4735 20.9843 42.1942C22.7424 42.9149 24.6266 43.2859 26.5295 43.2859C28.4325 43.2859 30.3167 42.9149 32.0748 42.1942C33.8328 41.4735 35.4302 40.4172 36.7757 39.0855C38.1213 37.7538 39.1887 36.1729 39.9169 34.433C40.5645 32.8856 40.9326 31.2393 41.0062 29.5692C41.023 29.1869 41.238 28.8371 41.583 28.6663L46.2529 26.3554C46.598 26.1847 46.8191 25.8348 46.8023 25.4525C46.7288 23.7824 46.3607 22.1361 45.713 20.5887C44.9848 18.8488 43.9175 17.2679 42.5719 15.9362C41.2264 14.6045 39.629 13.5482 37.8709 12.8275C36.1128 12.1068 34.2286 11.7358 32.3257 11.7358ZM39.0194 23.3328C39.3028 24.01 39.4792 24.7252 39.5434 25.4531C39.577 25.8343 39.3528 26.1847 39.0077 26.3554L34.3379 28.6663C33.9928 28.8371 33.7809 29.1874 33.7473 29.5686C33.683 30.2965 33.5067 31.0117 33.2232 31.6889C32.8591 32.5589 32.3254 33.3494 31.6527 34.0152C30.9799 34.681 30.1812 35.2092 29.3021 35.5696C28.4231 35.9299 27.481 36.1154 26.5295 36.1154C25.5781 36.1154 24.636 35.9299 23.7569 35.5696C22.8779 35.2092 22.0792 34.681 21.4064 34.0152C20.7336 33.3494 20.2 32.5589 19.8359 31.6889C19.5524 31.0117 19.376 30.2965 19.3118 29.5686C19.2782 29.1874 19.5024 28.8371 19.8475 28.6663L24.5174 26.3554C24.8624 26.1847 25.0743 25.8343 25.108 25.4531C25.1722 24.7252 25.3485 24.01 25.632 23.3328C25.9961 22.4628 26.5298 21.6723 27.2025 21.0065C27.8754 20.3407 28.6741 19.8125 29.5531 19.4521C30.4321 19.0918 31.3742 18.9063 32.3257 18.9063C33.2771 18.9063 34.2193 19.0918 35.0983 19.4521C35.9773 19.8125 36.776 20.3407 37.4488 21.0065C38.1216 21.6723 38.6553 22.4628 39.0194 23.3328Z" fill="#E22935"/>
<path fill-rule="evenodd" clip-rule="evenodd" d="M32.3255 0.263184C28.9003 0.263184 25.5086 0.930871 22.3441 2.22813C19.1796 3.52538 16.3043 5.42682 13.8823 7.82381C11.4603 10.2209 9.53913 13.0665 8.22833 16.1983C6.99808 19.1378 6.32821 22.2753 6.25052 25.4524C6.24117 25.8349 6.02483 26.1847 5.67976 26.3554L1.00987 28.6663C0.664821 28.8371 0.445037 29.1869 0.454389 29.5694C0.532064 32.7465 1.20194 35.884 2.43218 38.8234C3.74295 41.9553 5.6642 44.801 8.08617 47.198C10.5082 49.595 13.3835 51.4966 16.548 52.7934C19.7125 54.0907 23.1042 54.7588 26.5294 54.7588C29.9546 54.7588 33.3463 54.0907 36.5108 52.7934C39.6753 51.4966 42.5506 49.595 44.9726 47.198C47.3946 44.801 49.3159 41.9553 50.6266 38.8234C51.8571 35.884 52.5267 32.7465 52.6045 29.5694C52.6136 29.1869 52.8302 28.8371 53.1749 28.6663L57.8449 26.3554C58.1901 26.1847 58.4098 25.8349 58.4006 25.4524C58.3228 22.2753 57.6532 19.1378 56.4228 16.1983C55.1121 13.0665 53.1907 10.2209 50.7688 7.82381C48.3468 5.42682 45.4715 3.52539 42.307 2.22813C39.1425 0.930876 35.7508 0.263184 32.3255 0.263184ZM45.3563 29.5694C45.3693 29.1869 45.5849 28.8371 45.93 28.6663L50.5999 26.3554C50.945 26.1847 51.1656 25.8349 51.1524 25.4524C51.0766 23.2172 50.5952 21.0118 49.7291 18.9424C48.7824 16.6805 47.3949 14.6252 45.6456 12.8941C43.8964 11.1629 41.8198 9.78969 39.5343 8.85277C37.2489 7.91585 34.7993 7.43362 32.3255 7.43362C29.8518 7.43362 27.4022 7.91585 25.1168 8.85277C22.8313 9.78969 20.7547 11.1629 19.0054 12.8941C17.2562 14.6252 15.8687 16.6805 14.922 18.9424C14.0559 21.0118 13.5743 23.2172 13.4987 25.4524C13.4857 25.8349 13.27 26.1847 12.9249 26.3554L8.25508 28.6663C7.91 28.8371 7.68954 29.1869 7.70251 29.5694C7.77816 31.8046 8.25975 34.01 9.12587 36.0794C10.0725 38.3413 11.4601 40.3965 13.2093 42.1277C14.9585 43.8589 17.0352 45.2321 19.3206 46.169C21.6061 47.1059 24.0556 47.5882 26.5294 47.5882C29.0032 47.5882 31.4527 47.1059 33.7382 46.169C36.0236 45.2321 38.1003 43.8589 39.8495 42.1277C41.5987 40.3965 42.9863 38.3413 43.933 36.0794C44.7991 34.01 45.2806 31.8046 45.3563 29.5694Z" fill="#E22935"/>
<path d="M135.621 8.75424C134.848 8.75424 134.195 8.48933 133.662 7.95952C133.128 7.4297 132.861 6.78635 132.861 6.02947C132.861 5.25367 133.128 4.60561 133.662 4.08525C134.195 3.55544 134.848 3.29053 135.621 3.29053C136.393 3.29053 137.041 3.55544 137.565 4.08525C138.099 4.60561 138.366 5.25367 138.366 6.02947C138.366 6.78635 138.099 7.4297 137.565 7.95952C137.041 8.48933 136.393 8.75424 135.621 8.75424Z" fill="white"/>
<path d="M133.347 25.7701V10.5H137.866V25.7701H133.347Z" fill="white"/>
<path fill-rule="evenodd" clip-rule="evenodd" d="M140.415 30.2631V10.5001H144.705V12.0186H144.761C145.031 11.7543 145.322 11.5131 145.634 11.2948C146.645 10.5947 147.808 10.2446 149.123 10.2446C150.277 10.2446 151.378 10.5426 152.427 11.1387C153.485 11.7347 154.343 12.6193 155 13.7925C155.658 14.9656 155.978 16.4274 155.959 18.1776C155.968 19.5022 155.782 20.6564 155.401 21.6404C155.02 22.6149 154.505 23.4238 153.857 24.0671C153.208 24.7105 152.484 25.193 151.683 25.5147C150.882 25.8364 150.072 25.9972 149.252 25.9972C147.956 25.9972 146.792 25.6377 145.763 24.9186C145.504 24.7353 145.258 24.5366 145.026 24.3226H144.933V27.7005L140.415 30.2631ZM148.194 22.2506C148.861 22.2412 149.447 22.0661 149.953 21.7256C150.458 21.385 150.854 20.9024 151.139 20.278C151.426 19.6536 151.564 18.9251 151.554 18.0925C151.564 17.241 151.421 16.5125 151.125 15.907C150.839 15.2921 150.434 14.8238 149.91 14.5021C149.385 14.1709 148.785 14.0101 148.108 14.0195C147.47 14.0101 146.898 14.1662 146.392 14.4879C145.887 14.8095 145.487 15.2779 145.191 15.8928C144.895 16.4983 144.748 17.2315 144.748 18.0925C144.748 18.9251 144.895 19.6536 145.191 20.278C145.496 20.9024 145.906 21.385 146.421 21.7256C146.936 22.0661 147.526 22.2412 148.194 22.2506Z" fill="white"/>
<path d="M162.941 25.9971C162.026 25.9971 161.148 25.841 160.31 25.5288C159.48 25.2166 158.746 24.7767 158.108 24.209C157.469 23.6319 156.987 22.9601 156.664 22.1938L160.21 20.6469C160.448 21.0916 160.805 21.5126 161.282 21.91C161.759 22.3074 162.321 22.506 162.97 22.506C163.313 22.506 163.613 22.4492 163.871 22.3357C164.128 22.2127 164.328 22.0566 164.471 21.8674C164.624 21.6782 164.7 21.4748 164.7 21.2572C164.7 20.9828 164.59 20.7463 164.371 20.5476C164.152 20.3489 163.871 20.1786 163.527 20.0367C163.184 19.8948 162.822 19.7718 162.44 19.6677C162.069 19.5637 161.726 19.469 161.411 19.3839C160.686 19.1663 160 18.8682 159.352 18.4898C158.713 18.1019 158.193 17.6099 157.793 17.0139C157.393 16.4179 157.192 15.6941 157.192 14.8426C157.192 13.9438 157.426 13.1538 157.893 12.4726C158.37 11.782 159.013 11.2427 159.823 10.8548C160.644 10.4669 161.578 10.2729 162.626 10.2729C163.932 10.2729 165.105 10.571 166.144 11.167C167.193 11.763 167.936 12.553 168.375 13.537L164.9 15.0271C164.719 14.7243 164.452 14.4311 164.099 14.1472C163.756 13.8634 163.317 13.7214 162.784 13.7214C162.336 13.7214 161.964 13.835 161.668 14.062C161.373 14.2891 161.225 14.5729 161.225 14.9135C161.225 15.2541 161.373 15.5285 161.668 15.7367C161.964 15.9448 162.34 16.1245 162.798 16.2759C163.255 16.4273 163.732 16.574 164.228 16.7159C164.609 16.82 165.053 16.9713 165.558 17.17C166.063 17.3592 166.554 17.6194 167.031 17.9505C167.517 18.2817 167.917 18.7074 168.232 19.2278C168.556 19.7481 168.718 20.3867 168.718 21.1436C168.718 22.0992 168.451 22.946 167.917 23.6839C167.393 24.4124 166.692 24.98 165.815 25.3869C164.947 25.7937 163.99 25.9971 162.941 25.9971Z" fill="white"/>
<path d="M187.087 25.7701V10.5H191.391V12.4442H191.47C191.806 11.9797 192.185 11.587 192.606 11.2663C193.465 10.6041 194.48 10.2729 195.652 10.2729C196.625 10.2729 197.449 10.5094 198.127 10.9825C198.649 11.3352 199.074 11.8082 199.403 12.4017H199.484C199.971 11.7853 200.563 11.3028 201.258 10.9541C202.163 10.5 203.15 10.2729 204.218 10.2729C205.238 10.2729 206.077 10.4527 206.735 10.8122C207.393 11.1623 207.907 11.6258 208.279 12.203C208.651 12.7707 208.913 13.3951 209.065 14.0763C209.218 14.748 209.294 15.4008 209.294 16.0347V25.7701H204.747V16.5882C204.747 15.7556 204.571 15.117 204.218 14.6723C203.875 14.2182 203.369 13.9911 202.702 13.9911C202.264 13.9911 201.873 14.0905 201.529 14.2891C201.196 14.4783 200.929 14.7669 200.729 15.1548C200.538 15.5427 200.443 16.0205 200.443 16.5882V25.7701H195.924V16.5882C195.924 15.7556 195.748 15.117 195.395 14.6723C195.042 14.2182 194.532 13.9911 193.865 13.9911C193.217 13.9911 192.678 14.2134 192.249 14.6581C191.82 15.0933 191.606 15.7461 191.606 16.6165V25.7701H187.087Z" fill="white"/>
<path d="M173.141 25.3301C174.008 25.7748 174.971 25.9971 176.029 25.9971C177.278 25.9971 178.384 25.6944 179.347 25.0889C179.834 24.7777 180.277 24.4229 180.677 24.0245H180.791C180.928 24.3349 181.128 24.6093 181.392 24.8476C181.916 25.3207 182.745 25.7038 183.88 25.9971L185.481 22.2506C184.986 22.0708 184.657 21.858 184.495 21.612C184.333 21.366 184.252 20.9686 184.252 20.4199V10.5H179.733V19.4974C179.733 20.0556 179.623 20.5381 179.404 20.945C179.194 21.3423 178.899 21.6498 178.517 21.8674C178.146 22.085 177.712 22.1938 177.216 22.1938C176.549 22.1938 175.982 21.9667 175.514 21.5126C175.057 21.049 174.828 20.3773 174.828 19.4974V10.5H170.31V20.0935C170.31 21.3802 170.562 22.4635 171.067 23.3433C171.582 24.2137 172.273 24.876 173.141 25.3301Z" fill="white"/>
<path fill-rule="evenodd" clip-rule="evenodd" d="M123.562 25.9971C122.084 25.9971 120.735 25.6612 119.515 24.9895C118.304 24.3178 117.337 23.3906 116.612 22.208C115.897 21.0253 115.54 19.663 115.54 18.1208C115.54 16.5787 115.897 15.2163 116.612 14.0337C117.337 12.851 118.304 11.9286 119.515 11.2663C120.735 10.6041 122.084 10.2729 123.562 10.2729C125.068 10.2729 126.427 10.6041 127.637 11.2663C128.848 11.9286 129.806 12.851 130.511 14.0337C131.227 15.2163 131.584 16.5787 131.584 18.1208C131.584 19.663 131.227 21.0253 130.511 22.208C129.806 23.3906 128.843 24.3178 127.623 24.9895C126.412 25.6612 125.058 25.9971 123.562 25.9971ZM123.562 22.1654C124.267 22.1654 124.901 21.9951 125.464 21.6545C126.026 21.3139 126.469 20.8409 126.794 20.2354C127.118 19.6299 127.28 18.925 127.28 18.1208C127.28 17.345 127.123 16.6544 126.808 16.0489C126.493 15.4434 126.06 14.9703 125.507 14.6297C124.954 14.2797 124.315 14.1046 123.591 14.1046C122.876 14.1046 122.232 14.2749 121.66 14.6155C121.098 14.9467 120.654 15.415 120.33 16.0205C120.006 16.626 119.844 17.3261 119.844 18.1208C119.844 18.925 120.006 19.6299 120.33 20.2354C120.664 20.8409 121.112 21.3139 121.674 21.6545C122.237 21.9951 122.866 22.1654 123.562 22.1654Z" fill="white"/>
<path fill-rule="evenodd" clip-rule="evenodd" d="M105.683 31.9576C104.406 31.9576 103.233 31.8015 102.166 31.4893C101.108 31.1865 100.273 30.8743 99.6631 30.5526L101.15 27.0331C101.684 27.3548 102.304 27.6292 103.009 27.8563C103.724 28.0928 104.448 28.211 105.183 28.211C105.812 28.211 106.465 28.107 107.142 27.8989C107.819 27.6907 108.395 27.3596 108.872 26.9054C109.349 26.4608 109.587 25.8742 109.587 25.1457V23.6698H109.519C109.239 23.9437 108.937 24.1944 108.615 24.4219C107.595 25.1315 106.431 25.4863 105.126 25.4863C104.315 25.4863 103.51 25.3349 102.709 25.0321C101.908 24.72 101.179 24.2516 100.521 23.6272C99.8725 22.9933 99.3534 22.2033 98.9624 21.2572C98.5715 20.3111 98.3762 19.1994 98.3762 17.9222C98.3762 16.2192 98.7098 14.8048 99.3768 13.6789C100.054 12.5436 100.921 11.6921 101.979 11.1245C103.038 10.5474 104.139 10.2588 105.283 10.2588C106.608 10.2588 107.766 10.5946 108.757 11.2664C109.076 11.4799 109.372 11.7165 109.645 11.976H109.73V10.4859H113.834V24.8903C113.834 26.0539 113.634 27.0757 113.234 27.9556C112.833 28.8355 112.266 29.5734 111.532 30.1695C110.807 30.7655 109.949 31.2102 108.958 31.5035C107.966 31.8062 106.875 31.9576 105.683 31.9576ZM106.241 21.8391C106.927 21.8391 107.533 21.6688 108.057 21.3282C108.582 20.9876 108.996 20.5145 109.301 19.909C109.606 19.294 109.759 18.5845 109.759 17.7803C109.759 16.9666 109.611 16.2712 109.315 15.6942C109.02 15.1076 108.615 14.6581 108.1 14.3459C107.585 14.0337 106.989 13.8776 106.312 13.8776C105.636 13.8776 105.03 14.0385 104.496 14.3601C103.962 14.6724 103.543 15.1217 103.238 15.7083C102.942 16.2949 102.795 16.9855 102.795 17.7803C102.795 18.575 102.942 19.2798 103.238 19.8948C103.533 20.5003 103.938 20.9781 104.454 21.3282C104.968 21.6688 105.564 21.8391 106.241 21.8391Z" fill="white"/>
<path fill-rule="evenodd" clip-rule="evenodd" d="M89.2061 25.9971C87.7281 25.9971 86.3793 25.6612 85.159 24.9895C83.9484 24.3178 82.9809 23.3906 82.2564 22.208C81.5415 21.0253 81.1841 19.663 81.1841 18.1208C81.1841 16.5787 81.5415 15.2163 82.2564 14.0337C82.9809 12.851 83.9484 11.9286 85.159 11.2663C86.3793 10.6041 87.7281 10.2729 89.2061 10.2729C90.7121 10.2729 92.0707 10.6041 93.2812 11.2663C94.4923 11.9286 95.4502 12.851 96.1554 14.0337C96.8708 15.2163 97.2282 16.5787 97.2282 18.1208C97.2282 19.663 96.8708 21.0253 96.1554 22.208C95.4502 23.3906 94.4872 24.3178 93.267 24.9895C92.0564 25.6612 90.7025 25.9971 89.2061 25.9971ZM89.2061 22.1654C89.9113 22.1654 90.5454 21.9951 91.1077 21.6545C91.6705 21.3139 92.1134 20.8409 92.4378 20.2354C92.7616 19.6299 92.9238 18.925 92.9238 18.1208C92.9238 17.345 92.7667 16.6544 92.452 16.0489C92.1373 15.4434 91.7036 14.9703 91.1509 14.6297C90.5977 14.2797 89.9591 14.1046 89.2346 14.1046C88.5198 14.1046 87.8761 14.2749 87.3041 14.6155C86.7418 14.9467 86.2984 15.415 85.974 16.0205C85.6502 16.626 85.488 17.3261 85.488 18.1208C85.488 18.925 85.6502 19.6299 85.974 20.2354C86.3081 20.8409 86.756 21.3139 87.3183 21.6545C87.8807 21.9951 88.5101 22.1654 89.2061 22.1654Z" fill="white"/>
<path d="M68.968 25.7699V4.85156H73.6583V21.6259H81.2513V25.7699H68.968Z" fill="white"/>
<path fill-rule="evenodd" clip-rule="evenodd" d="M140.421 33.2872V37.4828H140.293C140.106 37.3218 139.911 37.1704 139.706 37.0287C138.705 36.3286 137.552 35.9786 136.246 35.9786C135.092 35.9786 133.986 36.2766 132.928 36.8726C131.87 37.4687 131.012 38.3533 130.354 39.5264C129.696 40.6996 129.382 42.1613 129.41 43.9116C129.391 45.2361 129.572 46.3904 129.954 47.3743C130.335 48.3488 130.85 49.1577 131.498 49.8011C132.147 50.4444 132.871 50.927 133.672 51.2484C134.473 51.5704 135.283 51.7313 136.103 51.7313C137.399 51.7313 138.562 51.3716 139.592 50.6525C140.108 50.2875 140.57 49.8617 140.978 49.3754H141.119C141.226 49.6494 141.389 49.9096 141.608 50.1559C141.903 50.4678 142.294 50.7565 142.781 51.0214C143.276 51.2772 143.877 51.5133 144.582 51.7313L146.17 47.9846C145.731 47.8238 145.417 47.6298 145.226 47.4027C145.035 47.1757 144.94 46.783 144.94 46.2248V30.7246L140.421 33.2872ZM138.934 47.4595C138.419 47.8001 137.828 47.9751 137.161 47.9846C136.503 47.9751 135.917 47.8001 135.402 47.4595C134.887 47.1189 134.487 46.6364 134.201 46.0119C133.925 45.3875 133.791 44.659 133.801 43.8265C133.791 42.975 133.934 42.2465 134.23 41.6409C134.525 41.026 134.93 40.5577 135.445 40.236C135.969 39.9049 136.57 39.7441 137.247 39.7535C137.885 39.7441 138.457 39.9001 138.963 40.2218C139.468 40.5435 139.868 41.0118 140.164 41.6268C140.46 42.2323 140.612 42.9655 140.621 43.8265C140.612 44.659 140.46 45.3875 140.164 46.0119C139.868 46.6364 139.458 47.1189 138.934 47.4595Z" fill="#AAAAAA"/>
<path d="M196.516 51.5042V36.2339H200.892V38.2349H200.96C201.081 38.0541 201.216 37.8838 201.364 37.724C201.897 37.1563 202.536 36.7306 203.28 36.4468C204.023 36.1535 204.819 36.0068 205.667 36.0068C206.697 36.0068 207.584 36.2433 208.328 36.7164C209.071 37.1894 209.643 37.8375 210.044 38.6607C210.444 39.4837 210.644 40.4346 210.644 41.5131V51.5042H206.125V42.4923C206.125 41.5746 205.906 40.8887 205.468 40.4346C205.029 39.971 204.433 39.7392 203.68 39.7392C203.184 39.7392 202.736 39.848 202.336 40.0656C201.936 40.2737 201.616 40.586 201.378 41.0022C201.149 41.409 201.035 41.9199 201.035 42.5349V51.5042H196.516Z" fill="#AAAAAA"/>
<path fill-rule="evenodd" clip-rule="evenodd" d="M187.228 51.7312C185.75 51.7312 184.401 51.3952 183.181 50.7236C181.97 50.0517 181.002 49.1245 180.278 47.9419C179.563 46.7593 179.205 45.3969 179.205 43.8547C179.205 42.3126 179.563 40.9502 180.278 39.7676C181.002 38.585 181.97 37.6625 183.181 37.0002C184.401 36.3379 185.75 36.0068 187.228 36.0068C188.734 36.0068 190.092 36.3379 191.303 37.0002C192.513 37.6625 193.472 38.585 194.177 39.7676C194.892 40.9502 195.25 42.3126 195.25 43.8547C195.25 45.3969 194.892 46.7593 194.177 47.9419C193.472 49.1245 192.509 50.0517 191.289 50.7236C190.078 51.3952 188.724 51.7312 187.228 51.7312ZM187.228 47.8993C187.933 47.8993 188.567 47.729 189.129 47.3884C189.692 47.0478 190.135 46.5748 190.459 45.9693C190.783 45.3637 190.945 44.6589 190.945 43.8547C190.945 43.0789 190.788 42.3883 190.473 41.7828C190.159 41.1773 189.725 40.7042 189.172 40.3636C188.619 40.0136 187.981 39.8385 187.256 39.8385C186.541 39.8385 185.898 40.0088 185.326 40.3494C184.763 40.6806 184.32 41.1489 183.996 41.7544C183.672 42.3599 183.509 43.06 183.509 43.8547C183.509 44.6589 183.672 45.3637 183.996 45.9693C184.33 46.5748 184.778 47.0478 185.34 47.3884C185.902 47.729 186.532 47.8993 187.228 47.8993Z" fill="#AAAAAA"/>
<path d="M173.363 51.5042V36.2339H177.882V51.5042H173.363Z" fill="#AAAAAA"/>
<path d="M173.677 33.6939C174.211 34.2237 174.865 34.4886 175.637 34.4886C176.409 34.4886 177.057 34.2237 177.582 33.6939C178.116 33.1641 178.383 32.5207 178.383 31.7639C178.383 30.988 178.116 30.34 177.582 29.8196C177.057 29.2898 176.409 29.0249 175.637 29.0249C174.865 29.0249 174.211 29.2898 173.677 29.8196C173.144 30.34 172.877 30.988 172.877 31.7639C172.877 32.5207 173.144 33.1641 173.677 33.6939Z" fill="#AAAAAA"/>
<path d="M165.061 50.1699C165.986 51.2105 167.397 51.7312 169.294 51.7312C169.875 51.7312 170.447 51.6787 171.01 51.5748C171.582 51.4708 172.083 51.3149 172.512 51.1065L171.053 47.5729C170.891 47.658 170.705 47.729 170.495 47.7857C170.285 47.8425 170.071 47.8709 169.852 47.8709C169.385 47.8709 168.989 47.729 168.665 47.4451C168.35 47.1519 168.193 46.6788 168.193 46.026V39.952H171.754V36.2339H168.193V31.8345H163.674V36.2339H161.1V39.952H163.674V46.1395C163.674 47.7763 164.137 49.1198 165.061 50.1699Z" fill="#AAAAAA"/>
<path fill-rule="evenodd" clip-rule="evenodd" d="M149.281 51.1066C150.072 51.5228 150.987 51.7312 152.026 51.7312C153.227 51.7312 154.286 51.4946 155.201 51.0213C155.941 50.6428 156.482 50.2219 156.825 49.7584H156.895C157.029 49.9855 157.207 50.2125 157.432 50.4396C157.879 50.8936 158.547 51.2675 159.434 51.5607L159.963 51.7312L161.55 47.9845L161.207 47.8709C160.873 47.7668 160.639 47.5824 160.506 47.3175C160.382 47.0431 160.32 46.6458 160.32 46.1254V41.5273C160.32 40.9786 160.253 40.3873 160.12 39.7534C159.996 39.11 159.729 38.5093 159.319 37.9511C158.909 37.3834 158.28 36.9198 157.432 36.5603C156.583 36.1913 155.439 36.0068 154 36.0068C153.075 36.0068 152.207 36.0825 151.397 36.2339C150.596 36.3758 149.881 36.5556 149.252 36.7732C148.633 36.9908 148.132 37.2084 147.75 37.426L149.252 40.8035C149.605 40.5765 150.024 40.3778 150.511 40.2075C150.997 40.0277 151.502 39.8906 152.026 39.796C152.551 39.6919 153.042 39.6399 153.499 39.6399C153.899 39.6399 154.257 39.6871 154.572 39.7818C154.886 39.8669 155.153 39.9946 155.372 40.1649C155.592 40.3352 155.754 40.5434 155.858 40.7894C155.973 41.0259 156.03 41.2908 156.03 41.5841V42.3505H153.127C151.792 42.3505 150.649 42.5539 149.695 42.9607C148.752 43.3675 148.027 43.9257 147.522 44.6353C147.026 45.3448 146.778 46.1585 146.778 47.0762C146.778 47.9466 146.997 48.7319 147.436 49.432C147.884 50.1321 148.499 50.6903 149.281 51.1066ZM153.671 45.1604H156.245V46.1112C156.245 46.6694 156.063 47.1141 155.701 47.4452C155.348 47.7763 154.929 48.0128 154.443 48.1548C153.957 48.2967 153.532 48.3677 153.17 48.3677C152.779 48.3677 152.427 48.3061 152.112 48.1831C151.807 48.0507 151.569 47.8709 151.397 47.6439C151.226 47.4073 151.14 47.1235 151.14 46.7924C151.14 46.2342 151.354 45.8226 151.783 45.5577C152.222 45.2928 152.851 45.1604 153.671 45.1604Z" fill="#AAAAAA"/>
<path d="M114.245 51.5042V36.2339H118.62V38.2349H118.689C118.81 38.0541 118.945 37.8838 119.093 37.724C119.626 37.1563 120.265 36.7306 121.008 36.4468C121.752 36.1535 122.548 36.0068 123.396 36.0068C124.426 36.0068 125.313 36.2433 126.056 36.7164C126.8 37.1894 127.372 37.8375 127.772 38.6607C128.173 39.4837 128.373 40.4346 128.373 41.5131V51.5042H123.854V42.4923C123.854 41.5746 123.635 40.8887 123.196 40.4346C122.758 39.971 122.162 39.7392 121.409 39.7392C120.913 39.7392 120.465 39.848 120.065 40.0656C119.665 40.2737 119.345 40.586 119.107 41.0022C118.878 41.409 118.764 41.9199 118.764 42.5349V51.5042H114.245Z" fill="#AAAAAA"/>
<path d="M103.612 51.7312C102.554 51.7312 101.591 51.5087 100.723 51.0642C99.8559 50.61 99.1649 49.9476 98.6499 49.0772C98.1445 48.1973 97.8923 47.114 97.8923 45.8274V36.2339H102.411V45.2313C102.411 46.1112 102.64 46.7829 103.097 47.2465C103.564 47.7006 104.131 47.9277 104.799 47.9277C105.295 47.9277 105.728 47.8189 106.1 47.6013C106.481 47.3837 106.777 47.0762 106.987 46.6788C107.206 46.272 107.316 45.7895 107.316 45.2313V36.2339H111.834V46.1538C111.834 46.7025 111.915 47.0999 112.078 47.3459C112.239 47.5918 112.568 47.8047 113.064 47.9845L111.462 51.7312C110.328 51.4376 109.499 51.0546 108.974 50.5813C108.71 50.3432 108.51 50.0688 108.374 49.7584H108.259C107.86 50.1568 107.417 50.5116 106.93 50.823C105.967 51.4285 104.861 51.7312 103.612 51.7312Z" fill="#AAAAAA"/>
<path fill-rule="evenodd" clip-rule="evenodd" d="M88.704 51.7312C87.226 51.7312 85.8771 51.3952 84.6568 50.7236C83.4463 50.0517 82.4787 49.1245 81.7542 47.9419C81.0393 46.7593 80.6814 45.3969 80.6814 43.8547C80.6814 42.3126 81.0393 40.9502 81.7542 39.7676C82.4787 38.585 83.4463 37.6625 84.6568 37.0002C85.8771 36.3379 87.226 36.0068 88.704 36.0068C90.2099 36.0068 91.5685 36.3379 92.7791 37.0002C93.9896 37.6625 94.948 38.585 95.6532 39.7676C96.3686 40.9502 96.726 42.3126 96.726 43.8547C96.726 45.3969 96.3686 46.7593 95.6532 47.9419C94.948 49.1245 93.9851 50.0517 92.7648 50.7236C91.5542 51.3952 90.2003 51.7312 88.704 51.7312ZM88.704 47.8993C89.4092 47.8993 90.0432 47.729 90.6055 47.3884C91.1678 47.0478 91.6112 46.5748 91.9356 45.9693C92.2594 45.3637 92.4216 44.6589 92.4216 43.8547C92.4216 43.0789 92.2645 42.3883 91.9498 41.7828C91.6351 41.1773 91.2014 40.7042 90.6487 40.3636C90.0956 40.0136 89.457 39.8385 88.7324 39.8385C88.0176 39.8385 87.3739 40.0088 86.8019 40.3494C86.2396 40.6806 85.7962 41.1489 85.4719 41.7544C85.148 42.3599 84.9858 43.06 84.9858 43.8547C84.9858 44.6589 85.148 45.3637 85.4719 45.9693C85.8059 46.5748 86.2538 47.0478 86.8162 47.3884C87.3785 47.729 88.0079 47.8993 88.704 47.8993Z" fill="#AAAAAA"/>
<path d="M68.9333 51.5044V30.5859H81.2166V34.7299H73.6236V39.5407H79.944V43.6847H73.6236V51.5044H68.9333Z" fill="#AAAAAA"/>
<path d="M58.4008 25.4927H51.1531C51.15 25.8593 50.9329 26.1908 50.6001 26.3556L45.9302 28.6665C45.5973 28.8312 45.3848 29.1627 45.3586 29.5294H52.6062C52.6296 29.1627 52.8426 28.8312 53.1756 28.6665L57.8456 26.3556C58.1781 26.1909 58.3947 25.8594 58.4008 25.4927Z" fill="#FF6670"/>
<path d="M0.454346 29.5294H7.70212C7.70527 29.1627 7.92222 28.8312 8.25514 28.6665L12.9251 26.3556C13.258 26.1908 13.4705 25.8593 13.4966 25.4927H6.24886C6.22593 25.8594 6.0128 26.1909 5.67988 26.3556L1.00997 28.6665C0.677035 28.8312 0.460723 29.1627 0.454346 29.5294Z" fill="#FF6670"/>
<path d="M17.8466 25.4927C17.817 25.8592 17.6052 26.1908 17.2722 26.3556L12.6023 28.6665C12.2693 28.8312 12.0517 29.1628 12.052 29.5294H19.3092C19.2938 29.1636 19.5143 28.8313 19.8475 28.6665L24.5174 26.3556C24.8505 26.1908 25.0595 25.8585 25.1039 25.4927H17.8466Z" fill="#FF6670"/>
<path d="M39.546 25.4927C39.5614 25.8585 39.3409 26.1908 39.0078 26.3556L34.3379 28.6665C34.0048 28.8313 33.7957 29.1636 33.7515 29.5294H41.0087C41.0383 29.1628 41.2501 28.8312 41.5831 28.6665L46.253 26.3556C46.586 26.1908 46.8036 25.8592 46.8033 25.4927H39.546Z" fill="#FF6670"/>
</g>
<defs>
<clipPath id="clip0_137_98">
<rect width="211" height="55" fill="white"/>
</clipPath>
</defs>
</svg>
