<svg width="219" height="40" viewBox="0 0 219 40" fill="none" xmlns="http://www.w3.org/2000/svg">
<g clip-path="url(#clip0_137_28)">
<path d="M13.0964 20.3535L17.6262 22.4472L17.046 27.6526L8.94876 36.8281C4.2486 33.8022 0.898178 28.8614 0 23.1079L13.0964 20.3535Z" fill="#15E3FF"/>
<path d="M25.1831 25.94L31.2415 36.3789C27.9921 38.6605 24.0332 40 19.7613 40C18.3745 40 17.0207 39.8587 15.7134 39.59L17.0461 27.6527L20.4766 23.7656L25.1831 25.94Z" fill="#348DFC"/>
<path d="M39.1023 14.8809C39.5333 16.5142 39.7631 18.2293 39.7631 19.9981C39.7631 24.1144 38.5193 27.9402 36.3875 31.1206L25.1841 25.9404L22.5552 21.4122L25.8575 17.6691L39.1023 14.8809Z" fill="#FD4873"/>
<path d="M20.132 0C26.1505 0.109415 31.5194 2.877 35.1148 7.17842L25.8561 17.6694L20.9792 18.6959L18.519 14.4574L20.132 0Z" fill="#FFC700"/>
<path d="M18.5189 14.4576L17.9744 19.3271L13.099 20.3532L0.514648 14.5349C2.09958 8.94062 6.05788 4.34378 11.2326 1.90088L18.5189 14.4576Z" fill="#00E7B9"/>
<path d="M192.913 29.3379V19.7623C192.913 14.2856 196.088 11.8745 200.228 11.8745C202.644 11.8745 204.68 12.8045 205.957 14.5956C207.233 12.8045 209.235 11.8745 211.685 11.8745C215.825 11.8745 219 14.2856 219 19.7623V29.3379H213.824V19.7623C213.824 17.489 212.72 16.6968 211.167 16.6968C209.649 16.6968 208.545 17.489 208.545 19.7623V29.3379H203.369V19.7623C203.369 17.489 202.264 16.6968 200.746 16.6968C199.193 16.6968 198.089 17.489 198.089 19.7623V29.3379H192.913Z" fill="white"/>
<path d="M182.298 29.627C177.26 29.627 173.878 26.7336 173.878 20.9814V12.1636H179.054V20.9814C179.054 23.6681 180.365 24.8047 182.298 24.8047C184.23 24.8047 185.541 23.6681 185.541 20.9814V12.1636H190.717V20.9814C190.717 26.6992 187.336 29.627 182.298 29.627Z" fill="white"/>
<path d="M165.073 29.627C160.69 29.627 157.861 27.2848 157.792 24.0125H162.899C162.933 24.9081 163.589 25.3559 165.004 25.3559C166.591 25.3559 167.109 24.8048 167.109 24.0814C167.109 22.9448 165.866 22.8414 164.279 22.6003C161.933 22.2559 158.068 21.6703 158.068 17.5714C158.068 14.1269 160.794 11.7158 165.038 11.7158C169.283 11.7158 171.905 14.1614 172.009 17.227H166.971C166.833 16.4347 166.142 15.9869 165.107 15.9869C163.831 15.9869 163.313 16.6414 163.313 17.3303C163.313 18.3636 164.555 18.5014 166.143 18.7425C168.592 19.087 172.354 19.7414 172.354 23.7714C172.354 27.2848 169.455 29.627 165.073 29.627Z" fill="white"/>
<path d="M138.672 36.4471V20.8436C138.672 15.1258 142.536 11.7158 147.747 11.7158C153.164 11.7158 156.96 15.4014 156.96 20.8781C156.96 26.8026 152.543 29.627 148.679 29.627C146.643 29.627 144.917 28.8348 143.848 27.3192V36.4471H138.672ZM147.781 24.8048C150.128 24.8048 151.715 23.117 151.715 20.6714C151.715 18.2258 150.128 16.5381 147.781 16.5381C145.435 16.5381 143.848 18.2258 143.848 20.6714C143.848 23.117 145.435 24.8048 147.781 24.8048Z" fill="white"/>
<path d="M133.324 10.6134C131.426 10.6134 130.011 9.20114 130.011 7.30668C130.011 5.41223 131.426 4 133.324 4C135.221 4 136.636 5.41223 136.636 7.30668C136.636 9.20114 135.221 10.6134 133.324 10.6134ZM130.736 29.179V12.1634H135.912V29.179H130.736Z" fill="white"/>
<path d="M119.502 29.627C114.119 29.627 110.323 25.8381 110.323 20.6714C110.323 15.5047 114.119 11.7158 119.502 11.7158C124.885 11.7158 128.681 15.5047 128.681 20.6714C128.681 25.8381 124.885 29.627 119.502 29.627ZM119.502 24.8048C121.849 24.8048 123.436 23.117 123.436 20.6714C123.436 18.2258 121.849 16.5381 119.502 16.5381C117.156 16.5381 115.568 18.2258 115.568 20.6714C115.568 23.117 117.156 24.8048 119.502 24.8048Z" fill="white"/>
<path d="M100.332 29.627C94.9488 29.627 91.1531 25.8381 91.1531 20.6714C91.1531 15.5047 94.9488 11.7158 100.332 11.7158C105.715 11.7158 109.511 15.5047 109.511 20.6714C109.511 25.8381 105.715 29.627 100.332 29.627ZM100.332 24.8048C102.678 24.8048 104.266 23.117 104.266 20.6714C104.266 18.2258 102.678 16.5381 100.332 16.5381C97.9854 16.5381 96.3981 18.2258 96.3981 20.6714C96.3981 23.117 97.9854 24.8048 100.332 24.8048Z" fill="white"/>
<path d="M81.1619 29.627C75.7789 29.627 71.9832 25.8381 71.9832 20.6714C71.9832 15.5047 75.7789 11.7158 81.1619 11.7158C86.5449 11.7158 90.3406 15.5047 90.3406 20.6714C90.3406 25.8381 86.5449 29.627 81.1619 29.627ZM81.1619 24.8048C83.5084 24.8048 85.0957 23.117 85.0957 20.6714C85.0957 18.2258 83.5084 16.5381 81.1619 16.5381C78.8155 16.5381 77.2282 18.2258 77.2282 20.6714C77.2282 23.117 78.8155 24.8048 81.1619 24.8048Z" fill="white"/>
<path d="M55 29.1791V6.65234H60.5901V24.0124H71.2526V29.1791H55Z" fill="white"/>
<path d="M108.824 30.7739C108.302 35.5563 105.083 38.0002 100.481 38.0002C95.8755 38.0002 92.656 35.5826 92.1365 30.7739H97.3874C97.7828 32.4474 98.9316 33.1778 100.481 33.1778C102.029 33.1778 103.178 32.4475 103.574 30.7739H108.824Z" fill="white"/>
</g>
<defs>
<clipPath id="clip0_137_28">
<rect width="219" height="40" fill="white"/>
</clipPath>
</defs>
</svg>
